<?xml version="1.0" encoding="UTF-8"?>
<svg xmlns="http://www.w3.org/2000/svg" xmlns:xlink="http://www.w3.org/1999/xlink" viewBox="0 0 67.82 81.44">
  <defs>
    <style>
      .cls-1 {
        fill: none;
      }

      .cls-2 {
        clip-path: url(#clippath);
      }

      .cls-3 {
        mask: url(#mask);
      }

      .cls-4 {
        fill: #cc9f53;
      }

      .cls-5 {
        fill: url(#Degradado_sin_nombre_223);
      }

      .cls-6 {
        fill: url(#Degradado_sin_nombre_224);
      }

      .cls-7 {
        clip-path: url(#clippath-1);
      }

      .cls-8 {
        clip-path: url(#clippath-2);
      }

      .cls-9 {
        mix-blend-mode: overlay;
      }

      .cls-10 {
        fill: url(#Degradado_sin_nombre_224-2);
      }

      .cls-11 {
        fill: url(#Degradado_sin_nombre_223-2);
      }

      .cls-12 {
        isolation: isolate;
      }

      .cls-13 {
        mask: url(#mask-1);
      }
    </style>
    <clipPath id="clippath">
      <rect class="cls-1" x="6.72" y="4.94" width="56.48" height="71.76"/>
    </clipPath>
    <clipPath id="clippath-1">
      <path class="cls-1" d="m40.44,19.13c.85.16.7-.95.22-1.17-.86-.41-2.49.14-2.44.4.05.24,1.77.69,2.22.77"/>
    </clipPath>
    <linearGradient id="Degradado_sin_nombre_224" data-name="Degradado sin nombre 224" x1="-4338.14" y1="1729.29" x2="-4337.64" y2="1729.29" gradientTransform="translate(-813542.77 -324304.93) rotate(180) scale(187.55 -187.55)" gradientUnits="userSpaceOnUse">
      <stop offset="0" stop-color="#fff"/>
      <stop offset="1" stop-color="#000"/>
    </linearGradient>
    <mask id="mask" x="37.42" y="16.2" width="4.63" height="4.44" maskUnits="userSpaceOnUse">
      <rect class="cls-6" x="38.2" y="16.64" width="3.06" height="3.57" transform="translate(3.88 43.58) rotate(-59.93)"/>
    </mask>
    <linearGradient id="Degradado_sin_nombre_223" data-name="Degradado sin nombre 223" x1="-4338.14" y1="1729.29" x2="-4337.64" y2="1729.29" gradientTransform="translate(-813542.69 -324304.87) rotate(180) scale(187.55 -187.55)" gradientUnits="userSpaceOnUse">
      <stop offset="0" stop-color="#fff6c5"/>
      <stop offset=".4" stop-color="#d3bb8e"/>
      <stop offset="1" stop-color="#8c5d35"/>
    </linearGradient>
    <clipPath id="clippath-2">
      <path class="cls-1" d="m60.92,4.94H9c-1.26,0-2.28,1.02-2.28,2.28v55.67c0,5.23,4.24,9.48,9.48,9.48h9.79c2.97,0,5.82,1.18,7.93,3.28l1.05,1.05,1.05-1.05c2.1-2.1,4.95-3.28,7.92-3.28h9.79c5.23,0,9.47-4.24,9.47-9.47V7.22c0-1.26-1.02-2.28-2.28-2.28m-11.52,21.66c0-3.35,1.05-7.2,4.64-5.59v1.15c-.37.37-.91.73-1.43.71.96.27,1.43.84,1.43.84v1.18c-.37.37-.91.73-1.43.71.96.27,1.43.84,1.43.84v1.36c-2.24,0-1.89,2.24-1.89,3.82-2.97,0-2.56,4.85-2.25,8.16-.77-1.26-1.82-2.17-2.7-2.65.25-1.28-.9-4.27-1.55-4.89,1.76-.64,3.76-3.24,3.76-5.63m-2.18,37.64c-.37-.37-.73-.91-.71-1.43-.27.96-.84,1.43-.84,1.43h-1.18c-.37-.37-.73-.91-.71-1.43-.27.96-.84,1.43-.84,1.43h-3.27c0-2.03-.93-5.59-3.41-6.42-.83-1.29,1.69-4.76,1.39-5.85,1.61-.45,2.95-1.61,3.7-2.93,3.46,2.6,2.75,5.61,4.42,6.91-1.05.48-3.21,1.05-4.11.45,1.5,1.59,1.98,3.83,1.98,3.83,4.99,0,5.65,1.46,5.65,4.01h-2.07Zm8.18-24.47c-.37.37-.91.74-1.43.71.96.27,1.43.84,1.43.84v1.18c-.37.37-.91.73-1.43.71.96.27,1.43.84,1.43.84v1.94c-3.28,0-4.55,4.5-4.55,4.5,0,0-.15-.77-1.9-3.68-1.74-2.91-5.72-2.4-6.8-.92-.24-1.11-1.28-2.99-3.75-4.35,1.85,2.42,2.63,5.51,2.63,5.51-.66.92-2.16,3.02-3.53,3.46-1.5-1.58-3.68-1.69-3.68-1.69,0,0,2.06,1.11,2.66,2.64-.24,2.77-2.48,4.71-1.77,6.44-1.71,0-3.74-1.42-3.74-2.3,0,0-1.58,2-1.9,3.24-.4,1.55.9,2.77.9,2.77,4.99,0,5.65,1.46,5.65,4.01h-2.07c-.37-.37-.73-.91-.71-1.43-.27.96-.84,1.43-.84,1.43h-1.18c-.37-.37-.73-.91-.71-1.43-.27.96-.84,1.43-.84,1.43h-3.27c0-1.28-1.14-3.36-2.91-3.36,0-1.15.94-3.7,2.16-4.47-1.43,0-2.58-.72-3.34-2.31,2.43.09,3.83-3.69,4.22-6-.85.23-1.86.42-2.93.42-1.81,0-3.44-.77-4.61-2.16-1.37-1.65-1.95-3.98-1.54-6.24.48-2.63,1.22-5.27,1.72-6.67.51-1.39.87-2.4.87-3.74,0-1.61-.64-2.76-1.82-3.26-.79.88-2,1.55-3.22,1.55-2.56,0-4.58-1.67-5-3.92,1.48.95,4.53-.52,6.38-.66.61-.05,1.64.02,2.44.27,2.52.81,4.02,3.06,4.02,6.01,0,1.83-.48,3.15-1.04,4.69-.49,1.36-1.17,3.82-1.6,6.22-.26,1.43.09,2.95.93,3.95.44.52,1.22,1.15,2.46,1.15.99,0,1.92-.22,2.64-.46,2.78-2.11,5.91-5.68,4.58-9.45-1.01,1.8-3.61,1.88-3.61,1.88,2.57-4.55-2.25-8.44,2.04-13.07-2.81,1.01-3.97,3.44-3.97,3.44,0,0-2.15-6.14,3.97-9.15-2.14-.57-4.42.67-4.42.67,0,0,1.34-6.12,7.57-4.87.38-1.8-2.66-1.83-2.81-1.83.2-.09,6.77-3.13,8.8,1.54,1.66-.09,2.22,0,2.93.32,2.39,1.07,4.75,1.1,5.34,1.56.17.24.36,1.39-.04,1.41-.4.02-1.27-.51-1.39-.82-.45.9.95,1.4,1.31,1.77.36.36.1,1.79-.89,3.18-.48-.87-1.6-1.43-2.21-1.47-.87-.06-1.9.3-2.17,1.24-.31,1.08.32,2.33,1.57,2.33,1.72,0,2.37-.61,2.37-.61.81.59.35,2.5-.88,3.61-.16-.25-1.04-.93-2.06-1.02-1.36-.11-1.58.41-3.31-.09-1.69-.49-2.69-1.83-3.33-4.32.15,2.18.6,3.43,1.4,4.26,2.5,2.6,6.94.31,8.06,4.87-1.09-1-2.77-1.51-3.35-1.06,2.82,1.27,3.82,3.56,4.12,5.29-1.07-.45-2.46-.86-3.61-.64,1.29.18,2.44.96,3.72,1.96,2.86,2.42,4.53,5.01,5.18,6.19,0-3.34,1.05-6.76,4.64-5.15v1.15Z"/>
    </clipPath>
    <linearGradient id="Degradado_sin_nombre_224-2" data-name="Degradado sin nombre 224" x1="-4338.14" y1="1729.28" x2="-4337.64" y2="1729.28" gradientTransform="translate(-813524.5 -324283.56) rotate(-180) scale(187.55 -187.55)" xlink:href="#Degradado_sin_nombre_224"/>
    <mask id="mask-1" x="-24.4" y="-19.55" width="118.72" height="120.75" maskUnits="userSpaceOnUse">
      <rect class="cls-10" x="-10.25" y="-1.6" width="90.41" height="84.84" transform="translate(-17.89 50.62) rotate(-59.93)"/>
    </mask>
    <linearGradient id="Degradado_sin_nombre_223-2" data-name="Degradado sin nombre 223" x1="-4338.14" y1="1729.28" x2="-4337.64" y2="1729.28" gradientTransform="translate(-813524.45 -324283.43) rotate(180) scale(187.55 -187.55)" xlink:href="#Degradado_sin_nombre_223"/>
  </defs>
  <g class="cls-12">
    <g id="Capa_1" data-name="Capa 1">
      <g>
        <path class="cls-4" d="m40.44,19.13c.85.16.7-.95.22-1.17-.86-.41-2.49.14-2.44.4.05.24,1.77.69,2.22.77"/>
        <path class="cls-4" d="m60.92,4.94H8.99c-1.26,0-2.28,1.02-2.28,2.28v55.67c0,5.23,4.24,9.48,9.48,9.48h9.79c2.97,0,5.82,1.18,7.93,3.28l1.05,1.05,1.05-1.05c2.1-2.1,4.95-3.28,7.92-3.28h9.79c5.23,0,9.47-4.24,9.47-9.47V7.22c0-1.26-1.02-2.28-2.28-2.28m-11.52,21.66c0-3.35,1.05-7.2,4.64-5.59v1.15c-.37.37-.91.74-1.43.71.96.27,1.43.84,1.43.84v1.18c-.37.37-.91.73-1.43.71.96.27,1.43.84,1.43.84v1.36c-2.24,0-1.89,2.24-1.89,3.82-2.97,0-2.57,4.85-2.25,8.16-.77-1.26-1.82-2.17-2.7-2.65.25-1.28-.9-4.27-1.55-4.89,1.76-.64,3.76-3.24,3.76-5.63m-2.18,37.64c-.37-.37-.74-.91-.71-1.43-.27.96-.84,1.43-.84,1.43h-1.18c-.37-.37-.73-.91-.71-1.43-.27.96-.84,1.43-.84,1.43h-3.27c0-2.03-.93-5.59-3.41-6.42-.83-1.29,1.69-4.76,1.39-5.85,1.61-.45,2.95-1.61,3.7-2.93,3.46,2.6,2.75,5.61,4.42,6.91-1.05.48-3.21,1.05-4.11.45,1.5,1.59,1.98,3.83,1.98,3.83,4.99,0,5.65,1.46,5.65,4.01h-2.07Zm8.18-24.47c-.37.37-.91.74-1.43.71.96.27,1.43.84,1.43.84v1.18c-.37.37-.91.73-1.43.71.96.27,1.43.84,1.43.84v1.94c-3.28,0-4.55,4.5-4.55,4.5,0,0-.15-.77-1.9-3.68-1.74-2.91-5.72-2.4-6.8-.92-.24-1.11-1.28-2.99-3.75-4.35,1.85,2.42,2.63,5.51,2.63,5.51-.66.92-2.16,3.02-3.53,3.46-1.5-1.58-3.68-1.69-3.68-1.69,0,0,2.06,1.11,2.66,2.64-.24,2.77-2.49,4.71-1.77,6.44-1.71,0-3.74-1.42-3.74-2.3,0,0-1.58,2-1.9,3.24-.4,1.55.9,2.77.9,2.77,4.99,0,5.65,1.46,5.65,4.01h-2.07c-.37-.37-.73-.91-.71-1.43-.27.96-.84,1.43-.84,1.43h-1.18c-.37-.37-.73-.91-.71-1.43-.27.96-.84,1.43-.84,1.43h-3.27c0-1.28-1.14-3.36-2.91-3.36,0-1.15.94-3.7,2.16-4.47-1.43,0-2.58-.72-3.34-2.31,2.43.09,3.83-3.69,4.22-6-.85.23-1.86.42-2.93.42-1.81,0-3.44-.77-4.61-2.16-1.37-1.65-1.95-3.98-1.54-6.24.48-2.63,1.22-5.27,1.72-6.66.51-1.39.87-2.4.87-3.74,0-1.62-.64-2.76-1.82-3.26-.79.88-2,1.55-3.22,1.55-2.56,0-4.58-1.67-5-3.92,1.48.95,4.53-.52,6.38-.66.61-.05,1.64.02,2.44.27,2.52.81,4.02,3.06,4.02,6.01,0,1.83-.48,3.15-1.04,4.69-.49,1.36-1.17,3.82-1.6,6.22-.26,1.43.09,2.95.93,3.95.44.52,1.22,1.15,2.46,1.15.99,0,1.92-.22,2.64-.46,2.78-2.11,5.91-5.68,4.58-9.45-1.01,1.81-3.61,1.88-3.61,1.88,2.57-4.55-2.25-8.44,2.04-13.07-2.81,1.01-3.97,3.43-3.97,3.43,0,0-2.15-6.14,3.97-9.15-2.14-.57-4.42.67-4.42.67,0,0,1.35-6.12,7.56-4.87.38-1.81-2.66-1.83-2.81-1.83.2-.1,6.77-3.13,8.8,1.54,1.66-.09,2.22,0,2.93.32,2.39,1.07,4.75,1.1,5.34,1.56.17.24.36,1.39-.04,1.41-.4.02-1.27-.51-1.39-.82-.45.9.95,1.4,1.31,1.77.36.36.1,1.79-.89,3.18-.48-.87-1.6-1.43-2.21-1.47-.87-.06-1.9.3-2.17,1.24-.31,1.08.32,2.33,1.57,2.33,1.72,0,2.37-.61,2.37-.61.81.58.35,2.5-.88,3.61-.16-.25-1.04-.94-2.06-1.02-1.36-.11-1.58.41-3.31-.09-1.69-.49-2.69-1.83-3.33-4.32.15,2.18.6,3.43,1.4,4.26,2.5,2.6,6.94.31,8.06,4.87-1.09-1-2.77-1.51-3.35-1.06,2.82,1.27,3.82,3.56,4.11,5.29-1.07-.45-2.46-.86-3.61-.64,1.29.18,2.44.96,3.72,1.96,2.86,2.42,4.53,5.01,5.18,6.19,0-3.34,1.05-6.76,4.64-5.15v1.15Z"/>
        <g class="cls-9">
          <g class="cls-2">
            <g class="cls-7">
              <g class="cls-3">
                <rect class="cls-5" x="38.2" y="16.64" width="3.06" height="3.57" transform="translate(3.88 43.58) rotate(-59.93)"/>
              </g>
            </g>
            <g class="cls-8">
              <g class="cls-13">
                <rect class="cls-11" x="-10.25" y="-1.6" width="90.41" height="84.84" transform="translate(-17.89 50.62) rotate(-59.93)"/>
              </g>
            </g>
          </g>
        </g>
      </g>
    </g>
  </g>
</svg>