<?xml version="1.0" encoding="UTF-8"?>
<svg xmlns="http://www.w3.org/2000/svg" xmlns:xlink="http://www.w3.org/1999/xlink" viewBox="0 0 176.35 75.04">
  <defs>
    <style>
      .cls-1 {
        fill: none;
      }

      .cls-2 {
        clip-path: url(#clippath);
      }

      .cls-3 {
        mask: url(#mask);
      }

      .cls-4 {
        fill: #cc9f53;
      }

      .cls-5 {
        fill: #385cad;
      }

      .cls-6 {
        mix-blend-mode: multiply;
      }

      .cls-7 {
        fill: url(#Degradado_sin_nombre_222);
      }

      .cls-8 {
        fill: url(#Degradado_sin_nombre_223);
      }

      .cls-9 {
        fill: url(#Degradado_sin_nombre_224);
      }

      .cls-10 {
        fill: url(#Degradado_sin_nombre_225);
      }

      .cls-11 {
        clip-path: url(#clippath-1);
      }

      .cls-12 {
        clip-path: url(#clippath-4);
      }

      .cls-13 {
        clip-path: url(#clippath-3);
      }

      .cls-14 {
        clip-path: url(#clippath-2);
      }

      .cls-15 {
        clip-path: url(#clippath-7);
      }

      .cls-16 {
        clip-path: url(#clippath-8);
      }

      .cls-17 {
        clip-path: url(#clippath-6);
      }

      .cls-18 {
        clip-path: url(#clippath-5);
      }

      .cls-19 {
        clip-path: url(#clippath-9);
      }

      .cls-20 {
        mix-blend-mode: overlay;
      }

      .cls-21 {
        fill: url(#Degradado_sin_nombre_92);
      }

      .cls-22 {
        fill: url(#Degradado_sin_nombre_224-2);
      }

      .cls-23 {
        fill: url(#Degradado_sin_nombre_223-2);
      }

      .cls-24 {
        isolation: isolate;
      }

      .cls-25 {
        mask: url(#mask-1);
      }
    </style>
    <clipPath id="clippath">
      <rect class="cls-1" x="14.34" y="18.09" width="152.07" height="42.55"/>
    </clipPath>
    <clipPath id="clippath-1">
      <path class="cls-1" d="m14.34,37.7h3.36v-5.73h7.16v5.73h6.31v5.46h-6.31v8.56c0,.86.19,1.54.56,2.03.37.49,1.05.74,2.04.74.54,0,1.08-.04,1.63-.11.55-.07,1.08-.19,1.59-.34l.49,5c-.72.33-1.6.59-2.64.77-1.04.18-2.09.27-3.13.27-1.4,0-2.59-.22-3.56-.65-.97-.43-1.76-1.01-2.37-1.74-.61-.73-1.06-1.6-1.34-2.6-.28-1-.43-2.07-.43-3.2v-8.72h-3.36v-5.46Zm28.32-.45c2.86,0,5.13.84,6.8,2.53,1.67,1.69,2.51,4.02,2.51,7,0,1.13-.13,2.34-.4,3.62h-12.71c.06,1.34.51,2.42,1.36,3.24.85.82,2.15,1.23,3.91,1.23,1.07,0,2.2-.1,3.38-.29,1.18-.19,2.2-.48,3.07-.87l.89,4.61c-1.13.57-2.41,1-3.83,1.3-1.42.3-2.89.45-4.41.45-1.91,0-3.59-.28-5.06-.83-1.46-.55-2.68-1.32-3.67-2.3-.98-.98-1.73-2.16-2.24-3.53-.51-1.37-.76-2.89-.76-4.56,0-1.79.26-3.4.78-4.83.52-1.43,1.27-2.65,2.24-3.65.97-1,2.14-1.77,3.51-2.3,1.37-.54,2.91-.81,4.61-.81m-.22,4.56c-1.13,0-2.01.37-2.62,1.1-.61.73-.92,1.74-.92,3.02h6.35c.06-.24.09-.49.09-.76,0-.95-.25-1.75-.76-2.39-.51-.64-1.22-.96-2.15-.96m29.98-4.56c1.13,0,2.24.12,3.33.36,1.09.24,2.04.57,2.84.98l-.72,5.1c-.57-.23-1.25-.42-2.04-.6-.79-.17-1.59-.26-2.39-.26-1.91,0-3.34.52-4.29,1.55-.95,1.04-1.43,2.46-1.43,4.26s.48,3.23,1.43,4.26c.95,1.04,2.39,1.55,4.29,1.55.81,0,1.6-.08,2.39-.26.79-.17,1.47-.37,2.04-.6l.72,5.1c-.81.42-1.75.75-2.84.98-1.09.24-2.2.36-3.33.36-1.85,0-3.51-.28-4.99-.83-1.48-.55-2.72-1.33-3.74-2.33-1.01-1-1.79-2.2-2.33-3.6-.54-1.4-.81-2.95-.81-4.65s.27-3.25.81-4.65c.54-1.4,1.31-2.6,2.33-3.6,1.01-1,2.26-1.77,3.74-2.33,1.48-.55,3.14-.83,4.99-.83m35.88.45h7.16v21.92h-7.16v-21.92Zm57.93,15.11h0l.18,6.14s-2.73.76-4.42.76c-2.98,0-4.11-1.59-4.47-2.81-.59.81-1.25,1.8-2.82,2.47-1.2.51-2.49.79-3.9.79-.99,0-1.88-.17-2.66-.5-.78-.33-1.44-.78-1.96-1.35-.53-.57-.93-1.24-1.22-2.01-.29-.77-.43-1.59-.43-2.46,0-2.05.64-3.59,1.92-4.63,1.28-1.04,3.09-1.65,5.44-1.83.87-.06,1.8-.11,2.78-.14.98-.03,1.84-.06,2.6-.09v-.72c0-2.41-1.34-3.61-4.02-3.61-1.05,0-2.07.12-3.05.36-.98.24-1.87.57-2.69.99l-1.31-5.01c1.05-.6,2.29-1.09,3.72-1.47,1.43-.38,2.99-.56,4.67-.56,3.1,0,5.52.81,7.27,2.41,1.74,1.61,2.62,4.02,2.62,7.24l-.15,4.53c0,1.62.51,1.61,1.91,1.48m-12.47,2.61c1.73,0,3.06-.97,3.49-1.29v-3c-.72.06-1.37.13-1.94.2-.57.08-1.13.14-1.67.2-1.47.18-2.21.87-2.21,2.08,0,.54.19.98.56,1.31.38.33,1.07.5,1.77.5m-11.72-2.54c-1.38.13-1.89.14-1.89-1.46h0v-23.33h-7.17v9.77c-.48-.15-1.02-.28-1.61-.38-.6-.1-1.28-.16-2.06-.16-1.55,0-3.02.25-4.39.74-1.37.49-2.58,1.23-3.61,2.22-1.03.99-1.85,2.21-2.46,3.67-.61,1.46-.92,3.15-.92,5.06,0,1.7.22,3.24.67,4.61.45,1.37,1.07,2.55,1.86,3.52.79.97,1.72,1.72,2.8,2.24,1.08.52,2.22.78,3.45.78,1.52,0,2.83-.29,3.92-.87,1.09-.58,1.98-1.36,2.67-2.33l.1-.02c.35,1.21,1.48,2.79,4.44,2.79,1.68,0,4.39-.76,4.39-.76l-.18-6.09Zm-9.06.29c-.93,1.02-2.15,1.53-3.67,1.53s-2.53-.54-3.2-1.62c-.67-1.08-1.01-2.47-1.01-4.18,0-1.92.44-3.43,1.32-4.54.88-1.11,2.22-1.66,4.01-1.66,1.04,0,1.9.12,2.55.36v10.12Zm-27.72.01c-1.42.14-1.94.15-1.94-1.5v-13.98h-7.34v15.42c-.34.49-.79.9-1.35,1.24-.57.34-1.23.5-2,.5-1.19,0-2.05-.44-2.57-1.31-.52-.87-.78-2.24-.78-4.11v-11.75h-7.34v11.61c0,1.5.14,2.93.41,4.29.27,1.36.73,2.56,1.35,3.6.63,1.04,1.45,1.87,2.48,2.5,1.02.63,2.29.94,3.79.94,1.19,0,2.32-.25,3.39-.73,1.07-.49,2.03-1.38,2.89-2.66.36,1.24,1.66,2.95,4.7,2.95,1.72,0,4.49-.78,4.49-.78l-.18-6.24ZM18.63,18.83v6.98h3.19v1.69h-5.33v-8.68h2.14Zm17.59-.16c.45,0,.91.04,1.36.13.46.09.85.21,1.18.37l-.31,1.57c-.26-.1-.56-.19-.89-.27-.33-.07-.67-.11-1-.11-.89,0-1.59.23-2.1.69-.51.46-.77,1.17-.77,2.11s.26,1.64.77,2.11c.51.46,1.21.69,2.1.69.33,0,.66-.04,1-.11.33-.07.63-.16.89-.27l.31,1.57c-.33.16-.72.29-1.18.38-.46.09-.91.13-1.36.13-.76,0-1.44-.11-2.02-.34-.58-.23-1.07-.54-1.46-.94-.39-.4-.69-.87-.89-1.42-.2-.55-.3-1.15-.3-1.8s.1-1.25.3-1.8c.2-.55.5-1.02.89-1.42.39-.4.88-.71,1.46-.94.58-.23,1.26-.34,2.02-.34m3.45.59c0-.33.11-.61.33-.83.22-.23.5-.34.85-.34s.63.11.85.34c.22.23.33.5.33.83s-.11.61-.33.83c-.22.23-.5.34-.85.34s-.63-.11-.85-.34c-.22-.23-.33-.5-.33-.83m.13,1.86h2.08v6.39h-2.08v-6.39Zm42.3,9.07h-2.09v-3.17c-.19.19-.42.34-.69.45-.27.11-.58.16-.94.16-.43,0-.82-.08-1.17-.24-.34-.16-.63-.38-.87-.67-.23-.29-.41-.63-.53-1.03-.12-.4-.18-.84-.18-1.32,0-.51.08-.98.23-1.39.16-.42.39-.77.7-1.07.31-.3.69-.52,1.15-.68.46-.16.99-.24,1.59-.24.56,0,1.06.05,1.5.16.44.1.87.26,1.29.47v8.57Zm-3.11-4.14c.4,0,.74-.11,1.03-.34v-3.03c-.2-.1-.44-.14-.73-.14-.53,0-.92.17-1.18.5-.26.34-.38.78-.38,1.33s.1.94.31,1.24c.2.3.52.45.96.45m14.87-5.06c.83,0,1.49.25,1.98.74.49.49.73,1.17.73,2.04,0,.33-.04.68-.12,1.06h-3.7c.02.39.15.71.4.94.25.24.63.36,1.14.36.31,0,.64-.03.98-.08.34-.06.64-.14.89-.25l.26,1.34c-.33.17-.7.29-1.11.38-.41.09-.84.13-1.28.13-.56,0-1.05-.08-1.47-.24-.43-.16-.78-.38-1.07-.67-.29-.29-.5-.63-.65-1.03-.15-.4-.22-.84-.22-1.33,0-.52.08-.99.23-1.41.15-.42.37-.77.65-1.06.28-.29.62-.51,1.02-.67.4-.16.85-.23,1.34-.23m-.07,1.33c-.33,0-.58.11-.76.32-.18.21-.27.51-.27.88h1.85c.02-.07.03-.14.03-.22,0-.28-.07-.51-.22-.7-.15-.19-.36-.28-.63-.28m-21.15,3.2c-.4.04-.55.04-.55-.42h0v-6.79h-2.08v2.84c-.14-.04-.3-.08-.47-.11-.17-.03-.37-.05-.6-.05-.45,0-.88.07-1.28.22s-.75.36-1.05.64c-.3.29-.54.64-.72,1.07-.18.43-.27.92-.27,1.47,0,.5.07.94.2,1.34s.31.74.54,1.02c.23.28.5.5.81.65.31.15.65.23,1,.23.44,0,.82-.08,1.14-.25.32-.17.58-.39.78-.68h.03c.1.35.43.8,1.29.8.49,0,1.28-.22,1.28-.22l-.05-1.77Zm-2.64.08c-.27.3-.63.44-1.07.44s-.74-.16-.93-.47c-.2-.31-.29-.72-.29-1.22,0-.56.13-1,.38-1.32.26-.32.64-.48,1.17-.48.3,0,.55.04.74.1v2.94Zm-12.28-.08c-.4.04-.55.04-.55-.42h0v-6.79h-2.08v2.84c-.14-.04-.3-.08-.47-.11-.17-.03-.37-.05-.6-.05-.45,0-.88.07-1.28.22s-.75.36-1.05.64c-.3.29-.54.64-.72,1.07s-.27.92-.27,1.47c0,.5.07.94.2,1.34.13.4.31.74.54,1.02.23.28.5.5.81.65.31.15.65.23,1,.23.44,0,.82-.08,1.14-.25.32-.17.58-.39.78-.68h.03c.1.35.43.8,1.29.8.49,0,1.28-.22,1.28-.22l-.05-1.77Zm-2.64.08c-.27.3-.63.44-1.07.44s-.74-.16-.93-.47c-.2-.31-.29-.72-.29-1.22,0-.56.13-1,.38-1.32.26-.32.64-.48,1.17-.48.3,0,.55.04.74.1v2.94Zm9.83-.09h0l.05,1.77s-.79.22-1.28.22c-.86,0-1.19-.46-1.29-.81-.17.23-.36.52-.81.71-.35.15-.72.23-1.13.23-.29,0-.54-.05-.77-.14-.23-.1-.41-.23-.57-.39-.15-.16-.27-.36-.35-.58-.08-.22-.12-.46-.12-.71,0-.59.18-1.04.55-1.34.37-.3.89-.48,1.57-.53.25-.02.52-.03.8-.04.28,0,.53-.02.75-.03v-.21c0-.7-.39-1.04-1.16-1.04-.3,0-.6.03-.88.1-.28.07-.54.16-.78.29l-.38-1.45c.3-.17.66-.31,1.08-.42.41-.11.86-.16,1.35-.16.89,0,1.59.23,2.1.7.5.47.76,1.16.76,2.09l-.04,1.31c0,.47.15.47.55.43m-3.6.75c.5,0,.88-.28,1.01-.37v-.87c-.21.02-.4.04-.56.06-.17.02-.33.04-.48.06-.43.05-.64.25-.64.6,0,.16.05.28.16.38.11.1.31.14.51.14m-32.57-.75h0l.05,1.77s-.79.22-1.28.22c-.86,0-1.19-.46-1.29-.81-.17.23-.36.52-.81.71-.35.15-.72.23-1.13.23-.29,0-.54-.05-.77-.14-.23-.1-.41-.23-.57-.39-.15-.16-.27-.36-.35-.58-.08-.22-.12-.46-.12-.71,0-.59.18-1.04.55-1.34.37-.3.89-.48,1.57-.53.25-.02.52-.03.8-.04.28,0,.53-.02.75-.03v-.21c0-.7-.39-1.04-1.16-1.04-.3,0-.6.03-.88.1-.28.07-.54.16-.78.29l-.38-1.45c.3-.17.66-.31,1.08-.42.41-.11.86-.16,1.35-.16.89,0,1.59.23,2.1.7.5.47.76,1.16.76,2.09l-.04,1.31c0,.47.15.47.55.43m-3.6.75c.5,0,.88-.28,1.01-.37v-.87c-.21.02-.4.04-.56.06-.17.02-.33.04-.48.06-.43.05-.64.25-.64.6,0,.16.05.28.16.38.11.1.31.14.51.14m24.79-.74c-.4.04-.55.04-.55-.43v-3.95h-2.08v4.36c-.1.14-.22.26-.38.35-.16.1-.35.14-.56.14-.34,0-.58-.12-.73-.37-.15-.25-.22-.63-.22-1.16v-3.32h-2.08v3.28c0,.42.04.83.12,1.21.08.39.21.72.38,1.02.18.29.41.53.7.71.29.18.65.27,1.07.27.34,0,.66-.07.96-.21.3-.14.58-.39.82-.75.1.35.47.84,1.33.84.49,0,1.27-.22,1.27-.22l-.05-1.76Zm40.05,0c-.4.04-.55.04-.55-.43v-3.95h-2.08v4.36c-.1.14-.22.26-.38.35-.16.1-.35.14-.56.14-.34,0-.58-.12-.73-.37-.15-.25-.22-.63-.22-1.16v-3.32h-2.08v3.28c0,.42.04.83.12,1.21.08.39.21.72.38,1.02.18.29.41.53.7.71.29.18.65.27,1.07.27.34,0,.66-.07.96-.21.3-.14.58-.39.82-.75.1.35.47.84,1.33.84.49,0,1.27-.22,1.27-.22l-.05-1.76Z"/>
    </clipPath>
    <radialGradient id="Degradado_sin_nombre_222" data-name="Degradado sin nombre 222" cx="-1960.99" cy="1718.74" fx="-1960.99" fy="1718.74" r=".3" gradientTransform="translate(-507430.46 -444858.66) rotate(180) scale(258.82 -258.82)" gradientUnits="userSpaceOnUse">
      <stop offset="0" stop-color="#8c8c8d"/>
      <stop offset=".45" stop-color="#989898"/>
      <stop offset=".57" stop-color="#8e8e8e"/>
      <stop offset=".79" stop-color="#747474"/>
      <stop offset="1" stop-color="#565656"/>
      <stop offset="1" stop-color="#565656"/>
    </radialGradient>
    <clipPath id="clippath-2">
      <rect class="cls-1" x="14.34" y="18.09" width="152.07" height="42.55"/>
    </clipPath>
    <clipPath id="clippath-3">
      <path class="cls-1" d="m14.34,37.7h3.36v-5.73h7.16v5.73h6.31v5.46h-6.31v8.56c0,.86.19,1.54.56,2.03.37.49,1.05.74,2.04.74.54,0,1.08-.04,1.63-.11.55-.07,1.08-.19,1.59-.34l.49,5c-.72.33-1.6.59-2.64.77-1.04.18-2.09.27-3.13.27-1.4,0-2.59-.22-3.56-.65-.97-.43-1.76-1.01-2.37-1.74-.61-.73-1.06-1.6-1.34-2.6-.28-1-.43-2.07-.43-3.2v-8.72h-3.36v-5.46Zm28.32-.45c2.86,0,5.13.84,6.8,2.53,1.67,1.69,2.51,4.02,2.51,7,0,1.13-.13,2.34-.4,3.62h-12.71c.06,1.34.51,2.42,1.36,3.24.85.82,2.15,1.23,3.91,1.23,1.07,0,2.2-.1,3.38-.29,1.18-.19,2.2-.48,3.07-.87l.89,4.61c-1.13.57-2.41,1-3.83,1.3-1.42.3-2.89.45-4.41.45-1.91,0-3.59-.28-5.06-.83-1.46-.55-2.68-1.32-3.67-2.3-.98-.98-1.73-2.16-2.24-3.53-.51-1.37-.76-2.89-.76-4.56,0-1.79.26-3.4.78-4.83.52-1.43,1.27-2.65,2.24-3.65.97-1,2.14-1.77,3.51-2.3,1.37-.54,2.91-.81,4.61-.81m-.22,4.56c-1.13,0-2.01.37-2.62,1.1-.61.73-.92,1.74-.92,3.02h6.35c.06-.24.09-.49.09-.76,0-.95-.25-1.75-.76-2.39-.51-.64-1.22-.96-2.15-.96m29.98-4.56c1.13,0,2.24.12,3.33.36,1.09.24,2.04.57,2.84.98l-.72,5.1c-.57-.23-1.25-.42-2.04-.6-.79-.17-1.59-.26-2.39-.26-1.91,0-3.34.52-4.29,1.55-.95,1.04-1.43,2.46-1.43,4.26s.48,3.23,1.43,4.26c.95,1.04,2.39,1.55,4.29,1.55.81,0,1.6-.08,2.39-.26.79-.17,1.47-.37,2.04-.6l.72,5.1c-.81.42-1.75.75-2.84.98-1.09.24-2.2.36-3.33.36-1.85,0-3.51-.28-4.99-.83-1.48-.55-2.72-1.33-3.74-2.33-1.01-1-1.79-2.2-2.33-3.6-.54-1.4-.81-2.95-.81-4.65s.27-3.25.81-4.65c.54-1.4,1.31-2.6,2.33-3.6,1.01-1,2.26-1.77,3.74-2.33,1.48-.55,3.14-.83,4.99-.83m35.88.45h7.16v21.92h-7.16v-21.92Zm57.93,15.11h0l.18,6.14s-2.73.76-4.42.76c-2.98,0-4.11-1.59-4.47-2.81-.59.81-1.25,1.8-2.82,2.47-1.2.51-2.49.79-3.9.79-.99,0-1.88-.17-2.66-.5-.78-.33-1.44-.78-1.96-1.35-.53-.57-.93-1.24-1.22-2.01-.29-.77-.43-1.59-.43-2.46,0-2.05.64-3.59,1.92-4.63,1.28-1.04,3.09-1.65,5.44-1.83.87-.06,1.8-.11,2.78-.14.98-.03,1.84-.06,2.6-.09v-.72c0-2.41-1.34-3.61-4.02-3.61-1.05,0-2.07.12-3.05.36-.98.24-1.87.57-2.69.99l-1.31-5.01c1.05-.6,2.29-1.09,3.72-1.47,1.43-.38,2.99-.56,4.67-.56,3.1,0,5.52.81,7.27,2.41,1.74,1.61,2.62,4.02,2.62,7.24l-.15,4.53c0,1.62.51,1.61,1.91,1.48m-12.47,2.61c1.73,0,3.06-.97,3.49-1.29v-3c-.72.06-1.37.13-1.94.2-.57.08-1.13.14-1.67.2-1.47.18-2.21.87-2.21,2.08,0,.54.19.98.56,1.31.38.33,1.07.5,1.77.5m-11.72-2.54c-1.38.13-1.89.14-1.89-1.46h0v-23.33h-7.17v9.77c-.48-.15-1.02-.28-1.61-.38-.6-.1-1.28-.16-2.06-.16-1.55,0-3.02.25-4.39.74-1.37.49-2.58,1.23-3.61,2.22-1.03.99-1.85,2.21-2.46,3.67-.61,1.46-.92,3.15-.92,5.06,0,1.7.22,3.24.67,4.61.45,1.37,1.07,2.55,1.86,3.52.79.97,1.72,1.72,2.8,2.24,1.08.52,2.22.78,3.45.78,1.52,0,2.83-.29,3.92-.87,1.09-.58,1.98-1.36,2.67-2.33l.1-.02c.35,1.21,1.48,2.79,4.44,2.79,1.68,0,4.39-.76,4.39-.76l-.18-6.09Zm-9.06.29c-.93,1.02-2.15,1.53-3.67,1.53s-2.53-.54-3.2-1.62c-.67-1.08-1.01-2.47-1.01-4.18,0-1.92.44-3.43,1.32-4.54.88-1.11,2.22-1.66,4.01-1.66,1.04,0,1.9.12,2.55.36v10.12Zm-27.72.01c-1.42.14-1.94.15-1.94-1.5v-13.98h-7.34v15.42c-.34.49-.79.9-1.35,1.24-.57.34-1.23.5-2,.5-1.19,0-2.05-.44-2.57-1.31-.52-.87-.78-2.24-.78-4.11v-11.75h-7.34v11.61c0,1.5.14,2.93.41,4.29.27,1.36.73,2.56,1.35,3.6.63,1.04,1.45,1.87,2.48,2.5,1.02.63,2.29.94,3.79.94,1.19,0,2.32-.25,3.39-.73,1.07-.49,2.03-1.38,2.89-2.66.36,1.24,1.66,2.95,4.7,2.95,1.72,0,4.49-.78,4.49-.78l-.18-6.24ZM18.63,18.83v6.98h3.19v1.69h-5.33v-8.68h2.14Zm17.59-.16c.45,0,.91.04,1.36.13.46.09.85.21,1.18.37l-.31,1.57c-.26-.1-.56-.19-.89-.27-.33-.07-.67-.11-1-.11-.89,0-1.59.23-2.1.69-.51.46-.77,1.17-.77,2.11s.26,1.64.77,2.11c.51.46,1.21.69,2.1.69.33,0,.66-.04,1-.11.33-.07.63-.16.89-.27l.31,1.57c-.33.16-.72.29-1.18.38-.46.09-.91.13-1.36.13-.76,0-1.44-.11-2.02-.34-.58-.23-1.07-.54-1.46-.94-.39-.4-.69-.87-.89-1.42-.2-.55-.3-1.15-.3-1.8s.1-1.25.3-1.8c.2-.55.5-1.02.89-1.42.39-.4.88-.71,1.46-.94.58-.23,1.26-.34,2.02-.34m3.45.59c0-.33.11-.61.33-.83.22-.23.5-.34.85-.34s.63.11.85.34c.22.23.33.5.33.83s-.11.61-.33.83c-.22.23-.5.34-.85.34s-.63-.11-.85-.34c-.22-.23-.33-.5-.33-.83m.13,1.86h2.08v6.39h-2.08v-6.39Zm42.3,9.07h-2.09v-3.17c-.19.19-.42.34-.69.45-.27.11-.58.16-.94.16-.43,0-.82-.08-1.17-.24-.34-.16-.63-.38-.87-.67-.23-.29-.41-.63-.53-1.03-.12-.4-.18-.84-.18-1.32,0-.51.08-.98.23-1.39.16-.42.39-.77.7-1.07.31-.3.69-.52,1.15-.68.46-.16.99-.24,1.59-.24.56,0,1.06.05,1.5.16.44.1.87.26,1.29.47v8.57Zm-3.11-4.14c.4,0,.74-.11,1.03-.34v-3.03c-.2-.1-.44-.14-.73-.14-.53,0-.92.17-1.18.5-.26.34-.38.78-.38,1.33s.1.94.31,1.24c.2.3.52.45.96.45m14.87-5.06c.83,0,1.49.25,1.98.74.49.49.73,1.17.73,2.04,0,.33-.04.68-.12,1.06h-3.7c.02.39.15.71.4.94.25.24.63.36,1.14.36.31,0,.64-.03.98-.08.34-.06.64-.14.89-.25l.26,1.34c-.33.17-.7.29-1.11.38-.41.09-.84.13-1.28.13-.56,0-1.05-.08-1.47-.24-.43-.16-.78-.38-1.07-.67-.29-.29-.5-.63-.65-1.03-.15-.4-.22-.84-.22-1.33,0-.52.08-.99.23-1.41.15-.42.37-.77.65-1.06.28-.29.62-.51,1.02-.67.4-.16.85-.23,1.34-.23m-.07,1.33c-.33,0-.58.11-.76.32-.18.21-.27.51-.27.88h1.85c.02-.07.03-.14.03-.22,0-.28-.07-.51-.22-.7-.15-.19-.36-.28-.63-.28m-21.15,3.2c-.4.04-.55.04-.55-.42h0v-6.79h-2.08v2.84c-.14-.04-.3-.08-.47-.11-.17-.03-.37-.05-.6-.05-.45,0-.88.07-1.28.22s-.75.36-1.05.64c-.3.29-.54.64-.72,1.07-.18.43-.27.92-.27,1.47,0,.5.07.94.2,1.34s.31.74.54,1.02c.23.28.5.5.81.65.31.15.65.23,1,.23.44,0,.82-.08,1.14-.25.32-.17.58-.39.78-.68h.03c.1.35.43.8,1.29.8.49,0,1.28-.22,1.28-.22l-.05-1.77Zm-2.64.08c-.27.3-.63.44-1.07.44s-.74-.16-.93-.47c-.2-.31-.29-.72-.29-1.22,0-.56.13-1,.38-1.32.26-.32.64-.48,1.17-.48.3,0,.55.04.74.1v2.94Zm-12.28-.08c-.4.04-.55.04-.55-.42h0v-6.79h-2.08v2.84c-.14-.04-.3-.08-.47-.11-.17-.03-.37-.05-.6-.05-.45,0-.88.07-1.28.22s-.75.36-1.05.64c-.3.29-.54.64-.72,1.07s-.27.92-.27,1.47c0,.5.07.94.2,1.34.13.4.31.74.54,1.02.23.28.5.5.81.65.31.15.65.23,1,.23.44,0,.82-.08,1.14-.25.32-.17.58-.39.78-.68h.03c.1.35.43.8,1.29.8.49,0,1.28-.22,1.28-.22l-.05-1.77Zm-2.64.08c-.27.3-.63.44-1.07.44s-.74-.16-.93-.47c-.2-.31-.29-.72-.29-1.22,0-.56.13-1,.38-1.32.26-.32.64-.48,1.17-.48.3,0,.55.04.74.1v2.94Zm9.83-.09h0l.05,1.77s-.79.22-1.28.22c-.86,0-1.19-.46-1.29-.81-.17.23-.36.52-.81.71-.35.15-.72.23-1.13.23-.29,0-.54-.05-.77-.14-.23-.1-.41-.23-.57-.39-.15-.16-.27-.36-.35-.58-.08-.22-.12-.46-.12-.71,0-.59.18-1.04.55-1.34.37-.3.89-.48,1.57-.53.25-.02.52-.03.8-.04.28,0,.53-.02.75-.03v-.21c0-.7-.39-1.04-1.16-1.04-.3,0-.6.03-.88.1-.28.07-.54.16-.78.29l-.38-1.45c.3-.17.66-.31,1.08-.42.41-.11.86-.16,1.35-.16.89,0,1.59.23,2.1.7.5.47.76,1.16.76,2.09l-.04,1.31c0,.47.15.47.55.43m-3.6.75c.5,0,.88-.28,1.01-.37v-.87c-.21.02-.4.04-.56.06-.17.02-.33.04-.48.06-.43.05-.64.25-.64.6,0,.16.05.28.16.38.11.1.31.14.51.14m-32.57-.75h0l.05,1.77s-.79.22-1.28.22c-.86,0-1.19-.46-1.29-.81-.17.23-.36.52-.81.71-.35.15-.72.23-1.13.23-.29,0-.54-.05-.77-.14-.23-.1-.41-.23-.57-.39-.15-.16-.27-.36-.35-.58-.08-.22-.12-.46-.12-.71,0-.59.18-1.04.55-1.34.37-.3.89-.48,1.57-.53.25-.02.52-.03.8-.04.28,0,.53-.02.75-.03v-.21c0-.7-.39-1.04-1.16-1.04-.3,0-.6.03-.88.1-.28.07-.54.16-.78.29l-.38-1.45c.3-.17.66-.31,1.08-.42.41-.11.86-.16,1.35-.16.89,0,1.59.23,2.1.7.5.47.76,1.16.76,2.09l-.04,1.31c0,.47.15.47.55.43m-3.6.75c.5,0,.88-.28,1.01-.37v-.87c-.21.02-.4.04-.56.06-.17.02-.33.04-.48.06-.43.05-.64.25-.64.6,0,.16.05.28.16.38.11.1.31.14.51.14m24.79-.74c-.4.04-.55.04-.55-.43v-3.95h-2.08v4.36c-.1.14-.22.26-.38.35-.16.1-.35.14-.56.14-.34,0-.58-.12-.73-.37-.15-.25-.22-.63-.22-1.16v-3.32h-2.08v3.28c0,.42.04.83.12,1.21.08.39.21.72.38,1.02.18.29.41.53.7.71.29.18.65.27,1.07.27.34,0,.66-.07.96-.21.3-.14.58-.39.82-.75.1.35.47.84,1.33.84.49,0,1.27-.22,1.27-.22l-.05-1.76Zm40.05,0c-.4.04-.55.04-.55-.43v-3.95h-2.08v4.36c-.1.14-.22.26-.38.35-.16.1-.35.14-.56.14-.34,0-.58-.12-.73-.37-.15-.25-.22-.63-.22-1.16v-3.32h-2.08v3.28c0,.42.04.83.12,1.21.08.39.21.72.38,1.02.18.29.41.53.7.71.29.18.65.27,1.07.27.34,0,.66-.07.96-.21.3-.14.58-.39.82-.75.1.35.47.84,1.33.84.49,0,1.27-.22,1.27-.22l-.05-1.76Z"/>
    </clipPath>
    <linearGradient id="Degradado_sin_nombre_224" data-name="Degradado sin nombre 224" x1="-1960.71" y1="1717.95" x2="-1960.41" y2="1717.95" gradientTransform="translate(-524541.54 -459670.59) rotate(180) scale(267.59 -267.59)" gradientUnits="userSpaceOnUse">
      <stop offset="0" stop-color="#fff"/>
      <stop offset="1" stop-color="#000"/>
    </linearGradient>
    <mask id="mask" x="3.46" y="-20.81" width="173.84" height="120.35" maskUnits="userSpaceOnUse">
      <rect class="cls-9" x="49.69" y="-39.59" width="81.37" height="157.91" transform="translate(28.45 116.06) rotate(-74.62)"/>
    </mask>
    <linearGradient id="Degradado_sin_nombre_223" data-name="Degradado sin nombre 223" x1="-1960.71" y1="1717.95" x2="-1960.41" y2="1717.95" gradientTransform="translate(-524541.54 -459670.59) rotate(180) scale(267.59 -267.59)" gradientUnits="userSpaceOnUse">
      <stop offset="0" stop-color="#fff6c5"/>
      <stop offset=".4" stop-color="#d3bb8e"/>
      <stop offset="1" stop-color="#8c5d35"/>
    </linearGradient>
    <clipPath id="clippath-4">
      <rect class="cls-1" x="111.88" y="20.15" width="9.05" height="7.2"/>
    </clipPath>
    <clipPath id="clippath-5">
      <path class="cls-1" d="m120.92,24.59c0,.75-.19,1.51-.58,2.18-1.69.96-3.86.72-5.31-.7,0,0-.01-.01-.02-.02l-3.14-3.14,1.46-1.46c1.74-1.73,4.55-1.73,6.29,0,.87.87,1.3,2.01,1.3,3.14"/>
    </clipPath>
    <linearGradient id="Degradado_sin_nombre_225" data-name="Degradado sin nombre 225" x1="-2007.27" y1="1754.06" x2="-2006.97" y2="1754.06" gradientTransform="translate(-60853.24 -53257.32) rotate(-180) scale(30.38 -30.38)" gradientUnits="userSpaceOnUse">
      <stop offset="0" stop-color="#fff"/>
      <stop offset=".09" stop-color="#f8f8f8"/>
      <stop offset=".22" stop-color="#e6e6e6"/>
      <stop offset=".36" stop-color="#c9c9c9"/>
      <stop offset=".53" stop-color="#a0a0a0"/>
      <stop offset=".7" stop-color="#6b6b6b"/>
      <stop offset=".89" stop-color="#2c2c2c"/>
      <stop offset="1" stop-color="#010101"/>
    </linearGradient>
    <clipPath id="clippath-6">
      <rect class="cls-1" x="200.87" y="-1.01" width="81.38" height="76.3"/>
    </clipPath>
    <clipPath id="clippath-7">
      <path class="cls-1" d="m228.91,66.31c0,1.3,1.06,2.36,2.36,2.36h4.91c1.76,0,3.51.42,5.05,1.22l.33.17.33-.17c1.54-.8,3.29-1.22,5.05-1.22h4.91c1.3,0,2.36-1.06,2.36-2.36v-29.49h-25.3v29.49Zm1.42-28.07h22.46v28.07c0,.52-.42.94-.94.94h-4.91c-1.86,0-3.71.42-5.37,1.22-1.66-.8-3.51-1.22-5.37-1.22h-4.91c-.52,0-.94-.42-.94-.94v-28.07ZM242.98,1.81h-2.84l1.42-2.82,1.42,2.82Zm-1.03,5.29h1.52v.78h-1.52v1.52h-.78v-1.52h-1.52v-.78h1.52v-1.52h.78v1.52Zm-1.89-.81h-.42v-.29h.42v-.42h.29v.42h.42v.29h-.42v.42h-.29v-.42Zm3-.29h.42v.29h-.42v.42h-.29v-.42h-.42v-.29h.42v-.42h.29v.42Zm-2.7,2.7h.42v.29h-.42v.42h-.29v-.42h-.42v-.29h.42v-.42h.29v.42Zm2.7,0h.42v.29h-.42v.42h-.29v-.42h-.42v-.29h.42v-.42h.29v.42Zm-.79,15.64h-1.42v-3.08h1.42v3.08Zm2.8,0h-1.42v-3.08h1.42v3.08Zm-7.02-3.08h1.42v3.08h-1.42v-3.08Zm44.19,26.43c-.25-2.36-2.37-4.15-4.58-5.34.46-.02,1.41.31,1.73.02.33-.3.25-.85,0-1.1-3.39-3.43-6.74-2.89-9.12-2.6-1.35.16-2.41.29-3.12-.26l-.32-.23c-.63-.44-1.26-.87-1.88-1.27,4.08-1.47,7.37-6,7.37-10.6,0-4.85-4.2-10.25-10.23-10.25-6.83,0-9.9,5.15-9.9,8.8,0,5.19,4.02,6.09,5.74,6.23.48.04.86.03,1.1.02.36-.02.95-.06,1.05-.65h0c.06-.37-.18-.72-.54-.81-.35-.09-1.97-1.22-2.34-2.05.66.46,3.99,1.29,4.37.08.09-.29.01-.59-.21-.79-1.38-1.29-1.9-2.74-1.41-3.97.39-.98,1.34-1.63,2.36-1.63,3.28,0,4.78,2.61,4.78,5.03,0,3.98-3.47,6.38-9.29,6.43h-7.95c-.75-.33-4.86-2.28-4.16-5.29.11-.14.21-.29.31-.44.15-.23.29-.46.43-.7l1.35-.36,1.17-5.71-1.17-.31c-.44-2.98-2.45-4.86-5.51-5.11v-3.12h4.24v2.81h11.54l-3.18-4.2,3.18-4.2h-8.13v-2.81h-16.72v8.39h7.65v3.12c-3.06.25-5.07,2.13-5.51,5.11l-1.17.31,1.17,5.71,1.35.36c.13.24.28.47.43.7.1.15.21.3.31.44.7,3-3.41,4.96-4.16,5.29h-7.94c-5.82-.05-9.29-2.45-9.29-6.43,0-2.42,1.5-5.03,4.78-5.03,1.03,0,1.98.66,2.36,1.63.48,1.23-.03,2.68-1.41,3.97-.22.2-.29.5-.21.79.38,1.21,3.7.39,4.37-.08-.37.83-1.99,1.96-2.34,2.05-.36.09-.59.44-.54.81h0c.1.59.69.63,1.05.65.24.02.62.02,1.1-.02,1.73-.14,5.74-1.04,5.74-6.23,0-3.65-3.07-8.8-9.9-8.8-6.03,0-10.23,5.4-10.23,10.25,0,4.6,3.28,9.13,7.37,10.6-.63.4-1.26.82-1.88,1.27l-.32.23c-.71.55-1.78.42-3.12.26-2.38-.29-5.73-.84-9.12,2.6-.25.25-.33.8,0,1.1.32.29,1.27-.04,1.73-.02-2.21,1.2-4.34,2.99-4.58,5.34-.05.25.04.5.24.66l.04.03c.39.3.69.13,1.42-.26.96-.52,3.56-1.93,5.27-1.94l-.83,1.32c-1.43,2.33-2.15,4.61-2.15,6.78,0,2.88,1.07,5.48,3,7.32,1.85,1.76,4.35,2.73,7.05,2.73,3.03,0,5.79-.9,7.79-2.53.85-.7,1.55-1.52,2.1-2.45v7.94c0,3.03,2.46,5.5,5.5,5.5h5.87c1.84,0,3.57.72,4.88,2.02l.5.5.5-.5c1.3-1.3,3.03-2.02,4.87-2.02h5.87c3.03,0,5.5-2.47,5.5-5.5v-7.94c.55.93,1.25,1.75,2.1,2.45,1.99,1.63,4.76,2.53,7.79,2.53,2.7,0,5.2-.97,7.05-2.73,1.93-1.84,3-4.44,3-7.32,0-2.17-.72-4.45-2.15-6.78l-.83-1.32c1.71,0,4.31,1.42,5.27,1.94.73.4,1.03.56,1.42.26l.04-.03c.2-.15.29-.41.24-.66m-16.91-15.45c2.08-1.38,3.17-3.43,3.17-5.94,0-3.21-2.13-6.45-6.2-6.45-1.61,0-3.09,1.02-3.69,2.53-.3.77-.73,2.85,1.38,4.88-3.54.17-4.04-3.12-4.04-3.12,0,0-1.12,2.43,1.35,5.43-.72-.14-1.53-.42-2.2-.97-1-.81-1.51-2.08-1.51-3.75,0-2.41,2.07-7.38,8.48-7.38,5.19,0,8.81,4.65,8.81,8.83,0,4.48-3.54,8.89-7.62,9.58-1.35-.78-2.62-1.41-3.66-1.82,2.29-.22,4.25-.84,5.72-1.82m-.66,16.94l-.02-.03c-.13-.16-.32-.26-.53-.26-.56-.03-1.27.26-1.9.62.49-1.29,1.39-2.58,1.86-3.25.43-.62.62-.9.41-1.31h0c-.13-.24-.37-.39-.63-.39-2.28,0-4.27,1.38-5.53,3.55v-9.13c1.44.6,4.52,2.46,7.71,5.18,4.45,3.79,7.01,7.48,7.01,10.12,0,2.98-1.85,4.83-4.83,4.83-2.61,0-4.5-1.54-4.5-3.67,0-1.83.59-3.83.9-4.9.23-.8.3-1.04.07-1.35m-14.74-41.65h5.27l-2.11,2.78,2.11,2.78h-7.26v-1.39h1.99v-4.16Zm-15.3-2.81h13.88v5.55h-13.88v-5.55Zm6.94,11.48c2.46,0,4.13,1.21,4.68,3.31l-4.68-1.26-4.68,1.26c.56-2.1,2.22-3.31,4.68-3.31m-5,8.6l-.73-3.54,5.73-1.54,5.73,1.54-.73,3.54-5,1.34-5-1.34Zm7.78,2.07c-.85,1.05-1.85,1.74-2.78,1.74s-1.93-.69-2.78-1.74l2.78.75,2.78-.75Zm-7.72,5.48c1.26-1.04,2.01-2.18,2.24-3.39.87.7,1.8,1.08,2.7,1.08s1.83-.38,2.7-1.08c.23,1.21.98,2.35,2.24,3.39.27.22.54.42.81.6-1.05.2-1.92.5-2.72.78-1.04.36-1.95.68-3.04.68s-1.99-.31-3.04-.68c-.8-.28-1.67-.58-2.72-.78.27-.18.54-.38.81-.6m-17.57,13.91c.46.67,1.36,1.97,1.85,3.25-.63-.36-1.34-.65-1.9-.62-.21,0-.4.1-.53.26l-.02.03c-.24.32-.17.56.07,1.35.32,1.07.9,3.07.9,4.9,0,2.13-1.89,3.67-4.5,3.67-2.98,0-4.83-1.85-4.83-4.83,0-2.64,2.55-6.32,7.01-10.12,3.19-2.72,6.28-4.58,7.71-5.18v9.14c-1.26-2.17-3.25-3.55-5.53-3.55-.26,0-.51.15-.63.38h0c-.22.42-.02.7.41,1.32m-6.81-19.95c0-4.18,3.62-8.83,8.81-8.83,6.41,0,8.48,4.97,8.48,7.38,0,1.67-.51,2.93-1.51,3.75-.67.55-1.48.83-2.2.97,2.48-3,1.35-5.43,1.35-5.43,0,0-.51,3.29-4.04,3.12,2.1-2.03,1.68-4.11,1.38-4.88-.6-1.52-2.08-2.53-3.69-2.53-4.07,0-6.2,3.24-6.2,6.45,0,2.51,1.1,4.56,3.17,5.94,1.48.98,3.43,1.6,5.72,1.82-1.04.41-2.3,1.04-3.66,1.82-4.09-.69-7.62-5.1-7.62-9.58m2.69,36.6c-4.29,0-8.63-2.96-8.63-8.63,0-1.9.65-3.93,1.93-6.03l1.53-2.43-.09-.32c-.06-.2-.2-.37-.39-.45-1.7-.78-4.16.16-6.48,1.36,2.68-3.5,7.06-4.84,7.06-4.84,0,0-1.2-.57-4.1-.24,2.7-1.84,5.14-1.46,6.93-1.24,1.53.19,2.98.36,4.15-.54l.29-.21c3.27-2.32,6.24-3.78,7.69-4.23v2.37c-1.83.57-5.47,2.9-8.63,5.6-6.53,5.56-7.51,9.4-7.51,11.2,0,3.8,2.45,6.25,6.25,6.25,3.43,0,5.92-2.14,5.92-5.09,0-1.75-.47-3.58-.81-4.78,1.73.38,2.83,2.23,2.83,2.23,0,0,.52-3.2-2.11-6.64,2.36.88,4.06,3.85,4.06,7.48,0,6.78-5.33,9.18-9.89,9.18m41.95,4.38c0,2.25-1.83,4.07-4.08,4.07h-5.87c-1.99,0-3.88.7-5.38,1.97-1.5-1.28-3.39-1.97-5.38-1.97h-5.87c-2.25,0-4.08-1.83-4.08-4.07v-33.13h7.22c1.99,0,3.32.47,4.6.91,1.12.39,2.17.76,3.5.76s2.39-.37,3.5-.76c1.28-.45,2.61-.91,4.6-.91h7.22v19.55s0,0,0,0c0,0,0,0,0,0v13.56Zm16.95-22.25c-.19.09-.33.25-.39.45l-.09.32,1.53,2.43c1.28,2.1,1.93,4.13,1.93,6.03,0,5.67-4.34,8.63-8.63,8.63-4.56,0-9.88-2.4-9.89-9.17v-.02c0-3.62,1.7-6.58,4.06-7.46-2.63,3.44-2.11,6.64-2.11,6.64,0,0,1.1-1.85,2.83-2.23-.34,1.2-.81,3.02-.81,4.78,0,2.95,2.49,5.09,5.92,5.09,3.8,0,6.25-2.45,6.25-6.25,0-1.79-.98-5.64-7.51-11.2-3.16-2.69-6.8-5.02-8.63-5.6v-2.37c1.45.44,4.42,1.91,7.69,4.23l.29.21c1.17.9,2.62.72,4.15.54,1.79-.22,4.22-.59,6.93,1.24-2.9-.33-4.1.24-4.1.24,0,0,4.38,1.34,7.06,4.84-2.33-1.2-4.79-2.14-6.48-1.36m-45.65,5.26l-.3.3.3.3-.27.27-.3-.3-.3.3-.27-.27.3-.3-.3-.3.27-.27.3.3.3-.3.27.27Zm0-14.94l-.3.3.3.3-.27.27-.3-.3-.3.3-.27-.27.3-.3-.3-.3.27-.27.3.3.3-.3.27.27Zm0,29.88l-.3.3.3.3-.27.27-.3-.3-.3.3-.27-.27.3-.3-.3-.3.27-.27.3.3.3-.3.27.27Zm27.9-14.94l-.3.3.3.3-.27.27-.3-.3-.3.3-.27-.27.3-.3-.3-.3.27-.27.3.3.3-.3.27.27Zm0-14.94l-.3.3.3.3-.27.27-.3-.3-.3.3-.27-.27.3-.3-.3-.3.27-.27.3.3.3-.3.27.27Zm0,29.88l-.3.3.3.3-.27.27-.3-.3-.3.3-.27-.27.3-.3-.3-.3.27-.27.3.3.3-.3.27.27Zm-13.99,5.93l-.3.3.3.3-.27.27-.3-.3-.3.3-.27-.27.3-.3-.3-.3.27-.27.3.3.3-.3.27.27Zm-4.71-19.09c.58,0,1.13-.15,1.6-.41.5.57,1.19.97,1.96,1.1v10.33h0c-.01.21.14.43.29.59h.54c.15-.15.3-.37.29-.59h0v-10.33c.78-.13,1.47-.53,1.96-1.1.48.26,1.02.41,1.6.41,1.85,0,3.35-1.5,3.35-3.35,0-.91-.36-1.73-.95-2.34,0,0,0-.02,0-.03,0-1.85-1.5-3.35-3.35-3.35-.14,0-.27,0-.4.02-.6-.89-1.62-1.47-2.77-1.47s-2.17.58-2.77,1.47c-.13-.02-.26-.02-.4-.02-1.85,0-3.35,1.5-3.35,3.35,0,0,0,.02,0,.03-.59.6-.95,1.43-.95,2.34,0,1.85,1.5,3.35,3.35,3.35m-2.1-4.1c.33-.61,1.46-.99,2.01-.89-.64-.39-1.19-.24-1.19-.24v-.45s0-.02,0-.03c0-1.2.96-2.17,2.15-2.22.94,0,1.42.71,1.42.71,0,0-.26-.81.21-1.45.42-.44,1-.7,1.62-.7s1.2.26,1.62.7c.48.64.21,1.45.21,1.45,0,0,.48-.7,1.42-.71,1.19.04,2.15,1.02,2.15,2.22,0,.01,0,.02,0,.03v.46s-.56-.15-1.19.24c.55-.1,1.69.29,2.01.9.08.24.13.49.13.74,0,1.23-1,2.23-2.23,2.23-.38,0-.74-.09-1.07-.27l-.79-.43c-.23-.14-.69-.19-.96-.12.26.14.47.35.61.52l-.24.27c-.43.49-1.04.77-1.68.77s-1.26-.28-1.68-.77l-.24-.27c.15-.18.35-.39.61-.52-.27-.06-.73-.02-.96.12l-.79.43c-.33.18-.69.27-1.07.27-1.23,0-2.23-1-2.23-2.23,0-.26.05-.51.13-.75m6.78,14.95v-.33s.25,0,.25,0c.48,0,.87.39.87.87v.22h-.74c-.2-.2-.39-.49-.38-.77m-1.37-.33h.25v.33c.01.28-.18.57-.38.77h-.74v-.22c0-.48.39-.87.87-.87m-.81-7.8c-.07.07-.17.14-.27.13.18.05.27.16.27.16v.22c-.07.07-.17.14-.27.13.18.05.27.16.27.16v.26c-.43,0-.36.42-.36.72-.56,0-.49.92-.43,1.55-.15-.24-.34-.41-.51-.5.05-.24-.17-.81-.29-.93.33-.12.71-.61.71-1.07,0-.64.2-1.37.88-1.06v.22Zm-1.97,7.22s-.09-.42-.38-.73c.17.11.58,0,.78-.09-.32-.25-.18-.82-.84-1.31-.14.25-.4.47-.7.56.06.21-.42.87-.26,1.11.47.16.65.83.65,1.22h.62s.11-.09.16-.27c0,.1.06.2.13.27h.22s.11-.09.16-.27c0,.1.06.2.13.27h.39c0-.48-.13-.76-1.07-.76m-6.45-6.59c.28.18.86-.1,1.21-.12.12,0,.31,0,.46.05.48.15.76.58.76,1.14,0,.35-.09.6-.2.89-.09.26-.22.72-.3,1.18-.05.27.02.56.18.75.08.1.23.22.47.22.19,0,.37-.04.5-.09.53-.4,1.12-1.08.87-1.79-.19.34-.69.36-.69.36.49-.86-.43-1.6.39-2.48-.53.19-.75.65-.75.65,0,0-.41-1.17.75-1.74-.41-.11-.84.13-.84.13,0,0,.26-1.16,1.44-.92.07-.35-.53-.35-.53-.35,0,0,1.28-.61,1.67.29.32-.02.42,0,.56.06.45.2.9.21,1.01.3.03.05.07.26,0,.27-.08,0-.24-.1-.26-.16-.08.17.18.27.25.34.07.07.02.34-.17.6-.09-.16-.3-.27-.42-.28-.17-.01-.36.06-.41.23-.06.21.06.44.3.44.33,0,.45-.12.45-.12.15.11.07.47-.17.68-.03-.05-.2-.18-.39-.19-.26-.02-.3.08-.63-.02-.32-.09-.51-.35-.63-.82.03.41.11.65.27.81.48.49,1.32.06,1.53.92-.21-.19-.53-.29-.64-.2.54.24.73.68.78,1-.2-.08-.47-.16-.69-.12.25.03.46.18.71.37.54.46.86.95.98,1.17,0-.63.2-1.28.88-.98v.22c-.07.07-.17.14-.27.13.18.05.27.16.27.16v.22c-.07.07-.17.14-.27.13.18.05.27.16.27.16v.37c-.62,0-.86.85-.86.85,0,0-.03-.15-.36-.7-.33-.55-1.09-.46-1.29-.17-.05-.21-.24-.57-.71-.83.35.46.5,1.05.5,1.05-.12.17-.41.57-.67.66-.28-.3-.7-.32-.7-.32,0,0,.39.21.5.5-.05.53-.47.89-.34,1.22-.32,0-.71-.27-.71-.44,0,0-.3.38-.36.61-.08.3.17.53.17.53.95,0,1.07.28,1.07.76h-.39c-.07-.07-.14-.17-.13-.27-.05.18-.16.27-.16.27h-.22c-.07-.07-.14-.17-.13-.27-.05.18-.16.27-.16.27h-.62c0-.24-.22-.64-.55-.64,0-.22.18-.7.41-.85-.27,0-.49-.14-.63-.44.46.02.73-.7.8-1.14-.16.04-.35.08-.56.08-.34,0-.65-.15-.87-.41-.26-.31-.37-.76-.29-1.18.09-.5.23-1,.33-1.26.1-.26.16-.46.16-.71,0-.31-.12-.52-.35-.62-.15.17-.38.29-.61.29-.49,0-.87-.32-.95-.74m5.43-1.35s.34.13.42.15c.16.03.13-.18.04-.22-.16-.08-.47.03-.46.08m6.27.72c.07.07.17.14.27.13-.18.05-.27.16-.27.16v.22c.07.07.17.14.27.13-.18.05-.27.16-.27.16v.26c.43,0,.36.42.36.72.56,0,.49.92.43,1.55.15-.24.34-.41.51-.5-.05-.24.17-.81.29-.93-.33-.12-.71-.61-.71-1.07,0-.64-.2-1.37-.88-1.06v.22Zm1.97,7.22s.09-.42.38-.73c-.17.11-.58,0-.78-.09.32-.25.18-.82.84-1.31.14.25.4.47.7.56-.06.21.42.87.26,1.11-.47.16-.65.83-.65,1.22h-.62s-.11-.09-.16-.27c0,.1-.06.2-.13.27h-.22s-.11-.09-.16-.27c0,.1-.06.2-.13.27h-.39c0-.48.13-.76,1.07-.76m6.45-6.59c-.28.18-.86-.1-1.21-.12-.12,0-.31,0-.46.05-.48.15-.76.58-.76,1.14,0,.35.09.6.2.89.09.26.22.72.3,1.18.05.27-.02.56-.18.75-.08.1-.23.22-.47.22-.19,0-.36-.04-.5-.09-.53-.4-1.12-1.08-.87-1.79.19.34.69.36.69.36-.49-.86.43-1.6-.39-2.48.53.19.75.65.75.65,0,0,.41-1.17-.75-1.74.41-.11.84.13.84.13,0,0-.25-1.16-1.44-.92-.07-.35.53-.35.53-.35,0,0-1.28-.61-1.67.29-.32-.02-.42,0-.56.06-.45.2-.9.21-1.01.3-.03.05-.07.26,0,.27.08,0,.24-.1.26-.16.08.17-.18.27-.25.34-.07.07-.02.34.17.6.09-.16.3-.27.42-.28.17-.01.36.06.41.23.06.21-.06.44-.3.44-.33,0-.45-.12-.45-.12-.15.11-.07.47.17.68.03-.05.2-.18.39-.19.26-.02.3.08.63-.02.32-.09.51-.35.63-.82-.03.41-.11.65-.27.81-.48.49-1.32.06-1.53.92.21-.19.53-.29.64-.2-.54.24-.73.68-.78,1,.2-.08.47-.16.69-.12-.24.03-.46.18-.7.37-.54.46-.86.95-.98,1.17,0-.63-.2-1.28-.88-.98v.22c.07.07.17.14.27.13-.18.05-.27.16-.27.16v.22c.07.07.17.14.27.13-.18.05-.27.16-.27.16v.37c.62,0,.86.85.86.85,0,0,.03-.15.36-.7.33-.55,1.09-.46,1.29-.17.05-.21.24-.57.71-.83-.35.46-.5,1.05-.5,1.05.12.17.41.57.67.66.29-.3.7-.32.7-.32,0,0-.39.21-.5.5.05.53.47.89.34,1.22.32,0,.71-.27.71-.44,0,0,.3.38.36.61.08.3-.17.53-.17.53-.95,0-1.07.28-1.07.76h.39c.07-.07.14-.17.13-.27.05.18.16.27.16.27h.22c.07-.07.14-.17.13-.27.05.18.16.27.16.27h.62c0-.24.22-.64.55-.64,0-.22-.18-.7-.41-.85.27,0,.49-.14.63-.44-.46.02-.73-.7-.8-1.14.16.04.35.08.56.08.34,0,.65-.15.87-.41.26-.31.37-.76.29-1.18-.09-.5-.23-1-.33-1.26-.1-.26-.17-.46-.17-.71,0-.31.12-.52.35-.62.15.17.38.29.61.29.49,0,.87-.32.95-.74m-5.43-1.35s-.34.13-.42.15c-.16.03-.13-.18-.04-.22.16-.08.47.03.46.08"/>
    </clipPath>
    <radialGradient id="Degradado_sin_nombre_92" data-name="Degradado sin nombre 92" cx="-3912.05" cy="1723.21" fx="-3912.05" fy="1723.21" r=".39" gradientTransform="translate(-800461.5 -352669.11) rotate(180) scale(204.68 -204.68)" gradientUnits="userSpaceOnUse">
      <stop offset="0" stop-color="#8c8c8d"/>
      <stop offset=".33" stop-color="#989898"/>
      <stop offset=".49" stop-color="#8e8e8e"/>
      <stop offset=".75" stop-color="#747474"/>
      <stop offset="1" stop-color="#565656"/>
      <stop offset="1" stop-color="#565656"/>
    </radialGradient>
    <clipPath id="clippath-8">
      <rect class="cls-1" x="200.87" y="-1.01" width="81.38" height="76.3"/>
    </clipPath>
    <clipPath id="clippath-9">
      <path class="cls-1" d="m228.91,66.31c0,1.3,1.06,2.36,2.36,2.36h4.91c1.76,0,3.51.42,5.05,1.22l.33.17.33-.17c1.54-.8,3.29-1.22,5.05-1.22h4.91c1.3,0,2.36-1.06,2.36-2.36v-29.49h-25.3v29.49Zm1.42-28.07h22.46v28.07c0,.52-.42.94-.94.94h-4.91c-1.86,0-3.71.42-5.37,1.22-1.66-.8-3.51-1.22-5.37-1.22h-4.91c-.52,0-.94-.42-.94-.94v-28.07ZM242.98,1.81h-2.84l1.42-2.82,1.42,2.82Zm-1.03,5.29h1.52v.78h-1.52v1.52h-.78v-1.52h-1.52v-.78h1.52v-1.52h.78v1.52Zm-1.89-.81h-.42v-.29h.42v-.42h.29v.42h.42v.29h-.42v.42h-.29v-.42Zm3-.29h.42v.29h-.42v.42h-.29v-.42h-.42v-.29h.42v-.42h.29v.42Zm-2.7,2.7h.42v.29h-.42v.42h-.29v-.42h-.42v-.29h.42v-.42h.29v.42Zm2.7,0h.42v.29h-.42v.42h-.29v-.42h-.42v-.29h.42v-.42h.29v.42Zm-.79,15.64h-1.42v-3.08h1.42v3.08Zm2.8,0h-1.42v-3.08h1.42v3.08Zm-7.02-3.08h1.42v3.08h-1.42v-3.08Zm44.19,26.43c-.25-2.36-2.37-4.15-4.58-5.34.46-.02,1.41.31,1.73.02.33-.3.25-.85,0-1.1-3.39-3.43-6.74-2.89-9.12-2.6-1.35.16-2.41.29-3.12-.26l-.32-.23c-.63-.44-1.26-.87-1.88-1.27,4.08-1.47,7.37-6,7.37-10.6,0-4.85-4.2-10.25-10.23-10.25-6.83,0-9.9,5.15-9.9,8.8,0,5.19,4.02,6.09,5.74,6.23.48.04.86.03,1.1.02.36-.02.95-.06,1.05-.65h0c.06-.37-.18-.72-.54-.81-.35-.09-1.97-1.22-2.34-2.05.66.46,3.99,1.29,4.37.08.09-.29.01-.59-.21-.79-1.38-1.29-1.9-2.74-1.41-3.97.39-.98,1.34-1.63,2.36-1.63,3.28,0,4.78,2.61,4.78,5.03,0,3.98-3.47,6.38-9.29,6.43h-7.95c-.75-.33-4.86-2.28-4.16-5.29.11-.14.21-.29.31-.44.15-.23.29-.46.43-.7l1.35-.36,1.17-5.71-1.17-.31c-.44-2.98-2.45-4.86-5.51-5.11v-3.12h4.24v2.81h11.54l-3.18-4.2,3.18-4.2h-8.13v-2.81h-16.72v8.39h7.65v3.12c-3.06.25-5.07,2.13-5.51,5.11l-1.17.31,1.17,5.71,1.35.36c.13.24.28.47.43.7.1.15.21.3.31.44.7,3-3.41,4.96-4.16,5.29h-7.94c-5.82-.05-9.29-2.45-9.29-6.43,0-2.42,1.5-5.03,4.78-5.03,1.03,0,1.98.66,2.36,1.63.48,1.23-.03,2.68-1.41,3.97-.22.2-.29.5-.21.79.38,1.21,3.7.39,4.37-.08-.37.83-1.99,1.96-2.34,2.05-.36.09-.59.44-.54.81h0c.1.59.69.63,1.05.65.24.02.62.02,1.1-.02,1.73-.14,5.74-1.04,5.74-6.23,0-3.65-3.07-8.8-9.9-8.8-6.03,0-10.23,5.4-10.23,10.25,0,4.6,3.28,9.13,7.37,10.6-.63.4-1.26.82-1.88,1.27l-.32.23c-.71.55-1.78.42-3.12.26-2.38-.29-5.73-.84-9.12,2.6-.25.25-.33.8,0,1.1.32.29,1.27-.04,1.73-.02-2.21,1.2-4.34,2.99-4.58,5.34-.05.25.04.5.24.66l.04.03c.39.3.69.13,1.42-.26.96-.52,3.56-1.93,5.27-1.94l-.83,1.32c-1.43,2.33-2.15,4.61-2.15,6.78,0,2.88,1.07,5.48,3,7.32,1.85,1.76,4.35,2.73,7.05,2.73,3.03,0,5.79-.9,7.79-2.53.85-.7,1.55-1.52,2.1-2.45v7.94c0,3.03,2.46,5.5,5.5,5.5h5.87c1.84,0,3.57.72,4.88,2.02l.5.5.5-.5c1.3-1.3,3.03-2.02,4.87-2.02h5.87c3.03,0,5.5-2.47,5.5-5.5v-7.94c.55.93,1.25,1.75,2.1,2.45,1.99,1.63,4.76,2.53,7.79,2.53,2.7,0,5.2-.97,7.05-2.73,1.93-1.84,3-4.44,3-7.32,0-2.17-.72-4.45-2.15-6.78l-.83-1.32c1.71,0,4.31,1.42,5.27,1.94.73.4,1.03.56,1.42.26l.04-.03c.2-.15.29-.41.24-.66m-16.91-15.45c2.08-1.38,3.17-3.43,3.17-5.94,0-3.21-2.13-6.45-6.2-6.45-1.61,0-3.09,1.02-3.69,2.53-.3.77-.73,2.85,1.38,4.88-3.54.17-4.04-3.12-4.04-3.12,0,0-1.12,2.43,1.35,5.43-.72-.14-1.53-.42-2.2-.97-1-.81-1.51-2.08-1.51-3.75,0-2.41,2.07-7.38,8.48-7.38,5.19,0,8.81,4.65,8.81,8.83,0,4.48-3.54,8.89-7.62,9.58-1.35-.78-2.62-1.41-3.66-1.82,2.29-.22,4.25-.84,5.72-1.82m-.66,16.94l-.02-.03c-.13-.16-.32-.26-.53-.26-.56-.03-1.27.26-1.9.62.49-1.29,1.39-2.58,1.86-3.25.43-.62.62-.9.41-1.31h0c-.13-.24-.37-.39-.63-.39-2.28,0-4.27,1.38-5.53,3.55v-9.13c1.44.6,4.52,2.46,7.71,5.18,4.45,3.79,7.01,7.48,7.01,10.12,0,2.98-1.85,4.83-4.83,4.83-2.61,0-4.5-1.54-4.5-3.67,0-1.83.59-3.83.9-4.9.23-.8.3-1.04.07-1.35m-14.74-41.65h5.27l-2.11,2.78,2.11,2.78h-7.26v-1.39h1.99v-4.16Zm-15.3-2.81h13.88v5.55h-13.88v-5.55Zm6.94,11.48c2.46,0,4.13,1.21,4.68,3.31l-4.68-1.26-4.68,1.26c.56-2.1,2.22-3.31,4.68-3.31m-5,8.6l-.73-3.54,5.73-1.54,5.73,1.54-.73,3.54-5,1.34-5-1.34Zm7.78,2.07c-.85,1.05-1.85,1.74-2.78,1.74s-1.93-.69-2.78-1.74l2.78.75,2.78-.75Zm-7.72,5.48c1.26-1.04,2.01-2.18,2.24-3.39.87.7,1.8,1.08,2.7,1.08s1.83-.38,2.7-1.08c.23,1.21.98,2.35,2.24,3.39.27.22.54.42.81.6-1.05.2-1.92.5-2.72.78-1.04.36-1.95.68-3.04.68s-1.99-.31-3.04-.68c-.8-.28-1.67-.58-2.72-.78.27-.18.54-.38.81-.6m-17.57,13.91c.46.67,1.36,1.97,1.85,3.25-.63-.36-1.34-.65-1.9-.62-.21,0-.4.1-.53.26l-.02.03c-.24.32-.17.56.07,1.35.32,1.07.9,3.07.9,4.9,0,2.13-1.89,3.67-4.5,3.67-2.98,0-4.83-1.85-4.83-4.83,0-2.64,2.55-6.32,7.01-10.12,3.19-2.72,6.28-4.58,7.71-5.18v9.14c-1.26-2.17-3.25-3.55-5.53-3.55-.26,0-.51.15-.63.38h0c-.22.42-.02.7.41,1.32m-6.81-19.95c0-4.18,3.62-8.83,8.81-8.83,6.41,0,8.48,4.97,8.48,7.38,0,1.67-.51,2.93-1.51,3.75-.67.55-1.48.83-2.2.97,2.48-3,1.35-5.43,1.35-5.43,0,0-.51,3.29-4.04,3.12,2.1-2.03,1.68-4.11,1.38-4.88-.6-1.52-2.08-2.53-3.69-2.53-4.07,0-6.2,3.24-6.2,6.45,0,2.51,1.1,4.56,3.17,5.94,1.48.98,3.43,1.6,5.72,1.82-1.04.41-2.3,1.04-3.66,1.82-4.09-.69-7.62-5.1-7.62-9.58m2.69,36.6c-4.29,0-8.63-2.96-8.63-8.63,0-1.9.65-3.93,1.93-6.03l1.53-2.43-.09-.32c-.06-.2-.2-.37-.39-.45-1.7-.78-4.16.16-6.48,1.36,2.68-3.5,7.06-4.84,7.06-4.84,0,0-1.2-.57-4.1-.24,2.7-1.84,5.14-1.46,6.93-1.24,1.53.19,2.98.36,4.15-.54l.29-.21c3.27-2.32,6.24-3.78,7.69-4.23v2.37c-1.83.57-5.47,2.9-8.63,5.6-6.53,5.56-7.51,9.4-7.51,11.2,0,3.8,2.45,6.25,6.25,6.25,3.43,0,5.92-2.14,5.92-5.09,0-1.75-.47-3.58-.81-4.78,1.73.38,2.83,2.23,2.83,2.23,0,0,.52-3.2-2.11-6.64,2.36.88,4.06,3.85,4.06,7.48,0,6.78-5.33,9.18-9.89,9.18m41.95,4.38c0,2.25-1.83,4.07-4.08,4.07h-5.87c-1.99,0-3.88.7-5.38,1.97-1.5-1.28-3.39-1.97-5.38-1.97h-5.87c-2.25,0-4.08-1.83-4.08-4.07v-33.13h7.22c1.99,0,3.32.47,4.6.91,1.12.39,2.17.76,3.5.76s2.39-.37,3.5-.76c1.28-.45,2.61-.91,4.6-.91h7.22v19.55s0,0,0,0c0,0,0,0,0,0v13.56Zm16.95-22.25c-.19.09-.33.25-.39.45l-.09.32,1.53,2.43c1.28,2.1,1.93,4.13,1.93,6.03,0,5.67-4.34,8.63-8.63,8.63-4.56,0-9.88-2.4-9.89-9.17v-.02c0-3.62,1.7-6.58,4.06-7.46-2.63,3.44-2.11,6.64-2.11,6.64,0,0,1.1-1.85,2.83-2.23-.34,1.2-.81,3.02-.81,4.78,0,2.95,2.49,5.09,5.92,5.09,3.8,0,6.25-2.45,6.25-6.25,0-1.79-.98-5.64-7.51-11.2-3.16-2.69-6.8-5.02-8.63-5.6v-2.37c1.45.44,4.42,1.91,7.69,4.23l.29.21c1.17.9,2.62.72,4.15.54,1.79-.22,4.22-.59,6.93,1.24-2.9-.33-4.1.24-4.1.24,0,0,4.38,1.34,7.06,4.84-2.33-1.2-4.79-2.14-6.48-1.36m-45.65,5.26l-.3.3.3.3-.27.27-.3-.3-.3.3-.27-.27.3-.3-.3-.3.27-.27.3.3.3-.3.27.27Zm0-14.94l-.3.3.3.3-.27.27-.3-.3-.3.3-.27-.27.3-.3-.3-.3.27-.27.3.3.3-.3.27.27Zm0,29.88l-.3.3.3.3-.27.27-.3-.3-.3.3-.27-.27.3-.3-.3-.3.27-.27.3.3.3-.3.27.27Zm27.9-14.94l-.3.3.3.3-.27.27-.3-.3-.3.3-.27-.27.3-.3-.3-.3.27-.27.3.3.3-.3.27.27Zm0-14.94l-.3.3.3.3-.27.27-.3-.3-.3.3-.27-.27.3-.3-.3-.3.27-.27.3.3.3-.3.27.27Zm0,29.88l-.3.3.3.3-.27.27-.3-.3-.3.3-.27-.27.3-.3-.3-.3.27-.27.3.3.3-.3.27.27Zm-13.99,5.93l-.3.3.3.3-.27.27-.3-.3-.3.3-.27-.27.3-.3-.3-.3.27-.27.3.3.3-.3.27.27Zm-4.71-19.09c.58,0,1.13-.15,1.6-.41.5.57,1.19.97,1.96,1.1v10.33h0c-.01.21.14.43.29.59h.54c.15-.15.3-.37.29-.59h0v-10.33c.78-.13,1.47-.53,1.96-1.1.48.26,1.02.41,1.6.41,1.85,0,3.35-1.5,3.35-3.35,0-.91-.36-1.73-.95-2.34,0,0,0-.02,0-.03,0-1.85-1.5-3.35-3.35-3.35-.14,0-.27,0-.4.02-.6-.89-1.62-1.47-2.77-1.47s-2.17.58-2.77,1.47c-.13-.02-.26-.02-.4-.02-1.85,0-3.35,1.5-3.35,3.35,0,0,0,.02,0,.03-.59.6-.95,1.43-.95,2.34,0,1.85,1.5,3.35,3.35,3.35m-2.1-4.1c.33-.61,1.46-.99,2.01-.89-.64-.39-1.19-.24-1.19-.24v-.45s0-.02,0-.03c0-1.2.96-2.17,2.15-2.22.94,0,1.42.71,1.42.71,0,0-.26-.81.21-1.45.42-.44,1-.7,1.62-.7s1.2.26,1.62.7c.48.64.21,1.45.21,1.45,0,0,.48-.7,1.42-.71,1.19.04,2.15,1.02,2.15,2.22,0,.01,0,.02,0,.03v.46s-.56-.15-1.19.24c.55-.1,1.69.29,2.01.9.08.24.13.49.13.74,0,1.23-1,2.23-2.23,2.23-.38,0-.74-.09-1.07-.27l-.79-.43c-.23-.14-.69-.19-.96-.12.26.14.47.35.61.52l-.24.27c-.43.49-1.04.77-1.68.77s-1.26-.28-1.68-.77l-.24-.27c.15-.18.35-.39.61-.52-.27-.06-.73-.02-.96.12l-.79.43c-.33.18-.69.27-1.07.27-1.23,0-2.23-1-2.23-2.23,0-.26.05-.51.13-.75m6.78,14.95v-.33s.25,0,.25,0c.48,0,.87.39.87.87v.22h-.74c-.2-.2-.39-.49-.38-.77m-1.37-.33h.25v.33c.01.28-.18.57-.38.77h-.74v-.22c0-.48.39-.87.87-.87m-.81-7.8c-.07.07-.17.14-.27.13.18.05.27.16.27.16v.22c-.07.07-.17.14-.27.13.18.05.27.16.27.16v.26c-.43,0-.36.42-.36.72-.56,0-.49.92-.43,1.55-.15-.24-.34-.41-.51-.5.05-.24-.17-.81-.29-.93.33-.12.71-.61.71-1.07,0-.64.2-1.37.88-1.06v.22Zm-1.97,7.22s-.09-.42-.38-.73c.17.11.58,0,.78-.09-.32-.25-.18-.82-.84-1.31-.14.25-.4.47-.7.56.06.21-.42.87-.26,1.11.47.16.65.83.65,1.22h.62s.11-.09.16-.27c0,.1.06.2.13.27h.22s.11-.09.16-.27c0,.1.06.2.13.27h.39c0-.48-.13-.76-1.07-.76m-6.45-6.59c.28.18.86-.1,1.21-.12.12,0,.31,0,.46.05.48.15.76.58.76,1.14,0,.35-.09.6-.2.89-.09.26-.22.72-.3,1.18-.05.27.02.56.18.75.08.1.23.22.47.22.19,0,.37-.04.5-.09.53-.4,1.12-1.08.87-1.79-.19.34-.69.36-.69.36.49-.86-.43-1.6.39-2.48-.53.19-.75.65-.75.65,0,0-.41-1.17.75-1.74-.41-.11-.84.13-.84.13,0,0,.26-1.16,1.44-.92.07-.35-.53-.35-.53-.35,0,0,1.28-.61,1.67.29.32-.02.42,0,.56.06.45.2.9.21,1.01.3.03.05.07.26,0,.27-.08,0-.24-.1-.26-.16-.08.17.18.27.25.34.07.07.02.34-.17.6-.09-.16-.3-.27-.42-.28-.17-.01-.36.06-.41.23-.06.21.06.44.3.44.33,0,.45-.12.45-.12.15.11.07.47-.17.68-.03-.05-.2-.18-.39-.19-.26-.02-.3.08-.63-.02-.32-.09-.51-.35-.63-.82.03.41.11.65.27.81.48.49,1.32.06,1.53.92-.21-.19-.53-.29-.64-.2.54.24.73.68.78,1-.2-.08-.47-.16-.69-.12.25.03.46.18.71.37.54.46.86.95.98,1.17,0-.63.2-1.28.88-.98v.22c-.07.07-.17.14-.27.13.18.05.27.16.27.16v.22c-.07.07-.17.14-.27.13.18.05.27.16.27.16v.37c-.62,0-.86.85-.86.85,0,0-.03-.15-.36-.7-.33-.55-1.09-.46-1.29-.17-.05-.21-.24-.57-.71-.83.35.46.5,1.05.5,1.05-.12.17-.41.57-.67.66-.28-.3-.7-.32-.7-.32,0,0,.39.21.5.5-.05.53-.47.89-.34,1.22-.32,0-.71-.27-.71-.44,0,0-.3.38-.36.61-.08.3.17.53.17.53.95,0,1.07.28,1.07.76h-.39c-.07-.07-.14-.17-.13-.27-.05.18-.16.27-.16.27h-.22c-.07-.07-.14-.17-.13-.27-.05.18-.16.27-.16.27h-.62c0-.24-.22-.64-.55-.64,0-.22.18-.7.41-.85-.27,0-.49-.14-.63-.44.46.02.73-.7.8-1.14-.16.04-.35.08-.56.08-.34,0-.65-.15-.87-.41-.26-.31-.37-.76-.29-1.18.09-.5.23-1,.33-1.26.1-.26.16-.46.16-.71,0-.31-.12-.52-.35-.62-.15.17-.38.29-.61.29-.49,0-.87-.32-.95-.74m5.43-1.35s.34.13.42.15c.16.03.13-.18.04-.22-.16-.08-.47.03-.46.08m6.27.72c.07.07.17.14.27.13-.18.05-.27.16-.27.16v.22c.07.07.17.14.27.13-.18.05-.27.16-.27.16v.26c.43,0,.36.42.36.72.56,0,.49.92.43,1.55.15-.24.34-.41.51-.5-.05-.24.17-.81.29-.93-.33-.12-.71-.61-.71-1.07,0-.64-.2-1.37-.88-1.06v.22Zm1.97,7.22s.09-.42.38-.73c-.17.11-.58,0-.78-.09.32-.25.18-.82.84-1.31.14.25.4.47.7.56-.06.21.42.87.26,1.11-.47.16-.65.83-.65,1.22h-.62s-.11-.09-.16-.27c0,.1-.06.2-.13.27h-.22s-.11-.09-.16-.27c0,.1-.06.2-.13.27h-.39c0-.48.13-.76,1.07-.76m6.45-6.59c-.28.18-.86-.1-1.21-.12-.12,0-.31,0-.46.05-.48.15-.76.58-.76,1.14,0,.35.09.6.2.89.09.26.22.72.3,1.18.05.27-.02.56-.18.75-.08.1-.23.22-.47.22-.19,0-.36-.04-.5-.09-.53-.4-1.12-1.08-.87-1.79.19.34.69.36.69.36-.49-.86.43-1.6-.39-2.48.53.19.75.65.75.65,0,0,.41-1.17-.75-1.74.41-.11.84.13.84.13,0,0-.25-1.16-1.44-.92-.07-.35.53-.35.53-.35,0,0-1.28-.61-1.67.29-.32-.02-.42,0-.56.06-.45.2-.9.21-1.01.3-.03.05-.07.26,0,.27.08,0,.24-.1.26-.16.08.17-.18.27-.25.34-.07.07-.02.34.17.6.09-.16.3-.27.42-.28.17-.01.36.06.41.23.06.21-.06.44-.3.44-.33,0-.45-.12-.45-.12-.15.11-.07.47.17.68.03-.05.2-.18.39-.19.26-.02.3.08.63-.02.32-.09.51-.35.63-.82-.03.41-.11.65-.27.81-.48.49-1.32.06-1.53.92.21-.19.53-.29.64-.2-.54.24-.73.68-.78,1,.2-.08.47-.16.69-.12-.24.03-.46.18-.7.37-.54.46-.86.95-.98,1.17,0-.63-.2-1.28-.88-.98v.22c.07.07.17.14.27.13-.18.05-.27.16-.27.16v.22c.07.07.17.14.27.13-.18.05-.27.16-.27.16v.37c.62,0,.86.85.86.85,0,0,.03-.15.36-.7.33-.55,1.09-.46,1.29-.17.05-.21.24-.57.71-.83-.35.46-.5,1.05-.5,1.05.12.17.41.57.67.66.29-.3.7-.32.7-.32,0,0-.39.21-.5.5.05.53.47.89.34,1.22.32,0,.71-.27.71-.44,0,0,.3.38.36.61.08.3-.17.53-.17.53-.95,0-1.07.28-1.07.76h.39c.07-.07.14-.17.13-.27.05.18.16.27.16.27h.22c.07-.07.14-.17.13-.27.05.18.16.27.16.27h.62c0-.24.22-.64.55-.64,0-.22-.18-.7-.41-.85.27,0,.49-.14.63-.44-.46.02-.73-.7-.8-1.14.16.04.35.08.56.08.34,0,.65-.15.87-.41.26-.31.37-.76.29-1.18-.09-.5-.23-1-.33-1.26-.1-.26-.17-.46-.17-.71,0-.31.12-.52.35-.62.15.17.38.29.61.29.49,0,.87-.32.95-.74m-5.43-1.35s-.34.13-.42.15c-.16.03-.13-.18-.04-.22.16-.08.47.03.46.08"/>
    </clipPath>
    <linearGradient id="Degradado_sin_nombre_224-2" data-name="Degradado sin nombre 224" x1="-3910.01" y1="1727.66" x2="-3909.63" y2="1727.66" gradientTransform="translate(-755088.77 -333728.67) rotate(180) scale(193.19 -193.19)" xlink:href="#Degradado_sin_nombre_224"/>
    <mask id="mask-1" x="168.27" y="-35.77" width="146.58" height="145.82" maskUnits="userSpaceOnUse">
      <rect class="cls-22" x="188.36" y="-17.05" width="106.4" height="108.37" transform="translate(90.98 229.64) rotate(-60.71)"/>
    </mask>
    <linearGradient id="Degradado_sin_nombre_223-2" data-name="Degradado sin nombre 223" x1="-3910.01" y1="1727.66" x2="-3909.63" y2="1727.66" gradientTransform="translate(-755088.77 -333728.67) rotate(180) scale(193.19 -193.19)" xlink:href="#Degradado_sin_nombre_223"/>
  </defs>
  <g class="cls-24">
    <g id="Capa_1" data-name="Capa 1">
      <g>
        <path class="cls-4" d="m14.34,37.7h3.36v-5.73h7.16v5.73h6.31v5.46h-6.31v8.56c0,.86.19,1.54.56,2.03.37.49,1.05.74,2.04.74.54,0,1.08-.04,1.63-.11.55-.07,1.08-.19,1.59-.34l.49,5c-.72.33-1.6.59-2.64.77-1.04.18-2.09.27-3.13.27-1.4,0-2.59-.22-3.56-.65-.97-.43-1.76-1.01-2.37-1.74-.61-.73-1.06-1.6-1.34-2.6-.28-1-.43-2.07-.43-3.2v-8.72h-3.36v-5.46Zm28.32-.45c2.86,0,5.13.84,6.8,2.53,1.67,1.69,2.51,4.02,2.51,7,0,1.13-.13,2.34-.4,3.62h-12.71c.06,1.34.51,2.42,1.36,3.24.85.82,2.15,1.23,3.91,1.23,1.07,0,2.2-.1,3.38-.29,1.18-.19,2.2-.48,3.07-.87l.89,4.61c-1.13.57-2.41,1-3.83,1.3-1.42.3-2.89.45-4.41.45-1.91,0-3.59-.28-5.06-.83-1.46-.55-2.68-1.32-3.67-2.3-.98-.98-1.73-2.16-2.24-3.53-.51-1.37-.76-2.89-.76-4.56,0-1.79.26-3.4.78-4.83.52-1.43,1.27-2.65,2.24-3.65.97-1,2.14-1.77,3.51-2.3,1.37-.54,2.91-.81,4.61-.81m-.22,4.56c-1.13,0-2.01.37-2.62,1.1-.61.73-.92,1.74-.92,3.02h6.35c.06-.24.09-.49.09-.76,0-.95-.25-1.75-.76-2.39-.51-.64-1.22-.96-2.15-.96m29.98-4.56c1.13,0,2.24.12,3.33.36,1.09.24,2.04.57,2.84.98l-.72,5.1c-.57-.23-1.25-.42-2.04-.6-.79-.17-1.59-.26-2.39-.26-1.91,0-3.34.52-4.3,1.55-.95,1.04-1.43,2.46-1.43,4.26s.48,3.23,1.43,4.26c.95,1.04,2.39,1.55,4.3,1.55.81,0,1.6-.08,2.39-.26.79-.17,1.47-.37,2.04-.6l.72,5.1c-.81.42-1.75.75-2.84.98-1.09.24-2.2.36-3.33.36-1.85,0-3.51-.28-4.99-.83-1.48-.55-2.72-1.33-3.74-2.33-1.01-1-1.79-2.2-2.33-3.6-.54-1.4-.81-2.95-.81-4.65s.27-3.25.81-4.65c.54-1.4,1.31-2.6,2.33-3.6,1.01-1,2.26-1.77,3.74-2.33,1.48-.55,3.14-.83,4.99-.83m35.88.45h7.16v21.92h-7.16v-21.92Zm57.93,15.11h0l.18,6.14s-2.73.76-4.42.76c-2.98,0-4.11-1.59-4.47-2.81-.59.81-1.25,1.8-2.82,2.47-1.2.51-2.49.79-3.9.79-.99,0-1.88-.17-2.66-.5-.78-.33-1.44-.78-1.96-1.35-.53-.57-.93-1.24-1.22-2.01-.29-.77-.43-1.59-.43-2.46,0-2.05.64-3.59,1.92-4.63,1.28-1.04,3.09-1.65,5.44-1.83.87-.06,1.8-.11,2.78-.14.98-.03,1.84-.06,2.6-.09v-.72c0-2.41-1.34-3.61-4.02-3.61-1.05,0-2.07.12-3.05.36-.98.24-1.87.57-2.69.99l-1.31-5.01c1.05-.6,2.29-1.09,3.72-1.47,1.43-.38,2.99-.56,4.67-.56,3.1,0,5.52.81,7.27,2.41,1.74,1.61,2.62,4.02,2.62,7.24l-.15,4.53c0,1.62.51,1.61,1.91,1.48m-12.47,2.61c1.73,0,3.06-.97,3.49-1.29v-3c-.72.06-1.37.13-1.94.2-.57.08-1.13.14-1.67.2-1.47.18-2.21.87-2.21,2.08,0,.54.19.98.56,1.31.38.33,1.07.5,1.77.5m-11.72-2.54c-1.38.13-1.89.14-1.89-1.46h0v-23.33h-7.17v9.77c-.48-.15-1.01-.28-1.61-.38-.6-.1-1.28-.16-2.06-.16-1.55,0-3.02.25-4.39.74-1.37.49-2.58,1.23-3.61,2.22-1.03.99-1.85,2.21-2.46,3.67-.61,1.46-.92,3.15-.92,5.06,0,1.7.22,3.24.67,4.61.45,1.37,1.07,2.55,1.86,3.52.79.97,1.72,1.72,2.8,2.24,1.08.52,2.22.78,3.45.78,1.52,0,2.83-.29,3.92-.87,1.09-.58,1.98-1.36,2.67-2.33l.1-.02c.36,1.21,1.48,2.79,4.44,2.79,1.68,0,4.39-.76,4.39-.76l-.18-6.09Zm-9.06.29c-.93,1.02-2.15,1.53-3.67,1.53s-2.53-.54-3.2-1.62c-.67-1.08-1.01-2.47-1.01-4.18,0-1.92.44-3.43,1.32-4.54.88-1.11,2.22-1.66,4.01-1.66,1.04,0,1.9.12,2.55.36v10.12Zm-27.72.01c-1.42.14-1.94.15-1.94-1.5v-13.98h-7.34v15.42c-.34.49-.79.9-1.35,1.24-.57.34-1.23.5-2,.5-1.19,0-2.05-.44-2.57-1.31-.52-.87-.78-2.24-.78-4.11v-11.75h-7.34v11.61c0,1.5.14,2.93.41,4.29.27,1.36.73,2.56,1.35,3.6.63,1.04,1.45,1.87,2.48,2.5,1.02.63,2.29.94,3.79.94,1.19,0,2.32-.25,3.39-.73,1.07-.49,2.03-1.38,2.89-2.66.36,1.24,1.66,2.95,4.7,2.95,1.72,0,4.49-.78,4.49-.78l-.18-6.24ZM18.63,18.83v6.98h3.19v1.69h-5.33v-8.68h2.14Zm17.59-.16c.45,0,.91.04,1.36.13.46.09.85.21,1.18.37l-.31,1.57c-.26-.1-.56-.19-.89-.27-.33-.07-.67-.11-1-.11-.89,0-1.59.23-2.1.69-.51.46-.77,1.17-.77,2.11s.26,1.64.77,2.11c.51.46,1.21.69,2.1.69.33,0,.66-.04,1-.11.33-.07.63-.16.89-.27l.31,1.57c-.33.16-.72.29-1.18.37-.46.09-.91.13-1.36.13-.76,0-1.44-.11-2.02-.34-.58-.23-1.07-.54-1.46-.94-.39-.4-.69-.87-.89-1.42-.2-.55-.3-1.15-.3-1.8s.1-1.25.3-1.8c.2-.55.5-1.02.89-1.42s.88-.71,1.46-.94c.58-.23,1.26-.34,2.02-.34m3.45.59c0-.33.11-.61.33-.83.22-.23.5-.34.85-.34s.63.11.85.34c.22.23.33.5.33.83s-.11.61-.33.83c-.22.23-.5.34-.85.34s-.63-.11-.85-.34c-.22-.23-.33-.5-.33-.83m.13,1.86h2.08v6.39h-2.08v-6.39Zm42.3,9.07h-2.08v-3.17c-.19.19-.42.34-.69.45-.27.11-.58.16-.94.16-.43,0-.82-.08-1.17-.24-.34-.16-.63-.38-.87-.67-.24-.29-.41-.63-.53-1.03-.12-.4-.18-.84-.18-1.32,0-.51.08-.98.23-1.39.16-.42.39-.77.7-1.07.31-.3.69-.52,1.15-.68.46-.16.99-.24,1.59-.24.56,0,1.06.05,1.5.16.44.1.87.26,1.29.47v8.57Zm-3.11-4.14c.4,0,.74-.11,1.03-.34v-3.03c-.2-.1-.44-.14-.73-.14-.53,0-.92.17-1.18.5-.26.34-.38.78-.38,1.33s.1.94.31,1.24c.2.3.52.45.96.45m14.87-5.06c.83,0,1.49.25,1.98.74.49.49.73,1.17.73,2.04,0,.33-.04.68-.12,1.06h-3.7c.02.39.15.71.4.94.25.24.63.36,1.14.36.31,0,.64-.03.98-.08.34-.06.64-.14.89-.25l.26,1.34c-.33.17-.7.29-1.11.38-.41.09-.84.13-1.28.13-.56,0-1.05-.08-1.47-.24-.43-.16-.78-.38-1.07-.67-.29-.29-.5-.63-.65-1.03-.15-.4-.22-.84-.22-1.33,0-.52.08-.99.23-1.41.15-.42.37-.77.65-1.06.28-.29.62-.51,1.02-.67.4-.16.85-.23,1.34-.23m-.07,1.33c-.33,0-.58.11-.76.32s-.27.51-.27.88h1.85c.02-.07.03-.14.03-.22,0-.28-.07-.51-.22-.7-.15-.19-.36-.28-.63-.28m-21.15,3.2c-.4.04-.55.04-.55-.42h0v-6.79h-2.09v2.84c-.14-.04-.3-.08-.47-.11s-.37-.05-.6-.05c-.45,0-.88.07-1.28.21-.4.14-.75.36-1.05.65-.3.29-.54.64-.72,1.07-.18.43-.27.92-.27,1.47,0,.5.07.94.2,1.34s.31.74.54,1.02c.23.28.5.5.81.65.31.15.65.23,1,.23.44,0,.82-.08,1.14-.25.32-.17.58-.39.78-.68h.03c.1.35.43.8,1.29.8.49,0,1.28-.22,1.28-.22l-.05-1.77Zm-2.64.08c-.27.3-.63.44-1.07.44s-.74-.16-.93-.47c-.2-.31-.29-.72-.29-1.22,0-.56.13-1,.38-1.32.26-.32.64-.48,1.17-.48.3,0,.55.04.74.1v2.94Zm-12.28-.08c-.4.04-.55.04-.55-.42h0v-6.79h-2.08v2.84c-.14-.04-.3-.08-.47-.11-.17-.03-.37-.05-.6-.05-.45,0-.88.07-1.28.21-.4.14-.75.36-1.05.65-.3.29-.54.64-.72,1.07-.18.43-.27.92-.27,1.47,0,.5.07.94.2,1.34s.31.74.54,1.02c.23.28.5.5.81.65.31.15.65.23,1,.23.44,0,.82-.08,1.14-.25.32-.17.58-.39.78-.68h.03c.1.35.43.8,1.29.8.49,0,1.28-.22,1.28-.22l-.05-1.77Zm-2.64.08c-.27.3-.63.44-1.07.44s-.74-.16-.93-.47c-.2-.31-.29-.72-.29-1.22,0-.56.13-1,.38-1.32.26-.32.65-.48,1.17-.48.3,0,.55.04.74.1v2.94Zm9.83-.09h0l.05,1.77s-.79.22-1.28.22c-.86,0-1.19-.46-1.29-.81-.17.23-.36.52-.81.71-.35.15-.72.23-1.13.23-.29,0-.54-.05-.77-.14-.23-.1-.41-.23-.57-.39-.15-.16-.27-.36-.35-.58-.08-.22-.12-.46-.12-.71,0-.59.18-1.04.55-1.34.37-.3.89-.48,1.57-.53.25-.02.52-.03.8-.04.28,0,.53-.02.75-.03v-.21c0-.7-.39-1.04-1.16-1.04-.3,0-.6.03-.88.1-.28.07-.54.17-.78.29l-.38-1.45c.3-.17.66-.31,1.08-.42.41-.11.86-.16,1.35-.16.89,0,1.59.23,2.1.7.5.46.76,1.16.76,2.09l-.04,1.31c0,.47.15.47.55.43m-3.6.75c.5,0,.88-.28,1.01-.37v-.87c-.21.02-.4.04-.56.06-.17.02-.33.04-.48.06-.43.05-.64.25-.64.6,0,.16.05.28.16.38.11.1.31.14.51.14m-32.57-.75h0l.05,1.77s-.79.22-1.28.22c-.86,0-1.19-.46-1.29-.81-.17.23-.36.52-.81.71-.35.15-.72.23-1.13.23-.29,0-.54-.05-.77-.14-.23-.1-.41-.23-.57-.39-.15-.16-.27-.36-.35-.58-.08-.22-.12-.46-.12-.71,0-.59.18-1.04.55-1.34.37-.3.89-.48,1.57-.53.25-.02.52-.03.8-.04.28,0,.53-.02.75-.03v-.21c0-.7-.39-1.04-1.16-1.04-.3,0-.6.03-.88.1-.28.07-.54.17-.78.29l-.38-1.45c.3-.17.66-.31,1.08-.42.41-.11.86-.16,1.35-.16.89,0,1.59.23,2.1.7.5.46.76,1.16.76,2.09l-.04,1.31c0,.47.15.47.55.43m-3.6.75c.5,0,.88-.28,1.01-.37v-.87c-.21.02-.4.04-.56.06-.16.02-.33.04-.48.06-.43.05-.64.25-.64.6,0,.16.05.28.16.38.11.1.31.14.51.14m24.79-.74c-.4.04-.55.04-.55-.43v-3.95h-2.08v4.36c-.1.14-.22.26-.38.35-.16.1-.35.14-.56.14-.34,0-.58-.12-.73-.37-.15-.25-.22-.63-.22-1.16v-3.32h-2.08v3.28c0,.42.04.83.12,1.21.08.39.21.72.38,1.02.18.29.41.53.7.71.29.18.65.27,1.07.27.34,0,.66-.07.96-.21.3-.14.58-.39.82-.75.1.35.47.84,1.33.84.49,0,1.27-.22,1.27-.22l-.05-1.77Zm40.05,0c-.4.04-.55.04-.55-.43v-3.95h-2.08v4.36c-.1.14-.22.26-.38.35-.16.1-.35.14-.56.14-.34,0-.58-.12-.73-.37-.15-.25-.22-.63-.22-1.16v-3.32h-2.08v3.28c0,.42.04.83.12,1.21.08.39.21.72.38,1.02.18.29.41.53.7.71.29.18.65.27,1.07.27.34,0,.66-.07.96-.21.3-.14.58-.39.82-.75.1.35.47.84,1.33.84.49,0,1.27-.22,1.27-.22l-.05-1.77Z"/>
        <g class="cls-20">
          <g class="cls-2">
            <g class="cls-11">
              <rect class="cls-7" x="51.1" y="-39.57" width="78.56" height="157.86" transform="translate(30.05 117.32) rotate(-75.8)"/>
            </g>
          </g>
        </g>
        <g class="cls-20">
          <g class="cls-14">
            <g class="cls-13">
              <g class="cls-3">
                <rect class="cls-8" x="49.69" y="-39.59" width="81.37" height="157.91" transform="translate(28.45 116.06) rotate(-74.62)"/>
              </g>
            </g>
          </g>
        </g>
        <path class="cls-5" d="m120.92,24.59c0,.75-.19,1.51-.58,2.18-1.69.96-3.86.72-5.31-.71l-.02-.02-3.14-3.14,1.46-1.46c1.74-1.73,4.55-1.73,6.29,0,.87.87,1.3,2.01,1.3,3.14"/>
        <g class="cls-6">
          <g class="cls-12">
            <g class="cls-18">
              <rect class="cls-10" x="111.27" y="18.25" width="10.26" height="10.95" transform="translate(60.59 128.59) rotate(-73.5)"/>
            </g>
          </g>
        </g>
        <path class="cls-5" d="m120.35,26.78c-.19.34-.43.67-.72.96l-1.46,1.46-4.24,4.24-.25.25c-.48.42-1.1.67-1.79.67s-1.32-.26-1.79-.68l-.25-.25-4.25-4.25-1.46-1.46c-.87-.87-1.3-2.01-1.3-3.14s.43-2.28,1.3-3.14c1.74-1.73,4.55-1.73,6.29,0l1.46,1.46,3.14,3.14s.01.01.02.02c1.44,1.43,3.62,1.66,5.31.7"/>
      </g>
      <g>
        <g class="cls-20">
          <g class="cls-17">
            <g class="cls-15">
              <rect class="cls-21" x="185.93" y="-18.66" width="111.26" height="111.6" transform="translate(51.49 190.77) rotate(-47.69)"/>
            </g>
          </g>
        </g>
        <g class="cls-16">
          <g class="cls-19">
            <g class="cls-25">
              <rect class="cls-23" x="188.36" y="-17.05" width="106.4" height="108.37" transform="translate(90.98 229.64) rotate(-60.71)"/>
            </g>
          </g>
        </g>
      </g>
    </g>
  </g>
</svg>