<?xml version="1.0" encoding="UTF-8"?>
<svg xmlns="http://www.w3.org/2000/svg" xmlns:xlink="http://www.w3.org/1999/xlink" viewBox="0 0 211.93 81.44">
  <defs>
    <style>
      .cls-1 {
        fill: none;
      }

      .cls-2 {
        clip-path: url(#clippath);
      }

      .cls-3 {
        mask: url(#mask);
      }

      .cls-4 {
        fill: #cc9f53;
      }

      .cls-5 {
        fill: url(#Degradado_sin_nombre_105);
      }

      .cls-6 {
        fill: url(#Degradado_sin_nombre_102);
      }

      .cls-7 {
        fill: url(#Degradado_sin_nombre_106);
      }

      .cls-8 {
        fill: url(#Degradado_sin_nombre_101);
      }

      .cls-9 {
        fill: url(#Degradado_sin_nombre_223);
      }

      .cls-10 {
        fill: url(#Degradado_sin_nombre_224);
      }

      .cls-11 {
        clip-path: url(#clippath-1);
      }

      .cls-12 {
        clip-path: url(#clippath-4);
      }

      .cls-13 {
        clip-path: url(#clippath-3);
      }

      .cls-14 {
        clip-path: url(#clippath-2);
      }

      .cls-15 {
        clip-path: url(#clippath-7);
      }

      .cls-16 {
        clip-path: url(#clippath-8);
      }

      .cls-17 {
        clip-path: url(#clippath-6);
      }

      .cls-18 {
        clip-path: url(#clippath-5);
      }

      .cls-19 {
        clip-path: url(#clippath-9);
      }

      .cls-20 {
        mix-blend-mode: overlay;
      }

      .cls-21 {
        clip-path: url(#clippath-20);
      }

      .cls-22 {
        clip-path: url(#clippath-21);
      }

      .cls-23 {
        clip-path: url(#clippath-14);
      }

      .cls-24 {
        clip-path: url(#clippath-13);
      }

      .cls-25 {
        clip-path: url(#clippath-12);
      }

      .cls-26 {
        clip-path: url(#clippath-10);
      }

      .cls-27 {
        clip-path: url(#clippath-15);
      }

      .cls-28 {
        clip-path: url(#clippath-17);
      }

      .cls-29 {
        clip-path: url(#clippath-16);
      }

      .cls-30 {
        clip-path: url(#clippath-19);
      }

      .cls-31 {
        clip-path: url(#clippath-11);
      }

      .cls-32 {
        clip-path: url(#clippath-18);
      }

      .cls-33 {
        mix-blend-mode: soft-light;
      }

      .cls-34 {
        fill: url(#Degradado_sin_nombre_92);
      }

      .cls-35 {
        fill: url(#Degradado_sin_nombre_95);
      }

      .cls-36 {
        fill: url(#Degradado_sin_nombre_96);
      }

      .cls-37 {
        fill: url(#Degradado_sin_nombre_224-3);
      }

      .cls-38 {
        fill: url(#Degradado_sin_nombre_224-2);
      }

      .cls-39 {
        fill: url(#Degradado_sin_nombre_223-3);
      }

      .cls-40 {
        fill: url(#Degradado_sin_nombre_223-2);
      }

      .cls-41 {
        fill: url(#Degradado_sin_nombre_106-4);
      }

      .cls-42 {
        fill: url(#Degradado_sin_nombre_106-3);
      }

      .cls-43 {
        fill: url(#Degradado_sin_nombre_106-2);
      }

      .cls-44 {
        fill: url(#Degradado_sin_nombre_105-2);
      }

      .cls-45 {
        fill: url(#Degradado_sin_nombre_105-3);
      }

      .cls-46 {
        fill: url(#Degradado_sin_nombre_105-4);
      }

      .cls-47 {
        isolation: isolate;
      }

      .cls-48 {
        fill: url(#Degradado_sin_nombre_92-2);
      }

      .cls-49 {
        mask: url(#mask-3);
      }

      .cls-50 {
        mask: url(#mask-2);
      }

      .cls-51 {
        mask: url(#mask-5);
      }

      .cls-52 {
        mask: url(#mask-4);
      }

      .cls-53 {
        mask: url(#mask-1);
      }

      .cls-54 {
        mask: url(#mask-7);
      }

      .cls-55 {
        mask: url(#mask-6);
      }

      .cls-56 {
        mask: url(#mask-8);
      }
    </style>
    <clipPath id="clippath">
      <rect class="cls-1" x="97.4" y="32.66" width="109.09" height="32.16"/>
    </clipPath>
    <clipPath id="clippath-1">
      <path class="cls-1" d="m99.47,36.33c-.15.41-.22.88-.22,1.42,0,1,.26,1.76.77,2.27.51.51,1.28.77,2.31.77.21,0,.43-.02.64-.05.22-.03.41-.07.59-.13v-2.61h1.67v3.6c-.42.18-.9.32-1.46.42-.56.11-1.12.16-1.68.16-.73,0-1.39-.11-1.97-.32-.58-.22-1.07-.52-1.48-.91-.41-.39-.72-.86-.93-1.4-.21-.54-.32-1.15-.32-1.81,0-.7.11-1.34.32-1.91.22-.58.53-1.07.95-1.48.42-.41.92-.73,1.51-.95.59-.23,1.27-.34,2.03-.34.53,0,1.02.04,1.48.12.46.08.91.22,1.34.42l-.26,1.44c-.39-.16-.78-.28-1.17-.37-.39-.09-.8-.13-1.25-.13-.48,0-.91.07-1.29.2-.38.13-.7.33-.97.6-.27.27-.48.6-.62,1.01m7.88,4.87c-.28-.3-.5-.66-.64-1.07-.15-.41-.22-.84-.22-1.31s.07-.91.22-1.31c.15-.41.36-.76.64-1.07.28-.3.63-.55,1.04-.72.41-.18.89-.26,1.42-.26s1.01.09,1.42.26c.41.18.76.42,1.04.72s.5.66.64,1.07c.15.41.22.84.22,1.31s-.07.91-.22,1.31c-.15.41-.36.76-.64,1.07s-.63.54-1.04.72c-.41.17-.89.26-1.42.26s-1.01-.09-1.42-.26c-.41-.17-.76-.41-1.04-.72m.95-2.38c0,.26.03.52.08.76.05.24.14.45.26.64.12.19.27.33.46.44.19.11.43.17.71.17s.51-.05.7-.17c.19-.11.35-.26.47-.44.12-.19.21-.4.26-.64.05-.24.08-.49.08-.76s-.03-.52-.08-.76c-.05-.24-.14-.46-.26-.64-.12-.19-.28-.33-.47-.44-.19-.11-.43-.17-.7-.17s-.52.06-.71.17c-.19.11-.34.26-.46.44-.12.19-.21.4-.26.64-.05.24-.08.5-.08.76m7.94-6.14v3.43c.19-.19.43-.35.7-.48.27-.12.61-.19,1.01-.19.42,0,.81.08,1.15.25.34.16.63.39.87.68.24.29.42.64.55,1.05s.19.85.19,1.33-.07.95-.23,1.37c-.15.42-.38.78-.68,1.09-.3.3-.68.54-1.13.71-.45.17-.98.25-1.58.25-.49,0-.97-.05-1.42-.16-.45-.11-.87-.25-1.25-.42v-8.9h1.82Zm0,4.61v3.36c.11.05.23.09.38.12.15.03.31.04.49.04.32,0,.59-.05.81-.15.23-.1.41-.24.55-.43.14-.18.25-.4.31-.64.07-.25.1-.52.1-.81,0-.57-.12-1.03-.35-1.39-.23-.36-.6-.54-1.09-.54-.25,0-.47.04-.66.11-.19.08-.38.18-.54.33m7.43-4.33c-.2-.2-.45-.3-.76-.3s-.56.1-.76.3c-.19.2-.29.45-.29.74s.1.53.29.74c.19.21.45.31.76.31s.56-.1.76-.31c.2-.21.3-.45.3-.74s-.1-.54-.3-.74m-1.66,9.08h1.82v-6.45h-1.82v6.45Zm4-.78c-.29-.29-.51-.64-.66-1.05-.15-.41-.23-.86-.23-1.36s.07-.97.22-1.38c.15-.42.36-.78.63-1.07.27-.3.61-.53,1-.69.39-.16.84-.25,1.33-.25.42,0,.8.07,1.13.2.33.13.61.32.83.56.22.24.39.53.5.87.11.34.17.72.17,1.15,0,.18-.01.36-.03.54-.02.18-.06.35-.1.5h-3.83c.02.47.16.85.44,1.13.27.28.71.42,1.31.42.34,0,.68-.03,1.01-.1.33-.06.62-.16.87-.27l.23,1.23c-.32.16-.68.28-1.09.36-.41.08-.83.13-1.26.13-.54,0-1.02-.08-1.43-.24-.42-.16-.77-.38-1.05-.68m.99-3.21h2.21c.04-.41-.02-.75-.19-1-.17-.25-.44-.38-.82-.38s-.66.13-.85.39c-.2.26-.32.59-.35.99m7.61-2.21c-.27.21-.47.51-.59.89v-1.14h-1.75v6.45h1.82v-4.08c.18-.26.41-.47.72-.61.3-.14.68-.21,1.13-.21h.3v-1.55c-.16-.04-.34-.07-.54-.07-.45,0-.81.11-1.08.32m2.68-.25v6.45h1.82v-4.52c.12-.17.28-.31.48-.44.19-.12.42-.19.69-.19.42,0,.71.15.89.45.18.3.27.74.27,1.33v3.37h1.82v-3.35c0-.42-.04-.83-.13-1.23-.09-.39-.23-.74-.41-1.03-.19-.3-.43-.53-.72-.71-.3-.18-.65-.26-1.07-.26-.39,0-.75.08-1.07.25-.33.16-.6.42-.81.76v-.87h-1.75Zm8.06,5.61c-.28-.3-.5-.66-.64-1.07-.15-.41-.22-.84-.22-1.31s.07-.91.22-1.31c.15-.41.36-.76.64-1.07s.63-.55,1.04-.72c.41-.18.89-.26,1.42-.26s1.01.09,1.42.26c.41.18.76.42,1.04.72s.5.66.64,1.07.22.84.22,1.31-.07.91-.22,1.31-.36.76-.64,1.07-.63.54-1.04.72c-.41.17-.89.26-1.42.26s-1.01-.09-1.42-.26c-.41-.17-.76-.41-1.04-.72m.95-2.38c0,.26.03.52.08.76.05.24.14.45.26.64.12.19.27.33.46.44.19.11.43.17.71.17s.51-.05.7-.17c.19-.11.35-.26.47-.44.12-.19.21-.4.26-.64.05-.24.08-.49.08-.76s-.03-.52-.08-.76-.14-.46-.26-.64c-.12-.19-.28-.33-.47-.44-.19-.11-.43-.17-.7-.17s-.52.06-.71.17c-.19.11-.34.26-.46.44-.12.19-.21.4-.26.64s-.08.5-.08.76m13.11,3.22v-.83c-.21.28-.48.51-.81.7-.33.18-.72.27-1.17.27-.37,0-.71-.08-1.03-.25-.31-.16-.58-.39-.81-.68-.23-.29-.4-.64-.53-1.04-.13-.4-.19-.84-.19-1.32,0-.56.09-1.05.27-1.48.18-.43.41-.79.72-1.07.3-.29.65-.51,1.05-.66.4-.15.83-.23,1.29-.23.23,0,.44.02.63.05.19.03.36.07.51.13v-2.94h1.82v9.36h-1.74Zm-.08-5.08c-.25-.09-.54-.13-.87-.13-.58,0-1.03.18-1.33.54-.3.36-.45.85-.45,1.49,0,.27.03.53.08.76.05.23.13.44.25.6.11.17.25.3.42.4.17.1.38.15.62.15.28,0,.53-.06.74-.17.21-.11.39-.25.55-.43v-3.21Zm8.8,2.31h-3.83c.02.47.16.85.44,1.13.27.28.71.42,1.31.42.34,0,.68-.03,1.01-.1.33-.06.62-.16.87-.27l.22,1.23c-.32.16-.68.28-1.09.36-.41.08-.83.13-1.26.13-.54,0-1.02-.08-1.43-.24-.42-.16-.77-.38-1.05-.68-.29-.29-.51-.64-.66-1.05-.15-.41-.23-.86-.23-1.36s.07-.97.22-1.38c.15-.42.36-.78.63-1.07.27-.3.61-.53,1-.69.39-.16.84-.25,1.33-.25.42,0,.8.07,1.13.2.33.13.61.32.83.56.22.24.39.53.5.87.11.34.17.72.17,1.15,0,.18-.01.36-.03.54-.02.18-.06.35-.1.5m-1.79-2.22c-.17-.25-.44-.38-.82-.38s-.66.13-.85.39c-.2.26-.32.59-.35.99h2.21c.04-.41-.02-.75-.19-1m-5.93,21.03c-.31,0-.51-.07-.62-.21-.11-.14-.16-.34-.16-.59v-11.14h-3.2v11.5c0,.36.05.71.14,1.05.09.34.25.64.46.91.21.27.5.48.86.64.36.16.81.24,1.34.24.36,0,.71-.02,1.05-.07.34-.05.64-.11.91-.19l-.1-2.2c-.27.04-.49.06-.68.06m13.1,3.53c0,.25-.05.45-.16.59-.11.14-.31.21-.62.21-.19,0-.41-.02-.68-.06l-.1,2.2c.27.08.57.14.91.19.34.05.69.07,1.05.07.53,0,.98-.08,1.34-.24.36-.16.65-.37.86-.64.21-.27.37-.57.46-.91.09-.34.14-.69.14-1.05v-11.5h-3.2v11.14Zm1.54-15.8c-.53,0-.97.17-1.3.52-.33.35-.5.77-.5,1.28s.17.94.5,1.28c.33.35.77.52,1.3.52s.97-.17,1.3-.52c.33-.35.5-.77.5-1.28s-.17-.93-.5-1.28c-.33-.35-.77-.52-1.3-.52m20.19,4.59c-.63,0-1.14.15-1.52.46-.39.31-.67.73-.86,1.26v-1.64h-3.1v9.81h3.2v-6.09c.52-.64,1.42-.96,2.68-.96h.38l.08-2.72c-.13-.04-.26-.07-.39-.09-.13-.02-.28-.03-.47-.03m11.18,6.83l.08,2.72s-1.21.34-1.96.34c-1.32,0-1.83-.71-1.99-1.25-.26.36-.56.8-1.25,1.1-.53.23-1.11.35-1.73.35-.44,0-.83-.07-1.18-.22-.35-.15-.64-.35-.87-.6-.23-.25-.41-.55-.54-.89-.13-.34-.19-.7-.19-1.09,0-.91.28-1.59.85-2.05.57-.46,1.37-.73,2.41-.81.39-.03.8-.05,1.23-.06.43-.01.82-.03,1.15-.04v-.32c0-1.07-.59-1.6-1.78-1.6-.47,0-.92.05-1.35.16-.43.11-.83.25-1.19.44l-.58-2.22c.47-.27,1.02-.48,1.65-.65.63-.17,1.33-.25,2.07-.25,1.37,0,2.45.36,3.22,1.07.77.71,1.16,1.79,1.16,3.22l-.07,2.01c0,.72.23.72.85.66m-3.99-.74c-.32.03-.61.06-.86.09-.25.03-.5.06-.74.09-.65.08-.98.39-.98.92,0,.24.08.43.25.58.17.15.48.22.78.22.77,0,1.36-.43,1.55-.57v-1.33Zm-98.38-2.42v2.42h2.54v1.3c-.19.07-.42.12-.7.17-.28.05-.57.07-.88.07-1.42,0-2.49-.35-3.22-1.06-.73-.71-1.09-1.76-1.09-3.14,0-.79.1-1.47.31-2.03.21-.57.5-1.03.88-1.4.38-.37.84-.64,1.37-.81.53-.17,1.13-.26,1.8-.26.52,0,1.02.04,1.52.12v1.6h2.2l.32-3.5c-1.18-.54-2.63-.82-4.37-.82-1.16,0-2.2.17-3.1.51-.91.34-1.68.82-2.3,1.44-.63.62-1.11,1.37-1.43,2.24-.33.87-.49,1.85-.49,2.91,0,1,.16,1.91.49,2.73.33.82.8,1.53,1.41,2.11.61.59,1.36,1.05,2.24,1.37.88.33,1.88.49,3,.49.96,0,1.89-.09,2.77-.27.89-.18,1.62-.41,2.19-.7v-5.5h-5.48Zm84.22,3.17l.08,2.72s-1.21.34-1.96.34c-1.32,0-1.83-.71-1.98-1.25-.26.36-.56.8-1.25,1.1-.53.23-1.11.35-1.73.35-.44,0-.83-.07-1.18-.22-.35-.15-.64-.35-.87-.6-.23-.25-.41-.55-.54-.89-.13-.34-.19-.7-.19-1.09,0-.91.28-1.59.85-2.05.57-.46,1.37-.73,2.41-.81.39-.03.8-.05,1.23-.06.43-.01.82-.03,1.15-.04v-.32c0-1.07-.59-1.6-1.78-1.6-.47,0-.92.05-1.35.16-.43.11-.83.25-1.19.44l-.58-2.22c.47-.27,1.02-.48,1.65-.65.63-.17,1.33-.25,2.07-.25,1.38,0,2.45.36,3.22,1.07.77.71,1.16,1.79,1.16,3.22l-.07,2.01c0,.72.23.72.85.66m-3.99-.74c-.32.03-.61.06-.86.09-.25.03-.5.06-.74.09-.65.08-.98.39-.98.92,0,.24.08.43.25.58.17.15.48.22.78.22.77,0,1.36-.43,1.55-.57v-1.33Zm-12.34,3.52s-1.21.34-1.96.34c-1.32,0-1.83-.71-1.98-1.25-.26.36-.56.8-1.25,1.1-.53.23-1.11.35-1.73.35-.44,0-.83-.07-1.18-.22-.35-.15-.64-.35-.87-.6-.23-.25-.41-.55-.54-.89-.13-.34-.19-.7-.19-1.09,0-.91.28-1.59.85-2.05.57-.46,1.37-.73,2.41-.81.39-.03.8-.05,1.23-.06.43-.01.82-.03,1.15-.04v-.32c0-1.07-.59-1.6-1.78-1.6-.47,0-.92.05-1.35.16-.43.11-.83.25-1.19.44l-.58-2.22c.47-.27,1.02-.48,1.65-.65.63-.17,1.33-.25,2.07-.25,1.38,0,2.45.36,3.22,1.07.77.71,1.16,1.79,1.16,3.21l-.07,2.01c0,.72.23.72.85.66l.08,2.72Zm-4.07-3.47c-.32.03-.61.06-.86.09-.25.03-.5.06-.74.09-.65.08-.98.39-.98.92,0,.24.08.43.25.58.17.15.48.22.78.22.77,0,1.36-.43,1.55-.57v-1.33Zm-13.17.74l.08,2.72s-1.21.34-1.96.34c-1.32,0-1.83-.71-1.99-1.25-.26.36-.56.8-1.25,1.1-.53.23-1.1.35-1.73.35-.44,0-.83-.07-1.18-.22-.35-.15-.64-.35-.87-.6-.23-.25-.41-.55-.54-.89-.13-.34-.19-.7-.19-1.09,0-.91.28-1.59.85-2.05.57-.46,1.37-.73,2.41-.81.39-.03.8-.05,1.23-.06.43-.01.82-.03,1.15-.04v-.32c0-1.07-.59-1.6-1.78-1.6-.47,0-.92.05-1.35.16-.43.11-.83.25-1.19.44l-.58-2.22c.47-.27,1.02-.48,1.65-.65.63-.17,1.33-.25,2.07-.25,1.38,0,2.45.36,3.23,1.07.77.71,1.16,1.79,1.16,3.21l-.07,2.01c0,.72.23.72.85.66m-3.99-.74c-.32.03-.61.06-.86.09-.25.03-.5.06-.74.09-.65.08-.98.39-.98.92,0,.24.08.43.25.58.17.15.48.22.78.22.77,0,1.36-.43,1.55-.57v-1.33Zm-18.24.74l.08,2.72s-1.21.34-1.96.34c-1.32,0-1.83-.71-1.98-1.25-.26.36-.56.8-1.25,1.1-.53.23-1.11.35-1.73.35-.44,0-.84-.07-1.18-.22-.35-.15-.64-.35-.87-.6-.23-.25-.41-.55-.54-.89-.13-.34-.19-.7-.19-1.09,0-.91.28-1.59.85-2.05.57-.46,1.37-.73,2.41-.81.39-.03.8-.05,1.23-.06.43-.01.82-.03,1.15-.04v-.32c0-1.07-.59-1.6-1.78-1.6-.47,0-.92.05-1.35.16-.43.11-.83.25-1.19.44l-.58-2.22c.47-.27,1.02-.48,1.65-.65.63-.17,1.33-.25,2.07-.25,1.38,0,2.45.36,3.22,1.07.77.71,1.16,1.79,1.16,3.21l-.07,2.01c0,.72.23.72.85.66m-3.99-.74c-.32.03-.61.06-.86.09-.25.03-.5.06-.74.09-.65.08-.98.39-.98.92,0,.24.08.43.25.58.17.15.48.22.78.22.77,0,1.36-.43,1.55-.57v-1.33Zm15.79.7l.08,2.72s-1.21.34-1.96.34c-1.32,0-1.83-.71-1.99-1.25h-.05c-.31.45-.7.8-1.19,1.05-.49.26-1.07.39-1.75.39-.55,0-1.06-.12-1.54-.35-.48-.23-.9-.57-1.25-1-.35-.43-.63-.96-.83-1.57-.2-.61-.3-1.3-.3-2.06,0-.85.14-1.61.41-2.26.27-.65.64-1.2,1.1-1.64.46-.44,1-.77,1.61-.99.61-.22,1.27-.33,1.96-.33.35,0,.65.02.92.07.27.05.51.1.72.17v-4.37h3.2v10.43h0c0,.72.23.72.85.66m-4.05-4.39c-.29-.11-.67-.16-1.14-.16-.8,0-1.4.25-1.79.74-.39.5-.59,1.17-.59,2.03,0,.76.15,1.39.45,1.87.3.48.78.72,1.43.72s1.23-.23,1.64-.68v-4.52Zm-19.21,3.74v-6.1h-3.21v6.73c-.15.21-.34.39-.59.54-.25.15-.54.22-.87.22-.52,0-.89-.19-1.12-.57-.23-.38-.34-.98-.34-1.79v-5.13h-3.2v5.07c0,.65.06,1.28.18,1.87.12.59.32,1.12.59,1.57.27.45.63.82,1.08,1.09.45.27,1,.41,1.65.41.52,0,1.01-.11,1.48-.32.47-.21.89-.6,1.26-1.16.16.54.73,1.29,2.05,1.29.75,0,1.96-.34,1.96-.34l-.08-2.72c-.62.06-.85.06-.85-.66"/>
    </clipPath>
    <radialGradient id="Degradado_sin_nombre_92" data-name="Degradado sin nombre 92" cx="-4101.8" cy="1732.62" fx="-4101.8" fy="1732.62" r=".39" gradientTransform="translate(-826742.98 -349252.59) rotate(180) scale(201.6 -201.6)" gradientUnits="userSpaceOnUse">
      <stop offset="0" stop-color="#8c8c8d"/>
      <stop offset=".33" stop-color="#989898"/>
      <stop offset=".49" stop-color="#8e8e8e"/>
      <stop offset=".75" stop-color="#747474"/>
      <stop offset="1" stop-color="#565656"/>
      <stop offset="1" stop-color="#565656"/>
    </radialGradient>
    <clipPath id="clippath-2">
      <rect class="cls-1" x="97.4" y="32.66" width="109.09" height="32.16"/>
    </clipPath>
    <clipPath id="clippath-3">
      <path class="cls-1" d="m99.47,36.33c-.15.41-.22.88-.22,1.42,0,1,.26,1.76.77,2.27.51.51,1.28.77,2.31.77.21,0,.43-.02.64-.05.22-.03.41-.07.59-.13v-2.61h1.67v3.6c-.42.18-.9.32-1.46.42-.56.11-1.12.16-1.68.16-.73,0-1.39-.11-1.97-.32-.58-.22-1.07-.52-1.48-.91-.41-.39-.72-.86-.93-1.4-.21-.54-.32-1.15-.32-1.81,0-.7.11-1.34.32-1.91.22-.58.53-1.07.95-1.48.42-.41.92-.73,1.51-.95.59-.23,1.27-.34,2.03-.34.53,0,1.02.04,1.48.12.46.08.91.22,1.34.42l-.26,1.44c-.39-.16-.78-.28-1.17-.37-.39-.09-.8-.13-1.25-.13-.48,0-.91.07-1.29.2-.38.13-.7.33-.97.6-.27.27-.48.6-.62,1.01m7.88,4.87c-.28-.3-.5-.66-.64-1.07-.15-.41-.22-.84-.22-1.31s.07-.91.22-1.31c.15-.41.36-.76.64-1.07.28-.3.63-.55,1.04-.72.41-.18.89-.26,1.42-.26s1.01.09,1.42.26c.41.18.76.42,1.04.72s.5.66.64,1.07c.15.41.22.84.22,1.31s-.07.91-.22,1.31c-.15.41-.36.76-.64,1.07s-.63.54-1.04.72c-.41.17-.89.26-1.42.26s-1.01-.09-1.42-.26c-.41-.17-.76-.41-1.04-.72m.95-2.38c0,.26.03.52.08.76.05.24.14.45.26.64.12.19.27.33.46.44.19.11.43.17.71.17s.51-.05.7-.17c.19-.11.35-.26.47-.44.12-.19.21-.4.26-.64.05-.24.08-.49.08-.76s-.03-.52-.08-.76c-.05-.24-.14-.46-.26-.64-.12-.19-.28-.33-.47-.44-.19-.11-.43-.17-.7-.17s-.52.06-.71.17c-.19.11-.34.26-.46.44-.12.19-.21.4-.26.64-.05.24-.08.5-.08.76m7.94-6.14v3.43c.19-.19.43-.35.7-.48.27-.12.61-.19,1.01-.19.42,0,.81.08,1.15.25.34.16.63.39.87.68.24.29.42.64.55,1.05s.19.85.19,1.33-.07.95-.23,1.37c-.15.42-.38.78-.68,1.09-.3.3-.68.54-1.13.71-.45.17-.98.25-1.58.25-.49,0-.97-.05-1.42-.16-.45-.11-.87-.25-1.25-.42v-8.9h1.82Zm0,4.61v3.36c.11.05.23.09.38.12.15.03.31.04.49.04.32,0,.59-.05.81-.15.23-.1.41-.24.55-.43.14-.18.25-.4.31-.64.07-.25.1-.52.1-.81,0-.57-.12-1.03-.35-1.39-.23-.36-.6-.54-1.09-.54-.25,0-.47.04-.66.11-.19.08-.38.18-.54.33m7.43-4.33c-.2-.2-.45-.3-.76-.3s-.56.1-.76.3c-.19.2-.29.45-.29.74s.1.53.29.74c.19.21.45.31.76.31s.56-.1.76-.31c.2-.21.3-.45.3-.74s-.1-.54-.3-.74m-1.66,9.08h1.82v-6.45h-1.82v6.45Zm4-.78c-.29-.29-.51-.64-.66-1.05-.15-.41-.23-.86-.23-1.36s.07-.97.22-1.38c.15-.42.36-.78.63-1.07.27-.3.61-.53,1-.69.39-.16.84-.25,1.33-.25.42,0,.8.07,1.13.2.33.13.61.32.83.56.22.24.39.53.5.87.11.34.17.72.17,1.15,0,.18-.01.36-.03.54-.02.18-.06.35-.1.5h-3.83c.02.47.16.85.44,1.13.27.28.71.42,1.31.42.34,0,.68-.03,1.01-.1.33-.06.62-.16.87-.27l.23,1.23c-.32.16-.68.28-1.09.36-.41.08-.83.13-1.26.13-.54,0-1.02-.08-1.43-.24-.42-.16-.77-.38-1.05-.68m.99-3.21h2.21c.04-.41-.02-.75-.19-1-.17-.25-.44-.38-.82-.38s-.66.13-.85.39c-.2.26-.32.59-.35.99m7.61-2.21c-.27.21-.47.51-.59.89v-1.14h-1.75v6.45h1.82v-4.08c.18-.26.41-.47.72-.61.3-.14.68-.21,1.13-.21h.3v-1.55c-.16-.04-.34-.07-.54-.07-.45,0-.81.11-1.08.32m2.68-.25v6.45h1.82v-4.52c.12-.17.28-.31.48-.44.19-.12.42-.19.69-.19.42,0,.71.15.89.45.18.3.27.74.27,1.33v3.37h1.82v-3.35c0-.42-.04-.83-.13-1.23-.09-.39-.23-.74-.41-1.03-.19-.3-.43-.53-.72-.71-.3-.18-.65-.26-1.07-.26-.39,0-.75.08-1.07.25-.33.16-.6.42-.81.76v-.87h-1.75Zm8.06,5.61c-.28-.3-.5-.66-.64-1.07-.15-.41-.22-.84-.22-1.31s.07-.91.22-1.31c.15-.41.36-.76.64-1.07s.63-.55,1.04-.72c.41-.18.89-.26,1.42-.26s1.01.09,1.42.26c.41.18.76.42,1.04.72s.5.66.64,1.07.22.84.22,1.31-.07.91-.22,1.31-.36.76-.64,1.07-.63.54-1.04.72c-.41.17-.89.26-1.42.26s-1.01-.09-1.42-.26c-.41-.17-.76-.41-1.04-.72m.95-2.38c0,.26.03.52.08.76.05.24.14.45.26.64.12.19.27.33.46.44.19.11.43.17.71.17s.51-.05.7-.17c.19-.11.35-.26.47-.44.12-.19.21-.4.26-.64.05-.24.08-.49.08-.76s-.03-.52-.08-.76-.14-.46-.26-.64c-.12-.19-.28-.33-.47-.44-.19-.11-.43-.17-.7-.17s-.52.06-.71.17c-.19.11-.34.26-.46.44-.12.19-.21.4-.26.64s-.08.5-.08.76m13.11,3.22v-.83c-.21.28-.48.51-.81.7-.33.18-.72.27-1.17.27-.37,0-.71-.08-1.03-.25-.31-.16-.58-.39-.81-.68-.23-.29-.4-.64-.53-1.04-.13-.4-.19-.84-.19-1.32,0-.56.09-1.05.27-1.48.18-.43.41-.79.72-1.07.3-.29.65-.51,1.05-.66.4-.15.83-.23,1.29-.23.23,0,.44.02.63.05.19.03.36.07.51.13v-2.94h1.82v9.36h-1.74Zm-.08-5.08c-.25-.09-.54-.13-.87-.13-.58,0-1.03.18-1.33.54-.3.36-.45.85-.45,1.49,0,.27.03.53.08.76.05.23.13.44.25.6.11.17.25.3.42.4.17.1.38.15.62.15.28,0,.53-.06.74-.17.21-.11.39-.25.55-.43v-3.21Zm8.8,2.31h-3.83c.02.47.16.85.44,1.13.27.28.71.42,1.31.42.34,0,.68-.03,1.01-.1.33-.06.62-.16.87-.27l.22,1.23c-.32.16-.68.28-1.09.36-.41.08-.83.13-1.26.13-.54,0-1.02-.08-1.43-.24-.42-.16-.77-.38-1.05-.68-.29-.29-.51-.64-.66-1.05-.15-.41-.23-.86-.23-1.36s.07-.97.22-1.38c.15-.42.36-.78.63-1.07.27-.3.61-.53,1-.69.39-.16.84-.25,1.33-.25.42,0,.8.07,1.13.2.33.13.61.32.83.56.22.24.39.53.5.87.11.34.17.72.17,1.15,0,.18-.01.36-.03.54-.02.18-.06.35-.1.5m-1.79-2.22c-.17-.25-.44-.38-.82-.38s-.66.13-.85.39c-.2.26-.32.59-.35.99h2.21c.04-.41-.02-.75-.19-1m-5.93,21.03c-.31,0-.51-.07-.62-.21-.11-.14-.16-.34-.16-.59v-11.14h-3.2v11.5c0,.36.05.71.14,1.05.09.34.25.64.46.91.21.27.5.48.86.64.36.16.81.24,1.34.24.36,0,.71-.02,1.05-.07.34-.05.64-.11.91-.19l-.1-2.2c-.27.04-.49.06-.68.06m13.1,3.53c0,.25-.05.45-.16.59-.11.14-.31.21-.62.21-.19,0-.41-.02-.68-.06l-.1,2.2c.27.08.57.14.91.19.34.05.69.07,1.05.07.53,0,.98-.08,1.34-.24.36-.16.65-.37.86-.64.21-.27.37-.57.46-.91.09-.34.14-.69.14-1.05v-11.5h-3.2v11.14Zm1.54-15.8c-.53,0-.97.17-1.3.52-.33.35-.5.77-.5,1.28s.17.94.5,1.28c.33.35.77.52,1.3.52s.97-.17,1.3-.52c.33-.35.5-.77.5-1.28s-.17-.93-.5-1.28c-.33-.35-.77-.52-1.3-.52m20.19,4.59c-.63,0-1.14.15-1.52.46-.39.31-.67.73-.86,1.26v-1.64h-3.1v9.81h3.2v-6.09c.52-.64,1.42-.96,2.68-.96h.38l.08-2.72c-.13-.04-.26-.07-.39-.09-.13-.02-.28-.03-.47-.03m11.18,6.83l.08,2.72s-1.21.34-1.96.34c-1.32,0-1.83-.71-1.99-1.25-.26.36-.56.8-1.25,1.1-.53.23-1.11.35-1.73.35-.44,0-.83-.07-1.18-.22-.35-.15-.64-.35-.87-.6-.23-.25-.41-.55-.54-.89-.13-.34-.19-.7-.19-1.09,0-.91.28-1.59.85-2.05.57-.46,1.37-.73,2.41-.81.39-.03.8-.05,1.23-.06.43-.01.82-.03,1.15-.04v-.32c0-1.07-.59-1.6-1.78-1.6-.47,0-.92.05-1.35.16-.43.11-.83.25-1.19.44l-.58-2.22c.47-.27,1.02-.48,1.65-.65.63-.17,1.33-.25,2.07-.25,1.37,0,2.45.36,3.22,1.07.77.71,1.16,1.79,1.16,3.22l-.07,2.01c0,.72.23.72.85.66m-3.99-.74c-.32.03-.61.06-.86.09-.25.03-.5.06-.74.09-.65.08-.98.39-.98.92,0,.24.08.43.25.58.17.15.48.22.78.22.77,0,1.36-.43,1.55-.57v-1.33Zm-98.38-2.42v2.42h2.54v1.3c-.19.07-.42.12-.7.17-.28.05-.57.07-.88.07-1.42,0-2.49-.35-3.22-1.06-.73-.71-1.09-1.76-1.09-3.14,0-.79.1-1.47.31-2.03.21-.57.5-1.03.88-1.4.38-.37.84-.64,1.37-.81.53-.17,1.13-.26,1.8-.26.52,0,1.02.04,1.52.12v1.6h2.2l.32-3.5c-1.18-.54-2.63-.82-4.37-.82-1.16,0-2.2.17-3.1.51-.91.34-1.68.82-2.3,1.44-.63.62-1.11,1.37-1.43,2.24-.33.87-.49,1.85-.49,2.91,0,1,.16,1.91.49,2.73.33.82.8,1.53,1.41,2.11.61.59,1.36,1.05,2.24,1.37.88.33,1.88.49,3,.49.96,0,1.89-.09,2.77-.27.89-.18,1.62-.41,2.19-.7v-5.5h-5.48Zm84.22,3.17l.08,2.72s-1.21.34-1.96.34c-1.32,0-1.83-.71-1.98-1.25-.26.36-.56.8-1.25,1.1-.53.23-1.11.35-1.73.35-.44,0-.83-.07-1.18-.22-.35-.15-.64-.35-.87-.6-.23-.25-.41-.55-.54-.89-.13-.34-.19-.7-.19-1.09,0-.91.28-1.59.85-2.05.57-.46,1.37-.73,2.41-.81.39-.03.8-.05,1.23-.06.43-.01.82-.03,1.15-.04v-.32c0-1.07-.59-1.6-1.78-1.6-.47,0-.92.05-1.35.16-.43.11-.83.25-1.19.44l-.58-2.22c.47-.27,1.02-.48,1.65-.65.63-.17,1.33-.25,2.07-.25,1.38,0,2.45.36,3.22,1.07.77.71,1.16,1.79,1.16,3.22l-.07,2.01c0,.72.23.72.85.66m-3.99-.74c-.32.03-.61.06-.86.09-.25.03-.5.06-.74.09-.65.08-.98.39-.98.92,0,.24.08.43.25.58.17.15.48.22.78.22.77,0,1.36-.43,1.55-.57v-1.33Zm-12.34,3.52s-1.21.34-1.96.34c-1.32,0-1.83-.71-1.98-1.25-.26.36-.56.8-1.25,1.1-.53.23-1.11.35-1.73.35-.44,0-.83-.07-1.18-.22-.35-.15-.64-.35-.87-.6-.23-.25-.41-.55-.54-.89-.13-.34-.19-.7-.19-1.09,0-.91.28-1.59.85-2.05.57-.46,1.37-.73,2.41-.81.39-.03.8-.05,1.23-.06.43-.01.82-.03,1.15-.04v-.32c0-1.07-.59-1.6-1.78-1.6-.47,0-.92.05-1.35.16-.43.11-.83.25-1.19.44l-.58-2.22c.47-.27,1.02-.48,1.65-.65.63-.17,1.33-.25,2.07-.25,1.38,0,2.45.36,3.22,1.07.77.71,1.16,1.79,1.16,3.21l-.07,2.01c0,.72.23.72.85.66l.08,2.72Zm-4.07-3.47c-.32.03-.61.06-.86.09-.25.03-.5.06-.74.09-.65.08-.98.39-.98.92,0,.24.08.43.25.58.17.15.48.22.78.22.77,0,1.36-.43,1.55-.57v-1.33Zm-13.17.74l.08,2.72s-1.21.34-1.96.34c-1.32,0-1.83-.71-1.99-1.25-.26.36-.56.8-1.25,1.1-.53.23-1.1.35-1.73.35-.44,0-.83-.07-1.18-.22-.35-.15-.64-.35-.87-.6-.23-.25-.41-.55-.54-.89-.13-.34-.19-.7-.19-1.09,0-.91.28-1.59.85-2.05.57-.46,1.37-.73,2.41-.81.39-.03.8-.05,1.23-.06.43-.01.82-.03,1.15-.04v-.32c0-1.07-.59-1.6-1.78-1.6-.47,0-.92.05-1.35.16-.43.11-.83.25-1.19.44l-.58-2.22c.47-.27,1.02-.48,1.65-.65.63-.17,1.33-.25,2.07-.25,1.38,0,2.45.36,3.23,1.07.77.71,1.16,1.79,1.16,3.21l-.07,2.01c0,.72.23.72.85.66m-3.99-.74c-.32.03-.61.06-.86.09-.25.03-.5.06-.74.09-.65.08-.98.39-.98.92,0,.24.08.43.25.58.17.15.48.22.78.22.77,0,1.36-.43,1.55-.57v-1.33Zm-18.24.74l.08,2.72s-1.21.34-1.96.34c-1.32,0-1.83-.71-1.98-1.25-.26.36-.56.8-1.25,1.1-.53.23-1.11.35-1.73.35-.44,0-.84-.07-1.18-.22-.35-.15-.64-.35-.87-.6-.23-.25-.41-.55-.54-.89-.13-.34-.19-.7-.19-1.09,0-.91.28-1.59.85-2.05.57-.46,1.37-.73,2.41-.81.39-.03.8-.05,1.23-.06.43-.01.82-.03,1.15-.04v-.32c0-1.07-.59-1.6-1.78-1.6-.47,0-.92.05-1.35.16-.43.11-.83.25-1.19.44l-.58-2.22c.47-.27,1.02-.48,1.65-.65.63-.17,1.33-.25,2.07-.25,1.38,0,2.45.36,3.22,1.07.77.71,1.16,1.79,1.16,3.21l-.07,2.01c0,.72.23.72.85.66m-3.99-.74c-.32.03-.61.06-.86.09-.25.03-.5.06-.74.09-.65.08-.98.39-.98.92,0,.24.08.43.25.58.17.15.48.22.78.22.77,0,1.36-.43,1.55-.57v-1.33Zm15.79.7l.08,2.72s-1.21.34-1.96.34c-1.32,0-1.83-.71-1.99-1.25h-.05c-.31.45-.7.8-1.19,1.05-.49.26-1.07.39-1.75.39-.55,0-1.06-.12-1.54-.35-.48-.23-.9-.57-1.25-1-.35-.43-.63-.96-.83-1.57-.2-.61-.3-1.3-.3-2.06,0-.85.14-1.61.41-2.26.27-.65.64-1.2,1.1-1.64.46-.44,1-.77,1.61-.99.61-.22,1.27-.33,1.96-.33.35,0,.65.02.92.07.27.05.51.1.72.17v-4.37h3.2v10.43h0c0,.72.23.72.85.66m-4.05-4.39c-.29-.11-.67-.16-1.14-.16-.8,0-1.4.25-1.79.74-.39.5-.59,1.17-.59,2.03,0,.76.15,1.39.45,1.87.3.48.78.72,1.43.72s1.23-.23,1.64-.68v-4.52Zm-19.21,3.74v-6.1h-3.21v6.73c-.15.21-.34.39-.59.54-.25.15-.54.22-.87.22-.52,0-.89-.19-1.12-.57-.23-.38-.34-.98-.34-1.79v-5.13h-3.2v5.07c0,.65.06,1.28.18,1.87.12.59.32,1.12.59,1.57.27.45.63.82,1.08,1.09.45.27,1,.41,1.65.41.52,0,1.01-.11,1.48-.32.47-.21.89-.6,1.26-1.16.16.54.73,1.29,2.05,1.29.75,0,1.96-.34,1.96-.34l-.08-2.72c-.62.06-.85.06-.85-.66"/>
    </clipPath>
    <linearGradient id="Degradado_sin_nombre_224" data-name="Degradado sin nombre 224" x1="-4106.12" y1="1740.92" x2="-4105.73" y2="1740.92" gradientTransform="translate(-558720.83 -236915.53) rotate(180) scale(136.11 -136.11)" gradientUnits="userSpaceOnUse">
      <stop offset="0" stop-color="#fff"/>
      <stop offset="1" stop-color="#000"/>
    </linearGradient>
    <mask id="mask" x="90.13" y="7.98" width="123.64" height="81.51" maskUnits="userSpaceOnUse">
      <rect class="cls-10" x="123.62" y="-8.05" width="56.65" height="113.57" transform="translate(69.2 185.18) rotate(-76.55)"/>
    </mask>
    <linearGradient id="Degradado_sin_nombre_223" data-name="Degradado sin nombre 223" x1="-4106.12" y1="1740.92" x2="-4105.73" y2="1740.92" gradientTransform="translate(-558720.83 -236915.52) rotate(180) scale(136.11 -136.11)" gradientUnits="userSpaceOnUse">
      <stop offset="0" stop-color="#fff6c5"/>
      <stop offset=".4" stop-color="#d3bb8e"/>
      <stop offset="1" stop-color="#8c5d35"/>
    </linearGradient>
    <clipPath id="clippath-4">
      <rect class="cls-1" x="4.52" y="2.1" width="81.38" height="76.3"/>
    </clipPath>
    <clipPath id="clippath-5">
      <path class="cls-1" d="m32.56,69.42c0,1.3,1.06,2.36,2.36,2.36h4.91c1.76,0,3.51.42,5.05,1.22l.33.17.33-.17c1.54-.8,3.29-1.22,5.05-1.22h4.91c1.3,0,2.36-1.06,2.36-2.36v-29.49h-25.3v29.49Zm1.42-28.07h22.46v28.07c0,.52-.42.94-.94.94h-4.91c-1.86,0-3.71.42-5.37,1.22-1.66-.8-3.51-1.22-5.37-1.22h-4.91c-.52,0-.94-.42-.94-.94v-28.07ZM46.63,4.91h-2.84l1.42-2.82,1.42,2.82Zm-1.03,5.29h1.52v.78h-1.52v1.52h-.78v-1.52h-1.52v-.78h1.52v-1.52h.78v1.52Zm-1.89-.81h-.42v-.29h.42v-.42h.29v.42h.42v.29h-.42v.42h-.29v-.42Zm3-.29h.42v.29h-.42v.42h-.29v-.42h-.42v-.29h.42v-.42h.29v.42Zm-2.7,2.7h.42v.29h-.42v.42h-.29v-.42h-.42v-.29h.42v-.42h.29v.42Zm2.7,0h.42v.29h-.42v.42h-.29v-.42h-.42v-.29h.42v-.42h.29v.42Zm-.79,15.64h-1.42v-3.08h1.42v3.08Zm2.8,0h-1.42v-3.08h1.42v3.08Zm-7.02-3.08h1.42v3.08h-1.42v-3.08Zm44.19,26.43c-.25-2.36-2.37-4.15-4.58-5.34.46-.02,1.41.31,1.73.02.33-.3.25-.85,0-1.1-3.39-3.43-6.74-2.89-9.12-2.6-1.35.16-2.41.29-3.12-.26l-.32-.23c-.63-.44-1.26-.87-1.88-1.27,4.08-1.47,7.37-6,7.37-10.6,0-4.85-4.2-10.25-10.23-10.25-6.83,0-9.9,5.15-9.9,8.8,0,5.19,4.02,6.09,5.74,6.23.48.04.86.03,1.1.02.36-.02.95-.06,1.05-.65h0c.06-.37-.18-.72-.54-.81-.35-.09-1.97-1.22-2.34-2.05.66.46,3.99,1.29,4.37.08.09-.29.01-.59-.21-.79-1.38-1.29-1.9-2.74-1.41-3.97.39-.98,1.34-1.63,2.36-1.63,3.28,0,4.78,2.61,4.78,5.03,0,3.98-3.47,6.38-9.29,6.43h-7.95c-.75-.33-4.86-2.28-4.16-5.29.11-.14.21-.29.31-.44.15-.23.29-.46.43-.7l1.35-.36,1.17-5.71-1.17-.31c-.44-2.98-2.45-4.86-5.51-5.11v-3.12h4.24v2.81h11.54l-3.18-4.2,3.18-4.2h-8.13v-2.81h-16.72v8.39h7.65v3.12c-3.06.25-5.07,2.13-5.51,5.11l-1.17.31,1.17,5.71,1.35.36c.13.24.28.47.43.7.1.15.21.3.31.44.7,3-3.41,4.96-4.16,5.29h-7.94c-5.82-.05-9.29-2.45-9.29-6.43,0-2.42,1.5-5.03,4.78-5.03,1.03,0,1.98.66,2.36,1.63.48,1.23-.03,2.68-1.41,3.97-.22.2-.29.5-.21.79.38,1.21,3.7.39,4.37-.08-.37.83-1.99,1.96-2.34,2.05-.36.09-.59.44-.54.81h0c.1.59.69.63,1.05.65.24.02.62.02,1.1-.02,1.73-.14,5.74-1.04,5.74-6.23,0-3.65-3.07-8.8-9.9-8.8-6.03,0-10.23,5.4-10.23,10.25,0,4.6,3.28,9.13,7.37,10.6-.63.4-1.26.82-1.88,1.27l-.32.23c-.71.55-1.78.42-3.12.26-2.38-.29-5.73-.84-9.12,2.6-.25.25-.33.8,0,1.1.32.29,1.27-.04,1.73-.02-2.21,1.2-4.34,2.99-4.58,5.34-.05.25.04.5.24.66l.04.03c.39.3.69.13,1.42-.26.96-.52,3.56-1.93,5.27-1.94l-.83,1.32c-1.43,2.33-2.15,4.61-2.15,6.78,0,2.88,1.07,5.48,3,7.32,1.85,1.76,4.35,2.73,7.05,2.73,3.03,0,5.79-.9,7.79-2.53.85-.7,1.55-1.52,2.1-2.45v7.94c0,3.03,2.46,5.5,5.5,5.5h5.87c1.84,0,3.57.72,4.88,2.02l.5.5.5-.5c1.3-1.3,3.03-2.02,4.87-2.02h5.87c3.03,0,5.5-2.47,5.5-5.5v-7.94c.55.93,1.25,1.75,2.1,2.45,1.99,1.63,4.76,2.53,7.79,2.53,2.7,0,5.2-.97,7.05-2.73,1.93-1.84,3-4.44,3-7.32,0-2.17-.72-4.45-2.15-6.78l-.83-1.32c1.71,0,4.31,1.42,5.27,1.94.73.4,1.03.56,1.42.26l.04-.03c.2-.15.29-.41.24-.66m-16.91-15.45c2.08-1.38,3.17-3.43,3.17-5.94,0-3.21-2.13-6.45-6.2-6.45-1.61,0-3.09,1.02-3.69,2.53-.3.77-.73,2.85,1.38,4.88-3.54.17-4.04-3.12-4.04-3.12,0,0-1.12,2.43,1.35,5.43-.72-.14-1.53-.42-2.2-.97-1-.81-1.51-2.08-1.51-3.75,0-2.41,2.07-7.38,8.48-7.38,5.19,0,8.81,4.65,8.81,8.83,0,4.48-3.54,8.89-7.62,9.58-1.35-.78-2.62-1.41-3.66-1.82,2.29-.22,4.25-.84,5.72-1.82m-.66,16.94l-.02-.03c-.13-.16-.32-.26-.53-.26-.56-.03-1.27.26-1.9.62.49-1.29,1.39-2.58,1.86-3.25.43-.62.62-.9.41-1.31h0c-.13-.24-.37-.39-.63-.39-2.28,0-4.27,1.38-5.53,3.55v-9.13c1.44.6,4.52,2.46,7.71,5.18,4.45,3.79,7.01,7.48,7.01,10.12,0,2.98-1.85,4.83-4.83,4.83-2.61,0-4.5-1.54-4.5-3.67,0-1.83.59-3.83.9-4.9.23-.8.3-1.04.07-1.35m-14.74-41.65h5.27l-2.11,2.78,2.11,2.78h-7.26v-1.39h1.99v-4.16Zm-15.3-2.81h13.88v5.55h-13.88v-5.55Zm6.94,11.48c2.46,0,4.13,1.21,4.68,3.31l-4.68-1.26-4.68,1.26c.56-2.1,2.22-3.31,4.68-3.31m-5,8.6l-.73-3.54,5.73-1.54,5.73,1.54-.73,3.54-5,1.34-5-1.34Zm7.78,2.07c-.85,1.05-1.85,1.74-2.78,1.74s-1.93-.69-2.78-1.74l2.78.75,2.78-.75Zm-7.72,5.48c1.26-1.04,2.01-2.18,2.24-3.39.87.7,1.8,1.08,2.7,1.08s1.83-.38,2.7-1.08c.23,1.21.98,2.35,2.24,3.39.27.22.54.42.81.6-1.05.2-1.92.5-2.72.78-1.04.36-1.95.68-3.04.68s-1.99-.31-3.04-.68c-.8-.28-1.67-.58-2.72-.78.27-.18.54-.38.81-.6m-17.57,13.91c.46.67,1.36,1.97,1.85,3.25-.63-.36-1.34-.65-1.9-.62-.21,0-.4.1-.53.26l-.02.03c-.24.32-.17.56.07,1.35.32,1.07.9,3.07.9,4.9,0,2.13-1.89,3.67-4.5,3.67-2.98,0-4.83-1.85-4.83-4.83,0-2.64,2.55-6.32,7.01-10.12,3.19-2.72,6.28-4.58,7.71-5.18v9.14c-1.26-2.17-3.25-3.55-5.53-3.55-.26,0-.51.15-.63.38h0c-.22.42-.02.7.41,1.32m-6.81-19.95c0-4.18,3.62-8.83,8.81-8.83,6.41,0,8.48,4.97,8.48,7.38,0,1.67-.51,2.93-1.51,3.75-.67.55-1.48.83-2.2.97,2.48-3,1.35-5.43,1.35-5.43,0,0-.51,3.29-4.04,3.12,2.1-2.03,1.68-4.11,1.38-4.88-.6-1.52-2.08-2.53-3.69-2.53-4.07,0-6.2,3.24-6.2,6.45,0,2.51,1.1,4.56,3.17,5.94,1.48.98,3.43,1.6,5.72,1.82-1.04.41-2.3,1.04-3.66,1.82-4.09-.69-7.62-5.1-7.62-9.58m2.69,36.6c-4.29,0-8.63-2.96-8.63-8.63,0-1.9.65-3.93,1.93-6.03l1.53-2.43-.09-.32c-.06-.2-.2-.37-.39-.45-1.7-.78-4.16.16-6.48,1.36,2.68-3.5,7.06-4.84,7.06-4.84,0,0-1.2-.57-4.1-.24,2.7-1.84,5.14-1.46,6.93-1.24,1.53.19,2.98.36,4.15-.54l.29-.21c3.27-2.32,6.24-3.78,7.69-4.23v2.37c-1.83.57-5.47,2.9-8.63,5.6-6.53,5.56-7.51,9.4-7.51,11.2,0,3.8,2.45,6.25,6.25,6.25,3.43,0,5.92-2.14,5.92-5.09,0-1.75-.47-3.58-.81-4.78,1.73.38,2.83,2.23,2.83,2.23,0,0,.52-3.2-2.11-6.64,2.36.88,4.06,3.85,4.06,7.48,0,6.78-5.33,9.18-9.89,9.18m41.95,4.38c0,2.25-1.83,4.07-4.08,4.07h-5.87c-1.99,0-3.88.7-5.38,1.97-1.5-1.28-3.39-1.97-5.38-1.97h-5.87c-2.25,0-4.08-1.83-4.08-4.07v-33.13h7.22c1.99,0,3.32.47,4.6.91,1.12.39,2.17.76,3.5.76s2.39-.37,3.5-.76c1.28-.45,2.61-.91,4.6-.91h7.22v19.55s0,0,0,0c0,0,0,0,0,0v13.56Zm16.95-22.25c-.19.09-.33.25-.39.45l-.09.32,1.53,2.43c1.28,2.1,1.93,4.13,1.93,6.03,0,5.67-4.34,8.63-8.63,8.63-4.56,0-9.88-2.4-9.89-9.17v-.02c0-3.62,1.7-6.58,4.06-7.46-2.63,3.44-2.11,6.64-2.11,6.64,0,0,1.1-1.85,2.83-2.23-.34,1.2-.81,3.02-.81,4.78,0,2.95,2.49,5.09,5.92,5.09,3.8,0,6.25-2.45,6.25-6.25,0-1.79-.98-5.64-7.51-11.2-3.16-2.69-6.8-5.02-8.63-5.6v-2.37c1.45.44,4.42,1.91,7.69,4.23l.29.21c1.17.9,2.62.72,4.15.54,1.79-.22,4.22-.59,6.93,1.24-2.9-.33-4.1.24-4.1.24,0,0,4.38,1.34,7.06,4.84-2.33-1.2-4.79-2.14-6.48-1.36m-45.65,5.26l-.3.3.3.3-.27.27-.3-.3-.3.3-.27-.27.3-.3-.3-.3.27-.27.3.3.3-.3.27.27Zm0-14.94l-.3.3.3.3-.27.27-.3-.3-.3.3-.27-.27.3-.3-.3-.3.27-.27.3.3.3-.3.27.27Zm0,29.88l-.3.3.3.3-.27.27-.3-.3-.3.3-.27-.27.3-.3-.3-.3.27-.27.3.3.3-.3.27.27Zm27.9-14.94l-.3.3.3.3-.27.27-.3-.3-.3.3-.27-.27.3-.3-.3-.3.27-.27.3.3.3-.3.27.27Zm0-14.94l-.3.3.3.3-.27.27-.3-.3-.3.3-.27-.27.3-.3-.3-.3.27-.27.3.3.3-.3.27.27Zm0,29.88l-.3.3.3.3-.27.27-.3-.3-.3.3-.27-.27.3-.3-.3-.3.27-.27.3.3.3-.3.27.27Zm-13.99,5.93l-.3.3.3.3-.27.27-.3-.3-.3.3-.27-.27.3-.3-.3-.3.27-.27.3.3.3-.3.27.27Zm-4.71-19.09c.58,0,1.13-.15,1.6-.41.5.57,1.19.97,1.96,1.1v10.33h0c-.01.21.14.43.29.59h.54c.15-.15.3-.37.29-.59h0v-10.33c.78-.13,1.47-.53,1.96-1.1.48.26,1.02.41,1.6.41,1.85,0,3.35-1.5,3.35-3.35,0-.91-.36-1.73-.95-2.34,0,0,0-.02,0-.03,0-1.85-1.5-3.35-3.35-3.35-.14,0-.27,0-.4.02-.6-.89-1.62-1.47-2.77-1.47s-2.17.58-2.77,1.47c-.13-.02-.26-.02-.4-.02-1.85,0-3.35,1.5-3.35,3.35,0,0,0,.02,0,.03-.59.6-.95,1.43-.95,2.34,0,1.85,1.5,3.35,3.35,3.35m-2.1-4.1c.33-.61,1.46-.99,2.01-.89-.64-.39-1.19-.24-1.19-.24v-.45s0-.02,0-.03c0-1.2.96-2.17,2.15-2.22.94,0,1.42.71,1.42.71,0,0-.26-.81.21-1.45.42-.44,1-.7,1.62-.7s1.2.26,1.62.7c.48.64.21,1.45.21,1.45,0,0,.48-.7,1.42-.71,1.19.04,2.15,1.02,2.15,2.22,0,.01,0,.02,0,.03v.46s-.56-.15-1.19.24c.55-.1,1.69.29,2.01.9.08.24.13.49.13.74,0,1.23-1,2.23-2.23,2.23-.38,0-.74-.09-1.07-.27l-.79-.43c-.23-.14-.69-.19-.96-.12.26.14.47.35.61.52l-.24.27c-.43.49-1.04.77-1.68.77s-1.26-.28-1.68-.77l-.24-.27c.15-.18.35-.39.61-.52-.27-.06-.73-.02-.96.12l-.79.43c-.33.18-.69.27-1.07.27-1.23,0-2.23-1-2.23-2.23,0-.26.05-.51.13-.75m6.78,14.95v-.33s.25,0,.25,0c.48,0,.87.39.87.87v.22h-.74c-.2-.2-.39-.49-.38-.77m-1.37-.33h.25v.33c.01.28-.18.57-.38.77h-.74v-.22c0-.48.39-.87.87-.87m-.81-7.8c-.07.07-.17.14-.27.13.18.05.27.16.27.16v.22c-.07.07-.17.14-.27.13.18.05.27.16.27.16v.26c-.43,0-.36.42-.36.72-.56,0-.49.92-.43,1.55-.15-.24-.34-.41-.51-.5.05-.24-.17-.81-.29-.93.33-.12.71-.61.71-1.07,0-.64.2-1.37.88-1.06v.22Zm-1.97,7.22s-.09-.42-.38-.73c.17.11.58,0,.78-.09-.32-.25-.18-.82-.84-1.31-.14.25-.4.47-.7.56.06.21-.42.87-.26,1.11.47.16.65.83.65,1.22h.62s.11-.09.16-.27c0,.1.06.2.13.27h.22s.11-.09.16-.27c0,.1.06.2.13.27h.39c0-.48-.13-.76-1.07-.76m-6.45-6.59c.28.18.86-.1,1.21-.12.12,0,.31,0,.46.05.48.15.76.58.76,1.14,0,.35-.09.6-.2.89-.09.26-.22.72-.3,1.18-.05.27.02.56.18.75.08.1.23.22.47.22.19,0,.37-.04.5-.09.53-.4,1.12-1.08.87-1.79-.19.34-.69.36-.69.36.49-.86-.43-1.6.39-2.48-.53.19-.75.65-.75.65,0,0-.41-1.17.75-1.74-.41-.11-.84.13-.84.13,0,0,.26-1.16,1.44-.92.07-.35-.53-.35-.53-.35,0,0,1.28-.61,1.67.29.32-.02.42,0,.56.06.45.2.9.21,1.01.3.03.05.07.26,0,.27-.08,0-.24-.1-.26-.16-.08.17.18.27.25.34.07.07.02.34-.17.6-.09-.16-.3-.27-.42-.28-.17-.01-.36.06-.41.23-.06.21.06.44.3.44.33,0,.45-.12.45-.12.15.11.07.47-.17.68-.03-.05-.2-.18-.39-.19-.26-.02-.3.08-.63-.02-.32-.09-.51-.35-.63-.82.03.41.11.65.27.81.48.49,1.32.06,1.53.92-.21-.19-.53-.29-.64-.2.54.24.73.68.78,1-.2-.08-.47-.16-.69-.12.25.03.46.18.71.37.54.46.86.95.98,1.17,0-.63.2-1.28.88-.98v.22c-.07.07-.17.14-.27.13.18.05.27.16.27.16v.22c-.07.07-.17.14-.27.13.18.05.27.16.27.16v.37c-.62,0-.86.85-.86.85,0,0-.03-.15-.36-.7-.33-.55-1.09-.46-1.29-.17-.05-.21-.24-.57-.71-.83.35.46.5,1.05.5,1.05-.12.17-.41.57-.67.66-.28-.3-.7-.32-.7-.32,0,0,.39.21.5.5-.05.53-.47.89-.34,1.22-.32,0-.71-.27-.71-.44,0,0-.3.38-.36.61-.08.3.17.53.17.53.95,0,1.07.28,1.07.76h-.39c-.07-.07-.14-.17-.13-.27-.05.18-.16.27-.16.27h-.22c-.07-.07-.14-.17-.13-.27-.05.18-.16.27-.16.27h-.62c0-.24-.22-.64-.55-.64,0-.22.18-.7.41-.85-.27,0-.49-.14-.63-.44.46.02.73-.7.8-1.14-.16.04-.35.08-.56.08-.34,0-.65-.15-.87-.41-.26-.31-.37-.76-.29-1.18.09-.5.23-1,.33-1.26.1-.26.16-.46.16-.71,0-.31-.12-.52-.35-.62-.15.17-.38.29-.61.29-.49,0-.87-.32-.95-.74m5.43-1.35s.34.13.42.15c.16.03.13-.18.04-.22-.16-.08-.47.03-.46.08m6.27.72c.07.07.17.14.27.13-.18.05-.27.16-.27.16v.22c.07.07.17.14.27.13-.18.05-.27.16-.27.16v.26c.43,0,.36.42.36.72.56,0,.49.92.43,1.55.15-.24.34-.41.51-.5-.05-.24.17-.81.29-.93-.33-.12-.71-.61-.71-1.07,0-.64-.2-1.37-.88-1.06v.22Zm1.97,7.22s.09-.42.38-.73c-.17.11-.58,0-.78-.09.32-.25.18-.82.84-1.31.14.25.4.47.7.56-.06.21.42.87.26,1.11-.47.16-.65.83-.65,1.22h-.62s-.11-.09-.16-.27c0,.1-.06.2-.13.27h-.22s-.11-.09-.16-.27c0,.1-.06.2-.13.27h-.39c0-.48.13-.76,1.07-.76m6.45-6.59c-.28.18-.86-.1-1.21-.12-.12,0-.31,0-.46.05-.48.15-.76.58-.76,1.14,0,.35.09.6.2.89.09.26.22.72.3,1.18.05.27-.02.56-.18.75-.08.1-.23.22-.47.22-.19,0-.36-.04-.5-.09-.53-.4-1.12-1.08-.87-1.79.19.34.69.36.69.36-.49-.86.43-1.6-.39-2.48.53.19.75.65.75.65,0,0,.41-1.17-.75-1.74.41-.11.84.13.84.13,0,0-.25-1.16-1.44-.92-.07-.35.53-.35.53-.35,0,0-1.28-.61-1.67.29-.32-.02-.42,0-.56.06-.45.2-.9.21-1.01.3-.03.05-.07.26,0,.27.08,0,.24-.1.26-.16.08.17-.18.27-.25.34-.07.07-.02.34.17.6.09-.16.3-.27.42-.28.17-.01.36.06.41.23.06.21-.06.44-.3.44-.33,0-.45-.12-.45-.12-.15.11-.07.47.17.68.03-.05.2-.18.39-.19.26-.02.3.08.63-.02.32-.09.51-.35.63-.82-.03.41-.11.65-.27.81-.48.49-1.32.06-1.53.92.21-.19.53-.29.64-.2-.54.24-.73.68-.78,1,.2-.08.47-.16.69-.12-.24.03-.46.18-.7.37-.54.46-.86.95-.98,1.17,0-.63-.2-1.28-.88-.98v.22c.07.07.17.14.27.13-.18.05-.27.16-.27.16v.22c.07.07.17.14.27.13-.18.05-.27.16-.27.16v.37c.62,0,.86.85.86.85,0,0,.03-.15.36-.7.33-.55,1.09-.46,1.29-.17.05-.21.24-.57.71-.83-.35.46-.5,1.05-.5,1.05.12.17.41.57.67.66.29-.3.7-.32.7-.32,0,0-.39.21-.5.5.05.53.47.89.34,1.22.32,0,.71-.27.71-.44,0,0,.3.38.36.61.08.3-.17.53-.17.53-.95,0-1.07.28-1.07.76h.39c.07-.07.14-.17.13-.27.05.18.16.27.16.27h.22c.07-.07.14-.17.13-.27.05.18.16.27.16.27h.62c0-.24.22-.64.55-.64,0-.22-.18-.7-.41-.85.27,0,.49-.14.63-.44-.46.02-.73-.7-.8-1.14.16.04.35.08.56.08.34,0,.65-.15.87-.41.26-.31.37-.76.29-1.18-.09-.5-.23-1-.33-1.26-.1-.26-.17-.46-.17-.71,0-.31.12-.52.35-.62.15.17.38.29.61.29.49,0,.87-.32.95-.74m-5.43-1.35s-.34.13-.42.15c-.16.03-.13-.18-.04-.22.16-.08.47.03.46.08"/>
    </clipPath>
    <radialGradient id="Degradado_sin_nombre_92-2" data-name="Degradado sin nombre 92" cx="-4108.4" cy="1726.32" fx="-4108.4" fy="1726.32" r=".39" gradientTransform="translate(-840847.62 -353302.08) rotate(180) scale(204.68 -204.68)" xlink:href="#Degradado_sin_nombre_92"/>
    <clipPath id="clippath-6">
      <rect class="cls-1" x="4.52" y="2.1" width="81.38" height="76.3"/>
    </clipPath>
    <clipPath id="clippath-7">
      <path class="cls-1" d="m32.56,69.42c0,1.3,1.06,2.36,2.36,2.36h4.91c1.76,0,3.51.42,5.05,1.22l.33.17.33-.17c1.54-.8,3.29-1.22,5.05-1.22h4.91c1.3,0,2.36-1.06,2.36-2.36v-29.49h-25.3v29.49Zm1.42-28.07h22.46v28.07c0,.52-.42.94-.94.94h-4.91c-1.86,0-3.71.42-5.37,1.22-1.66-.8-3.51-1.22-5.37-1.22h-4.91c-.52,0-.94-.42-.94-.94v-28.07ZM46.63,4.91h-2.84l1.42-2.82,1.42,2.82Zm-1.03,5.29h1.52v.78h-1.52v1.52h-.78v-1.52h-1.52v-.78h1.52v-1.52h.78v1.52Zm-1.89-.81h-.42v-.29h.42v-.42h.29v.42h.42v.29h-.42v.42h-.29v-.42Zm3-.29h.42v.29h-.42v.42h-.29v-.42h-.42v-.29h.42v-.42h.29v.42Zm-2.7,2.7h.42v.29h-.42v.42h-.29v-.42h-.42v-.29h.42v-.42h.29v.42Zm2.7,0h.42v.29h-.42v.42h-.29v-.42h-.42v-.29h.42v-.42h.29v.42Zm-.79,15.64h-1.42v-3.08h1.42v3.08Zm2.8,0h-1.42v-3.08h1.42v3.08Zm-7.02-3.08h1.42v3.08h-1.42v-3.08Zm44.19,26.43c-.25-2.36-2.37-4.15-4.58-5.34.46-.02,1.41.31,1.73.02.33-.3.25-.85,0-1.1-3.39-3.43-6.74-2.89-9.12-2.6-1.35.16-2.41.29-3.12-.26l-.32-.23c-.63-.44-1.26-.87-1.88-1.27,4.08-1.47,7.37-6,7.37-10.6,0-4.85-4.2-10.25-10.23-10.25-6.83,0-9.9,5.15-9.9,8.8,0,5.19,4.02,6.09,5.74,6.23.48.04.86.03,1.1.02.36-.02.95-.06,1.05-.65h0c.06-.37-.18-.72-.54-.81-.35-.09-1.97-1.22-2.34-2.05.66.46,3.99,1.29,4.37.08.09-.29.01-.59-.21-.79-1.38-1.29-1.9-2.74-1.41-3.97.39-.98,1.34-1.63,2.36-1.63,3.28,0,4.78,2.61,4.78,5.03,0,3.98-3.47,6.38-9.29,6.43h-7.95c-.75-.33-4.86-2.28-4.16-5.29.11-.14.21-.29.31-.44.15-.23.29-.46.43-.7l1.35-.36,1.17-5.71-1.17-.31c-.44-2.98-2.45-4.86-5.51-5.11v-3.12h4.24v2.81h11.54l-3.18-4.2,3.18-4.2h-8.13v-2.81h-16.72v8.39h7.65v3.12c-3.06.25-5.07,2.13-5.51,5.11l-1.17.31,1.17,5.71,1.35.36c.13.24.28.47.43.7.1.15.21.3.31.44.7,3-3.41,4.96-4.16,5.29h-7.94c-5.82-.05-9.29-2.45-9.29-6.43,0-2.42,1.5-5.03,4.78-5.03,1.03,0,1.98.66,2.36,1.63.48,1.23-.03,2.68-1.41,3.97-.22.2-.29.5-.21.79.38,1.21,3.7.39,4.37-.08-.37.83-1.99,1.96-2.34,2.05-.36.09-.59.44-.54.81h0c.1.59.69.63,1.05.65.24.02.62.02,1.1-.02,1.73-.14,5.74-1.04,5.74-6.23,0-3.65-3.07-8.8-9.9-8.8-6.03,0-10.23,5.4-10.23,10.25,0,4.6,3.28,9.13,7.37,10.6-.63.4-1.26.82-1.88,1.27l-.32.23c-.71.55-1.78.42-3.12.26-2.38-.29-5.73-.84-9.12,2.6-.25.25-.33.8,0,1.1.32.29,1.27-.04,1.73-.02-2.21,1.2-4.34,2.99-4.58,5.34-.05.25.04.5.24.66l.04.03c.39.3.69.13,1.42-.26.96-.52,3.56-1.93,5.27-1.94l-.83,1.32c-1.43,2.33-2.15,4.61-2.15,6.78,0,2.88,1.07,5.48,3,7.32,1.85,1.76,4.35,2.73,7.05,2.73,3.03,0,5.79-.9,7.79-2.53.85-.7,1.55-1.52,2.1-2.45v7.94c0,3.03,2.46,5.5,5.5,5.5h5.87c1.84,0,3.57.72,4.88,2.02l.5.5.5-.5c1.3-1.3,3.03-2.02,4.87-2.02h5.87c3.03,0,5.5-2.47,5.5-5.5v-7.94c.55.93,1.25,1.75,2.1,2.45,1.99,1.63,4.76,2.53,7.79,2.53,2.7,0,5.2-.97,7.05-2.73,1.93-1.84,3-4.44,3-7.32,0-2.17-.72-4.45-2.15-6.78l-.83-1.32c1.71,0,4.31,1.42,5.27,1.94.73.4,1.03.56,1.42.26l.04-.03c.2-.15.29-.41.24-.66m-16.91-15.45c2.08-1.38,3.17-3.43,3.17-5.94,0-3.21-2.13-6.45-6.2-6.45-1.61,0-3.09,1.02-3.69,2.53-.3.77-.73,2.85,1.38,4.88-3.54.17-4.04-3.12-4.04-3.12,0,0-1.12,2.43,1.35,5.43-.72-.14-1.53-.42-2.2-.97-1-.81-1.51-2.08-1.51-3.75,0-2.41,2.07-7.38,8.48-7.38,5.19,0,8.81,4.65,8.81,8.83,0,4.48-3.54,8.89-7.62,9.58-1.35-.78-2.62-1.41-3.66-1.82,2.29-.22,4.25-.84,5.72-1.82m-.66,16.94l-.02-.03c-.13-.16-.32-.26-.53-.26-.56-.03-1.27.26-1.9.62.49-1.29,1.39-2.58,1.86-3.25.43-.62.62-.9.41-1.31h0c-.13-.24-.37-.39-.63-.39-2.28,0-4.27,1.38-5.53,3.55v-9.13c1.44.6,4.52,2.46,7.71,5.18,4.45,3.79,7.01,7.48,7.01,10.12,0,2.98-1.85,4.83-4.83,4.83-2.61,0-4.5-1.54-4.5-3.67,0-1.83.59-3.83.9-4.9.23-.8.3-1.04.07-1.35m-14.74-41.65h5.27l-2.11,2.78,2.11,2.78h-7.26v-1.39h1.99v-4.16Zm-15.3-2.81h13.88v5.55h-13.88v-5.55Zm6.94,11.48c2.46,0,4.13,1.21,4.68,3.31l-4.68-1.26-4.68,1.26c.56-2.1,2.22-3.31,4.68-3.31m-5,8.6l-.73-3.54,5.73-1.54,5.73,1.54-.73,3.54-5,1.34-5-1.34Zm7.78,2.07c-.85,1.05-1.85,1.74-2.78,1.74s-1.93-.69-2.78-1.74l2.78.75,2.78-.75Zm-7.72,5.48c1.26-1.04,2.01-2.18,2.24-3.39.87.7,1.8,1.08,2.7,1.08s1.83-.38,2.7-1.08c.23,1.21.98,2.35,2.24,3.39.27.22.54.42.81.6-1.05.2-1.92.5-2.72.78-1.04.36-1.95.68-3.04.68s-1.99-.31-3.04-.68c-.8-.28-1.67-.58-2.72-.78.27-.18.54-.38.81-.6m-17.57,13.91c.46.67,1.36,1.97,1.85,3.25-.63-.36-1.34-.65-1.9-.62-.21,0-.4.1-.53.26l-.02.03c-.24.32-.17.56.07,1.35.32,1.07.9,3.07.9,4.9,0,2.13-1.89,3.67-4.5,3.67-2.98,0-4.83-1.85-4.83-4.83,0-2.64,2.55-6.32,7.01-10.12,3.19-2.72,6.28-4.58,7.71-5.18v9.14c-1.26-2.17-3.25-3.55-5.53-3.55-.26,0-.51.15-.63.38h0c-.22.42-.02.7.41,1.32m-6.81-19.95c0-4.18,3.62-8.83,8.81-8.83,6.41,0,8.48,4.97,8.48,7.38,0,1.67-.51,2.93-1.51,3.75-.67.55-1.48.83-2.2.97,2.48-3,1.35-5.43,1.35-5.43,0,0-.51,3.29-4.04,3.12,2.1-2.03,1.68-4.11,1.38-4.88-.6-1.52-2.08-2.53-3.69-2.53-4.07,0-6.2,3.24-6.2,6.45,0,2.51,1.1,4.56,3.17,5.94,1.48.98,3.43,1.6,5.72,1.82-1.04.41-2.3,1.04-3.66,1.82-4.09-.69-7.62-5.1-7.62-9.58m2.69,36.6c-4.29,0-8.63-2.96-8.63-8.63,0-1.9.65-3.93,1.93-6.03l1.53-2.43-.09-.32c-.06-.2-.2-.37-.39-.45-1.7-.78-4.16.16-6.48,1.36,2.68-3.5,7.06-4.84,7.06-4.84,0,0-1.2-.57-4.1-.24,2.7-1.84,5.14-1.46,6.93-1.24,1.53.19,2.98.36,4.15-.54l.29-.21c3.27-2.32,6.24-3.78,7.69-4.23v2.37c-1.83.57-5.47,2.9-8.63,5.6-6.53,5.56-7.51,9.4-7.51,11.2,0,3.8,2.45,6.25,6.25,6.25,3.43,0,5.92-2.14,5.92-5.09,0-1.75-.47-3.58-.81-4.78,1.73.38,2.83,2.23,2.83,2.23,0,0,.52-3.2-2.11-6.64,2.36.88,4.06,3.85,4.06,7.48,0,6.78-5.33,9.18-9.89,9.18m41.95,4.38c0,2.25-1.83,4.07-4.08,4.07h-5.87c-1.99,0-3.88.7-5.38,1.97-1.5-1.28-3.39-1.97-5.38-1.97h-5.87c-2.25,0-4.08-1.83-4.08-4.07v-33.13h7.22c1.99,0,3.32.47,4.6.91,1.12.39,2.17.76,3.5.76s2.39-.37,3.5-.76c1.28-.45,2.61-.91,4.6-.91h7.22v19.55s0,0,0,0c0,0,0,0,0,0v13.56Zm16.95-22.25c-.19.09-.33.25-.39.45l-.09.32,1.53,2.43c1.28,2.1,1.93,4.13,1.93,6.03,0,5.67-4.34,8.63-8.63,8.63-4.56,0-9.88-2.4-9.89-9.17v-.02c0-3.62,1.7-6.58,4.06-7.46-2.63,3.44-2.11,6.64-2.11,6.64,0,0,1.1-1.85,2.83-2.23-.34,1.2-.81,3.02-.81,4.78,0,2.95,2.49,5.09,5.92,5.09,3.8,0,6.25-2.45,6.25-6.25,0-1.79-.98-5.64-7.51-11.2-3.16-2.69-6.8-5.02-8.63-5.6v-2.37c1.45.44,4.42,1.91,7.69,4.23l.29.21c1.17.9,2.62.72,4.15.54,1.79-.22,4.22-.59,6.93,1.24-2.9-.33-4.1.24-4.1.24,0,0,4.38,1.34,7.06,4.84-2.33-1.2-4.79-2.14-6.48-1.36m-45.65,5.26l-.3.3.3.3-.27.27-.3-.3-.3.3-.27-.27.3-.3-.3-.3.27-.27.3.3.3-.3.27.27Zm0-14.94l-.3.3.3.3-.27.27-.3-.3-.3.3-.27-.27.3-.3-.3-.3.27-.27.3.3.3-.3.27.27Zm0,29.88l-.3.3.3.3-.27.27-.3-.3-.3.3-.27-.27.3-.3-.3-.3.27-.27.3.3.3-.3.27.27Zm27.9-14.94l-.3.3.3.3-.27.27-.3-.3-.3.3-.27-.27.3-.3-.3-.3.27-.27.3.3.3-.3.27.27Zm0-14.94l-.3.3.3.3-.27.27-.3-.3-.3.3-.27-.27.3-.3-.3-.3.27-.27.3.3.3-.3.27.27Zm0,29.88l-.3.3.3.3-.27.27-.3-.3-.3.3-.27-.27.3-.3-.3-.3.27-.27.3.3.3-.3.27.27Zm-13.99,5.93l-.3.3.3.3-.27.27-.3-.3-.3.3-.27-.27.3-.3-.3-.3.27-.27.3.3.3-.3.27.27Zm-4.71-19.09c.58,0,1.13-.15,1.6-.41.5.57,1.19.97,1.96,1.1v10.33h0c-.01.21.14.43.29.59h.54c.15-.15.3-.37.29-.59h0v-10.33c.78-.13,1.47-.53,1.96-1.1.48.26,1.02.41,1.6.41,1.85,0,3.35-1.5,3.35-3.35,0-.91-.36-1.73-.95-2.34,0,0,0-.02,0-.03,0-1.85-1.5-3.35-3.35-3.35-.14,0-.27,0-.4.02-.6-.89-1.62-1.47-2.77-1.47s-2.17.58-2.77,1.47c-.13-.02-.26-.02-.4-.02-1.85,0-3.35,1.5-3.35,3.35,0,0,0,.02,0,.03-.59.6-.95,1.43-.95,2.34,0,1.85,1.5,3.35,3.35,3.35m-2.1-4.1c.33-.61,1.46-.99,2.01-.89-.64-.39-1.19-.24-1.19-.24v-.45s0-.02,0-.03c0-1.2.96-2.17,2.15-2.22.94,0,1.42.71,1.42.71,0,0-.26-.81.21-1.45.42-.44,1-.7,1.62-.7s1.2.26,1.62.7c.48.64.21,1.45.21,1.45,0,0,.48-.7,1.42-.71,1.19.04,2.15,1.02,2.15,2.22,0,.01,0,.02,0,.03v.46s-.56-.15-1.19.24c.55-.1,1.69.29,2.01.9.08.24.13.49.13.74,0,1.23-1,2.23-2.23,2.23-.38,0-.74-.09-1.07-.27l-.79-.43c-.23-.14-.69-.19-.96-.12.26.14.47.35.61.52l-.24.27c-.43.49-1.04.77-1.68.77s-1.26-.28-1.68-.77l-.24-.27c.15-.18.35-.39.61-.52-.27-.06-.73-.02-.96.12l-.79.43c-.33.18-.69.27-1.07.27-1.23,0-2.23-1-2.23-2.23,0-.26.05-.51.13-.75m6.78,14.95v-.33s.25,0,.25,0c.48,0,.87.39.87.87v.22h-.74c-.2-.2-.39-.49-.38-.77m-1.37-.33h.25v.33c.01.28-.18.57-.38.77h-.74v-.22c0-.48.39-.87.87-.87m-.81-7.8c-.07.07-.17.14-.27.13.18.05.27.16.27.16v.22c-.07.07-.17.14-.27.13.18.05.27.16.27.16v.26c-.43,0-.36.42-.36.72-.56,0-.49.92-.43,1.55-.15-.24-.34-.41-.51-.5.05-.24-.17-.81-.29-.93.33-.12.71-.61.71-1.07,0-.64.2-1.37.88-1.06v.22Zm-1.97,7.22s-.09-.42-.38-.73c.17.11.58,0,.78-.09-.32-.25-.18-.82-.84-1.31-.14.25-.4.47-.7.56.06.21-.42.87-.26,1.11.47.16.65.83.65,1.22h.62s.11-.09.16-.27c0,.1.06.2.13.27h.22s.11-.09.16-.27c0,.1.06.2.13.27h.39c0-.48-.13-.76-1.07-.76m-6.45-6.59c.28.18.86-.1,1.21-.12.12,0,.31,0,.46.05.48.15.76.58.76,1.14,0,.35-.09.6-.2.89-.09.26-.22.72-.3,1.18-.05.27.02.56.18.75.08.1.23.22.47.22.19,0,.37-.04.5-.09.53-.4,1.12-1.08.87-1.79-.19.34-.69.36-.69.36.49-.86-.43-1.6.39-2.48-.53.19-.75.65-.75.65,0,0-.41-1.17.75-1.74-.41-.11-.84.13-.84.13,0,0,.26-1.16,1.44-.92.07-.35-.53-.35-.53-.35,0,0,1.28-.61,1.67.29.32-.02.42,0,.56.06.45.2.9.21,1.01.3.03.05.07.26,0,.27-.08,0-.24-.1-.26-.16-.08.17.18.27.25.34.07.07.02.34-.17.6-.09-.16-.3-.27-.42-.28-.17-.01-.36.06-.41.23-.06.21.06.44.3.44.33,0,.45-.12.45-.12.15.11.07.47-.17.68-.03-.05-.2-.18-.39-.19-.26-.02-.3.08-.63-.02-.32-.09-.51-.35-.63-.82.03.41.11.65.27.81.48.49,1.32.06,1.53.92-.21-.19-.53-.29-.64-.2.54.24.73.68.78,1-.2-.08-.47-.16-.69-.12.25.03.46.18.71.37.54.46.86.95.98,1.17,0-.63.2-1.28.88-.98v.22c-.07.07-.17.14-.27.13.18.05.27.16.27.16v.22c-.07.07-.17.14-.27.13.18.05.27.16.27.16v.37c-.62,0-.86.85-.86.85,0,0-.03-.15-.36-.7-.33-.55-1.09-.46-1.29-.17-.05-.21-.24-.57-.71-.83.35.46.5,1.05.5,1.05-.12.17-.41.57-.67.66-.28-.3-.7-.32-.7-.32,0,0,.39.21.5.5-.05.53-.47.89-.34,1.22-.32,0-.71-.27-.71-.44,0,0-.3.38-.36.61-.08.3.17.53.17.53.95,0,1.07.28,1.07.76h-.39c-.07-.07-.14-.17-.13-.27-.05.18-.16.27-.16.27h-.22c-.07-.07-.14-.17-.13-.27-.05.18-.16.27-.16.27h-.62c0-.24-.22-.64-.55-.64,0-.22.18-.7.41-.85-.27,0-.49-.14-.63-.44.46.02.73-.7.8-1.14-.16.04-.35.08-.56.08-.34,0-.65-.15-.87-.41-.26-.31-.37-.76-.29-1.18.09-.5.23-1,.33-1.26.1-.26.16-.46.16-.71,0-.31-.12-.52-.35-.62-.15.17-.38.29-.61.29-.49,0-.87-.32-.95-.74m5.43-1.35s.34.13.42.15c.16.03.13-.18.04-.22-.16-.08-.47.03-.46.08m6.27.72c.07.07.17.14.27.13-.18.05-.27.16-.27.16v.22c.07.07.17.14.27.13-.18.05-.27.16-.27.16v.26c.43,0,.36.42.36.72.56,0,.49.92.43,1.55.15-.24.34-.41.51-.5-.05-.24.17-.81.29-.93-.33-.12-.71-.61-.71-1.07,0-.64-.2-1.37-.88-1.06v.22Zm1.97,7.22s.09-.42.38-.73c-.17.11-.58,0-.78-.09.32-.25.18-.82.84-1.31.14.25.4.47.7.56-.06.21.42.87.26,1.11-.47.16-.65.83-.65,1.22h-.62s-.11-.09-.16-.27c0,.1-.06.2-.13.27h-.22s-.11-.09-.16-.27c0,.1-.06.2-.13.27h-.39c0-.48.13-.76,1.07-.76m6.45-6.59c-.28.18-.86-.1-1.21-.12-.12,0-.31,0-.46.05-.48.15-.76.58-.76,1.14,0,.35.09.6.2.89.09.26.22.72.3,1.18.05.27-.02.56-.18.75-.08.1-.23.22-.47.22-.19,0-.36-.04-.5-.09-.53-.4-1.12-1.08-.87-1.79.19.34.69.36.69.36-.49-.86.43-1.6-.39-2.48.53.19.75.65.75.65,0,0,.41-1.17-.75-1.74.41-.11.84.13.84.13,0,0-.25-1.16-1.44-.92-.07-.35.53-.35.53-.35,0,0-1.28-.61-1.67.29-.32-.02-.42,0-.56.06-.45.2-.9.21-1.01.3-.03.05-.07.26,0,.27.08,0,.24-.1.26-.16.08.17-.18.27-.25.34-.07.07-.02.34.17.6.09-.16.3-.27.42-.28.17-.01.36.06.41.23.06.21-.06.44-.3.44-.33,0-.45-.12-.45-.12-.15.11-.07.47.17.68.03-.05.2-.18.39-.19.26-.02.3.08.63-.02.32-.09.51-.35.63-.82-.03.41-.11.65-.27.81-.48.49-1.32.06-1.53.92.21-.19.53-.29.64-.2-.54.24-.73.68-.78,1,.2-.08.47-.16.69-.12-.24.03-.46.18-.7.37-.54.46-.86.95-.98,1.17,0-.63-.2-1.28-.88-.98v.22c.07.07.17.14.27.13-.18.05-.27.16-.27.16v.22c.07.07.17.14.27.13-.18.05-.27.16-.27.16v.37c.62,0,.86.85.86.85,0,0,.03-.15.36-.7.33-.55,1.09-.46,1.29-.17.05-.21.24-.57.71-.83-.35.46-.5,1.05-.5,1.05.12.17.41.57.67.66.29-.3.7-.32.7-.32,0,0-.39.21-.5.5.05.53.47.89.34,1.22.32,0,.71-.27.71-.44,0,0,.3.38.36.61.08.3-.17.53-.17.53-.95,0-1.07.28-1.07.76h.39c.07-.07.14-.17.13-.27.05.18.16.27.16.27h.22c.07-.07.14-.17.13-.27.05.18.16.27.16.27h.62c0-.24.22-.64.55-.64,0-.22-.18-.7-.41-.85.27,0,.49-.14.63-.44-.46.02-.73-.7-.8-1.14.16.04.35.08.56.08.34,0,.65-.15.87-.41.26-.31.37-.76.29-1.18-.09-.5-.23-1-.33-1.26-.1-.26-.17-.46-.17-.71,0-.31.12-.52.35-.62.15.17.38.29.61.29.49,0,.87-.32.95-.74m-5.43-1.35s-.34.13-.42.15c-.16.03-.13-.18-.04-.22.16-.08.47.03.46.08"/>
    </clipPath>
    <linearGradient id="Degradado_sin_nombre_224-2" data-name="Degradado sin nombre 224" x1="-4106.36" y1="1730.77" x2="-4105.98" y2="1730.77" gradientTransform="translate(-793218.13 -334325.92) rotate(180) scale(193.19 -193.19)" xlink:href="#Degradado_sin_nombre_224"/>
    <mask id="mask-1" x="-28.08" y="-32.66" width="146.58" height="145.82" maskUnits="userSpaceOnUse">
      <rect class="cls-38" x="-7.99" y="-13.94" width="106.4" height="108.37" transform="translate(-12.01 59.98) rotate(-60.71)"/>
    </mask>
    <linearGradient id="Degradado_sin_nombre_223-2" data-name="Degradado sin nombre 223" x1="-4106.36" y1="1730.77" x2="-4105.98" y2="1730.77" gradientTransform="translate(-793218.13 -334325.92) rotate(180) scale(193.19 -193.19)" xlink:href="#Degradado_sin_nombre_223"/>
    <clipPath id="clippath-8">
      <rect class="cls-1" x="35.12" y="33.8" width="52.22" height="6.11"/>
    </clipPath>
    <clipPath id="clippath-9">
      <path class="cls-1" d="m87.33,36.86c0,1.69-11.69,3.06-26.11,3.06s-26.11-1.37-26.11-3.06,11.69-3.05,26.11-3.05,26.11,1.37,26.11,3.05"/>
    </clipPath>
    <radialGradient id="Degradado_sin_nombre_96" data-name="Degradado sin nombre 96" cx="-4031.56" cy="1878.52" fx="-4031.56" fy="1878.52" r=".39" gradientTransform="translate(-14253.39 262571.52) rotate(90) scale(65.12 -7.62)" gradientUnits="userSpaceOnUse">
      <stop offset="0" stop-color="#ccc"/>
      <stop offset=".02" stop-color="#ccc"/>
      <stop offset=".11" stop-color="#9d9d9d"/>
      <stop offset=".2" stop-color="#737373"/>
      <stop offset=".3" stop-color="#505050"/>
      <stop offset=".4" stop-color="#323232"/>
      <stop offset=".51" stop-color="#1c1c1c"/>
      <stop offset=".63" stop-color="#0c0c0c"/>
      <stop offset=".76" stop-color="#020202"/>
      <stop offset=".94" stop-color="#000"/>
      <stop offset="1" stop-color="#000"/>
    </radialGradient>
    <mask id="mask-2" x="35.05" y="33.23" width="52.35" height="7.26" maskUnits="userSpaceOnUse">
      <rect class="cls-36" x="57.88" y="10.72" width="6.68" height="52.28" transform="translate(23.69 97.68) rotate(-89.37)"/>
    </mask>
    <radialGradient id="Degradado_sin_nombre_95" data-name="Degradado sin nombre 95" cx="-4031.56" cy="1878.52" fx="-4031.56" fy="1878.52" r=".39" gradientTransform="translate(-14253.39 262571.52) rotate(90) scale(65.12 -7.62)" gradientUnits="userSpaceOnUse">
      <stop offset="0" stop-color="#ffed81"/>
      <stop offset=".02" stop-color="#ffed81"/>
      <stop offset=".06" stop-color="#ffee8d"/>
      <stop offset=".17" stop-color="#fff3b0"/>
      <stop offset=".29" stop-color="#fff7cd"/>
      <stop offset=".42" stop-color="#fffbe3"/>
      <stop offset=".56" stop-color="#fffdf2"/>
      <stop offset=".72" stop-color="#fffefc"/>
      <stop offset=".94" stop-color="#fff"/>
      <stop offset="1" stop-color="#fff"/>
    </radialGradient>
    <clipPath id="clippath-10">
      <rect class="cls-1" x="57.73" y="10.75" width="6.99" height="52.22"/>
    </clipPath>
    <clipPath id="clippath-11">
      <path class="cls-1" d="m61.23,62.97c-1.93,0-3.49-11.69-3.49-26.11s1.56-26.11,3.49-26.11,3.49,11.69,3.49,26.11-1.56,26.11-3.49,26.11"/>
    </clipPath>
    <radialGradient id="Degradado_sin_nombre_106" data-name="Degradado sin nombre 106" cx="-4110.45" cy="2162.79" fx="-4110.45" fy="2162.79" r=".39" gradientTransform="translate(-267611.13 -18807.41) rotate(-180) scale(65.12 -8.71)" gradientUnits="userSpaceOnUse">
      <stop offset="0" stop-color="#b3b3b3"/>
      <stop offset=".05" stop-color="#9d9d9d"/>
      <stop offset=".15" stop-color="#737373"/>
      <stop offset=".25" stop-color="#4f4f4f"/>
      <stop offset=".36" stop-color="#323232"/>
      <stop offset=".48" stop-color="#1c1c1c"/>
      <stop offset=".6" stop-color="#0c0c0c"/>
      <stop offset=".75" stop-color="#020202"/>
      <stop offset=".94" stop-color="#000"/>
      <stop offset="1" stop-color="#000"/>
    </radialGradient>
    <mask id="mask-3" x="57.08" y="10.66" width="8.3" height="52.39" maskUnits="userSpaceOnUse">
      <rect class="cls-7" x="35.07" y="33.04" width="52.3" height="7.64" transform="translate(23.6 97.62) rotate(-89.28)"/>
    </mask>
    <radialGradient id="Degradado_sin_nombre_105" data-name="Degradado sin nombre 105" cx="-4110.45" cy="2162.79" fx="-4110.45" fy="2162.79" r=".39" gradientTransform="translate(-267611.13 -18807.41) rotate(-180) scale(65.12 -8.71)" gradientUnits="userSpaceOnUse">
      <stop offset="0" stop-color="#fff"/>
      <stop offset=".94" stop-color="#fff"/>
      <stop offset="1" stop-color="#fff"/>
    </radialGradient>
    <clipPath id="clippath-12">
      <rect class="cls-1" x="47.11" y="25.4" width="28.23" height="22.93"/>
    </clipPath>
    <clipPath id="clippath-13">
      <path class="cls-1" d="m75.34,36.86c0,6.33-6.32,11.46-14.12,11.46s-14.12-5.13-14.12-11.46,6.32-11.46,14.12-11.46,14.12,5.13,14.12,11.46"/>
    </clipPath>
    <radialGradient id="Degradado_sin_nombre_106-2" data-name="Degradado sin nombre 106" cx="-3983.28" cy="1768.16" fx="-3983.28" fy="1768.16" r=".39" gradientTransform="translate(-50494.95 140281.1) rotate(90) scale(35.21 -28.59)" xlink:href="#Degradado_sin_nombre_106"/>
    <mask id="mask-4" x="45.37" y="23.26" width="31.71" height="27.21" maskUnits="userSpaceOnUse">
      <rect class="cls-43" x="48.72" y="21.91" width="25.01" height="29.89" transform="translate(19.81 95.1) rotate(-85.64)"/>
    </mask>
    <radialGradient id="Degradado_sin_nombre_105-2" data-name="Degradado sin nombre 105" cx="-3983.28" cy="1768.16" fx="-3983.28" fy="1768.16" r=".39" gradientTransform="translate(-50494.95 140281.1) rotate(90) scale(35.21 -28.59)" xlink:href="#Degradado_sin_nombre_105"/>
    <clipPath id="clippath-14">
      <rect class="cls-1" x="19.99" y="43.65" width="18.03" height="6.11"/>
    </clipPath>
    <clipPath id="clippath-15">
      <path class="cls-1" d="m38.02,46.71c0,1.69-4.04,3.06-9.02,3.06s-9.02-1.37-9.02-3.06,4.04-3.05,9.02-3.05,9.02,1.37,9.02,3.05"/>
    </clipPath>
    <radialGradient id="Degradado_sin_nombre_102" data-name="Degradado sin nombre 102" cx="-3917.15" cy="1891.4" fx="-3917.15" fy="1891.4" r=".39" gradientTransform="translate(-14383.69 88145.2) rotate(90) scale(22.49 -7.62)" gradientUnits="userSpaceOnUse">
      <stop offset="0" stop-color="gray"/>
      <stop offset=".03" stop-color="gray"/>
      <stop offset=".06" stop-color="#737373"/>
      <stop offset=".18" stop-color="#4f4f4f"/>
      <stop offset=".3" stop-color="#323232"/>
      <stop offset=".43" stop-color="#1c1c1c"/>
      <stop offset=".57" stop-color="#0c0c0c"/>
      <stop offset=".73" stop-color="#020202"/>
      <stop offset=".94" stop-color="#000"/>
      <stop offset="1" stop-color="#000"/>
    </radialGradient>
    <mask id="mask-5" x="19.79" y="43.08" width="18.42" height="7.26" maskUnits="userSpaceOnUse">
      <rect class="cls-6" x="25.66" y="37.6" width="6.68" height="18.22" transform="translate(-18.6 74.21) rotate(-88.18)"/>
    </mask>
    <radialGradient id="Degradado_sin_nombre_101" data-name="Degradado sin nombre 101" cx="-3917.15" cy="1891.4" fx="-3917.15" fy="1891.4" r=".39" gradientTransform="translate(-14383.69 88145.2) rotate(90) scale(22.49 -7.62)" gradientUnits="userSpaceOnUse">
      <stop offset="0" stop-color="#ffed81"/>
      <stop offset=".03" stop-color="#ffed81"/>
      <stop offset=".06" stop-color="#ffee8d"/>
      <stop offset=".17" stop-color="#fff3b0"/>
      <stop offset=".29" stop-color="#fff7cd"/>
      <stop offset=".42" stop-color="#fffbe3"/>
      <stop offset=".56" stop-color="#fffdf2"/>
      <stop offset=".72" stop-color="#fffefc"/>
      <stop offset=".94" stop-color="#fff"/>
      <stop offset="1" stop-color="#fff"/>
    </radialGradient>
    <clipPath id="clippath-16">
      <rect class="cls-1" x="24.97" y="20.6" width="6.99" height="52.22"/>
    </clipPath>
    <clipPath id="clippath-17">
      <path class="cls-1" d="m28.47,72.82c-1.93,0-3.49-11.69-3.49-26.11s1.56-26.11,3.49-26.11,3.49,11.69,3.49,26.11-1.56,26.11-3.49,26.11"/>
    </clipPath>
    <radialGradient id="Degradado_sin_nombre_106-3" data-name="Degradado sin nombre 106" cx="-4110.7" cy="2168.58" fx="-4110.7" fy="2168.58" r=".39" gradientTransform="translate(-267660.17 -18848.03) rotate(-180) scale(65.12 -8.71)" xlink:href="#Degradado_sin_nombre_106"/>
    <mask id="mask-6" x="24.32" y="20.51" width="8.3" height="52.39" maskUnits="userSpaceOnUse">
      <rect class="cls-42" x="2.32" y="42.89" width="52.3" height="7.64" transform="translate(-18.6 74.59) rotate(-89.28)"/>
    </mask>
    <radialGradient id="Degradado_sin_nombre_105-3" data-name="Degradado sin nombre 105" cx="-4110.7" cy="2168.58" fx="-4110.7" fy="2168.58" r=".39" gradientTransform="translate(-267660.17 -18848.03) rotate(-180) scale(65.12 -8.71)" xlink:href="#Degradado_sin_nombre_105"/>
    <clipPath id="clippath-18">
      <rect class="cls-1" x="14.89" y="35.24" width="28.23" height="22.93"/>
    </clipPath>
    <clipPath id="clippath-19">
      <path class="cls-1" d="m43.12,46.71c0,6.33-6.32,11.46-14.12,11.46s-14.12-5.13-14.12-11.46,6.32-11.46,14.12-11.46,14.12,5.13,14.12,11.46"/>
    </clipPath>
    <radialGradient id="Degradado_sin_nombre_106-4" data-name="Degradado sin nombre 106" cx="-3981.86" cy="1768.85" fx="-3981.86" fy="1768.85" r=".39" gradientTransform="translate(-50546.73 140241.06) rotate(90) scale(35.21 -28.59)" xlink:href="#Degradado_sin_nombre_106"/>
    <mask id="mask-7" x="13.15" y="33.1" width="31.71" height="27.21" maskUnits="userSpaceOnUse">
      <rect class="cls-41" x="16.5" y="31.76" width="25.01" height="29.89" transform="translate(-19.78 72.07) rotate(-85.64)"/>
    </mask>
    <radialGradient id="Degradado_sin_nombre_105-4" data-name="Degradado sin nombre 105" cx="-3981.86" cy="1768.85" fx="-3981.86" fy="1768.85" r=".39" gradientTransform="translate(-50546.73 140241.06) rotate(90) scale(35.21 -28.59)" xlink:href="#Degradado_sin_nombre_105"/>
    <clipPath id="clippath-20">
      <rect class="cls-1" x="238.65" y="4.94" width="56.48" height="71.76"/>
    </clipPath>
    <clipPath id="clippath-21">
      <path class="cls-1" d="m292.85,4.94h-51.93c-1.26,0-2.28,1.02-2.28,2.28v55.67c0,5.23,4.24,9.48,9.48,9.48h9.79c2.97,0,5.82,1.18,7.93,3.28l1.05,1.05,1.05-1.05c2.1-2.1,4.95-3.28,7.92-3.28h9.79c5.23,0,9.47-4.24,9.47-9.47V7.22c0-1.26-1.02-2.28-2.28-2.28m-11.52,21.66c0-3.35,1.05-7.2,4.64-5.59v1.15c-.37.37-.91.73-1.43.71.96.27,1.43.84,1.43.84v1.18c-.37.37-.91.73-1.43.71.96.27,1.43.84,1.43.84v1.36c-2.24,0-1.89,2.24-1.89,3.82-2.97,0-2.56,4.85-2.25,8.16-.77-1.26-1.82-2.17-2.7-2.65.25-1.28-.9-4.27-1.55-4.89,1.76-.64,3.76-3.24,3.76-5.63m-2.18,37.64c-.37-.37-.73-.91-.71-1.43-.27.96-.84,1.43-.84,1.43h-1.18c-.37-.37-.73-.91-.71-1.43-.27.96-.84,1.43-.84,1.43h-3.27c0-2.03-.93-5.59-3.41-6.42-.83-1.29,1.69-4.76,1.39-5.85,1.61-.45,2.95-1.61,3.7-2.93,3.46,2.6,2.75,5.61,4.42,6.91-1.05.48-3.21,1.05-4.11.45,1.5,1.59,1.98,3.83,1.98,3.83,4.99,0,5.65,1.46,5.65,4.01h-2.07Zm8.18-24.47c-.37.37-.91.74-1.43.71.96.27,1.43.84,1.43.84v1.18c-.37.37-.91.73-1.43.71.96.27,1.43.84,1.43.84v1.94c-3.28,0-4.55,4.5-4.55,4.5,0,0-.15-.77-1.9-3.68-1.74-2.91-5.72-2.4-6.8-.92-.24-1.11-1.28-2.99-3.75-4.35,1.85,2.42,2.63,5.51,2.63,5.51-.66.92-2.16,3.02-3.53,3.46-1.5-1.58-3.68-1.69-3.68-1.69,0,0,2.06,1.11,2.66,2.64-.24,2.77-2.48,4.71-1.77,6.44-1.71,0-3.74-1.42-3.74-2.3,0,0-1.58,2-1.9,3.24-.4,1.55.9,2.77.9,2.77,4.99,0,5.65,1.46,5.65,4.01h-2.07c-.37-.37-.73-.91-.71-1.43-.27.96-.84,1.43-.84,1.43h-1.18c-.37-.37-.73-.91-.71-1.43-.27.96-.84,1.43-.84,1.43h-3.27c0-1.28-1.14-3.36-2.91-3.36,0-1.15.94-3.7,2.16-4.47-1.43,0-2.58-.72-3.34-2.31,2.43.09,3.83-3.69,4.22-6-.85.23-1.86.42-2.93.42-1.81,0-3.44-.77-4.61-2.16-1.37-1.65-1.95-3.98-1.54-6.24.48-2.63,1.22-5.27,1.72-6.67.51-1.39.87-2.4.87-3.74,0-1.61-.64-2.76-1.82-3.26-.79.88-2,1.55-3.22,1.55-2.56,0-4.58-1.67-5-3.92,1.48.95,4.53-.52,6.38-.66.61-.05,1.64.02,2.44.27,2.52.81,4.02,3.06,4.02,6.01,0,1.83-.48,3.15-1.04,4.69-.49,1.36-1.17,3.82-1.6,6.22-.26,1.43.09,2.95.93,3.95.44.52,1.22,1.15,2.46,1.15.99,0,1.92-.22,2.64-.46,2.78-2.11,5.91-5.68,4.58-9.45-1.01,1.8-3.61,1.88-3.61,1.88,2.57-4.55-2.25-8.44,2.04-13.07-2.81,1.01-3.97,3.44-3.97,3.44,0,0-2.15-6.14,3.97-9.15-2.14-.57-4.42.67-4.42.67,0,0,1.34-6.12,7.57-4.87.38-1.8-2.66-1.83-2.81-1.83.2-.09,6.77-3.13,8.8,1.54,1.66-.09,2.22,0,2.93.32,2.39,1.07,4.75,1.1,5.34,1.56.17.24.36,1.39-.04,1.41-.4.02-1.27-.51-1.39-.82-.45.9.95,1.4,1.31,1.77.36.36.1,1.79-.89,3.18-.48-.87-1.6-1.43-2.21-1.47-.87-.06-1.9.3-2.17,1.24-.31,1.08.32,2.33,1.57,2.33,1.72,0,2.37-.61,2.37-.61.81.59.35,2.5-.88,3.61-.16-.25-1.04-.93-2.06-1.02-1.36-.11-1.58.41-3.31-.09-1.69-.49-2.69-1.83-3.33-4.32.15,2.18.6,3.43,1.4,4.26,2.5,2.6,6.94.31,8.06,4.87-1.09-1-2.77-1.51-3.35-1.06,2.82,1.27,3.82,3.56,4.12,5.29-1.07-.45-2.46-.86-3.61-.64,1.29.18,2.44.96,3.72,1.96,2.86,2.42,4.53,5.01,5.18,6.19,0-3.34,1.05-6.76,4.64-5.15v1.15Z"/>
    </clipPath>
    <linearGradient id="Degradado_sin_nombre_224-3" data-name="Degradado sin nombre 224" x1="-4106.21" y1="1729.28" x2="-4105.7" y2="1729.28" gradientTransform="translate(-769793.75 -324283.56) rotate(-180) scale(187.55 -187.55)" xlink:href="#Degradado_sin_nombre_224"/>
    <mask id="mask-8" x="207.53" y="-19.55" width="118.72" height="120.75" maskUnits="userSpaceOnUse">
      <rect class="cls-37" x="221.69" y="-1.6" width="90.41" height="84.84" transform="translate(97.84 251.34) rotate(-59.93)"/>
    </mask>
    <linearGradient id="Degradado_sin_nombre_223-3" data-name="Degradado sin nombre 223" x1="-4106.21" y1="1729.28" x2="-4105.7" y2="1729.28" gradientTransform="translate(-769793.7 -324283.44) rotate(180) scale(187.55 -187.55)" xlink:href="#Degradado_sin_nombre_223"/>
  </defs>
  <g class="cls-47">
    <g id="Capa_1" data-name="Capa 1">
      <g>
        <path class="cls-4" d="m99.47,36.33c-.15.41-.22.88-.22,1.42,0,1,.26,1.76.77,2.27.51.51,1.28.77,2.31.77.21,0,.43-.02.64-.05.22-.03.41-.07.59-.13v-2.61h1.67v3.6c-.42.18-.9.32-1.46.42-.56.11-1.12.16-1.68.16-.73,0-1.39-.11-1.97-.32-.58-.22-1.07-.52-1.48-.91-.41-.39-.72-.86-.93-1.4-.21-.54-.32-1.15-.32-1.81,0-.7.11-1.34.32-1.91.22-.58.53-1.07.95-1.48.42-.41.92-.73,1.51-.95.59-.23,1.27-.34,2.03-.34.53,0,1.02.04,1.48.12.46.08.91.22,1.34.42l-.27,1.44c-.39-.16-.78-.28-1.17-.37-.39-.09-.8-.13-1.25-.13-.48,0-.91.07-1.29.2-.38.13-.7.33-.97.6-.27.27-.48.6-.62,1.01m7.88,4.87c-.28-.3-.5-.66-.64-1.07-.15-.41-.22-.84-.22-1.31s.07-.91.22-1.31c.15-.41.36-.76.64-1.07.28-.31.63-.55,1.04-.72.41-.18.89-.26,1.42-.26s1.01.09,1.42.26c.41.18.76.42,1.04.72.28.3.5.66.64,1.07.15.41.22.84.22,1.31s-.07.91-.22,1.31c-.15.41-.36.76-.64,1.07s-.63.54-1.04.72c-.41.17-.89.26-1.42.26s-1.01-.09-1.42-.26c-.41-.17-.76-.41-1.04-.72m.95-2.38c0,.26.03.52.08.76.05.24.14.45.26.64.12.19.27.33.46.44.19.11.43.17.71.17s.51-.06.7-.17c.19-.11.35-.26.47-.44.12-.19.21-.4.26-.64.05-.24.08-.49.08-.76s-.03-.52-.08-.76c-.05-.24-.14-.46-.26-.64-.12-.19-.28-.33-.47-.44-.19-.11-.43-.17-.7-.17s-.52.06-.71.17c-.19.11-.34.26-.46.44-.12.19-.21.4-.26.64-.05.24-.08.5-.08.76m7.94-6.14v3.43c.19-.19.43-.35.7-.48.27-.12.61-.19,1.01-.19.42,0,.81.08,1.15.25.34.16.63.39.87.68.24.29.42.64.55,1.05.13.41.19.85.19,1.33s-.07.95-.23,1.37c-.15.42-.38.78-.68,1.09-.3.3-.68.54-1.13.71-.45.17-.98.25-1.58.25-.49,0-.97-.05-1.42-.16-.45-.11-.87-.25-1.25-.42v-8.9h1.82Zm0,4.61v3.36c.11.05.23.09.38.12.15.03.31.04.49.04.32,0,.59-.05.81-.15.23-.1.41-.24.55-.43.14-.18.25-.4.31-.64.07-.25.1-.52.1-.81,0-.57-.12-1.03-.35-1.39-.23-.36-.6-.54-1.09-.54-.25,0-.47.04-.66.11-.19.08-.38.18-.54.33m7.43-4.33c-.2-.2-.45-.3-.76-.3s-.56.1-.76.3c-.19.2-.29.45-.29.74s.1.53.29.74c.19.21.45.31.76.31s.56-.1.76-.31c.2-.21.3-.45.3-.74s-.1-.54-.3-.74m-1.66,9.08h1.82v-6.45h-1.82v6.45Zm4-.78c-.29-.29-.51-.64-.66-1.05-.15-.41-.23-.86-.23-1.36s.07-.97.22-1.38c.15-.42.36-.78.63-1.07.27-.3.61-.53,1-.69.39-.16.84-.25,1.33-.25.42,0,.8.07,1.13.2.33.13.61.32.83.56.22.24.39.53.5.87.11.34.17.72.17,1.15,0,.18-.01.36-.03.54-.02.18-.06.35-.1.5h-3.83c.02.47.16.85.44,1.13.27.28.71.42,1.31.42.34,0,.68-.03,1.01-.1.33-.06.62-.16.87-.28l.23,1.23c-.32.16-.68.28-1.09.36-.41.08-.83.13-1.26.13-.54,0-1.02-.08-1.43-.24-.42-.16-.77-.38-1.05-.68m.99-3.21h2.21c.04-.41-.02-.75-.19-1-.17-.25-.44-.38-.82-.38s-.66.13-.85.39c-.2.26-.32.59-.35.99m7.61-2.21c-.27.21-.47.51-.59.89v-1.14h-1.75v6.45h1.82v-4.08c.18-.26.42-.47.72-.61.3-.14.68-.21,1.13-.21h.3v-1.55c-.16-.04-.34-.07-.54-.07-.45,0-.81.11-1.08.32m2.68-.25v6.45h1.82v-4.52c.12-.17.28-.31.48-.44.19-.12.42-.19.69-.19.41,0,.71.15.89.45.18.3.27.74.27,1.33v3.37h1.82v-3.35c0-.42-.04-.83-.13-1.23-.09-.39-.23-.74-.41-1.03-.19-.3-.43-.53-.72-.71-.3-.18-.65-.26-1.07-.26-.39,0-.75.08-1.07.25-.33.16-.6.42-.81.76v-.87h-1.75Zm8.06,5.61c-.28-.3-.5-.66-.64-1.07-.15-.41-.22-.84-.22-1.31s.07-.91.22-1.31c.15-.41.36-.76.64-1.07.28-.31.63-.55,1.04-.72.41-.18.89-.26,1.42-.26s1.01.09,1.42.26c.41.18.76.42,1.04.72.28.3.5.66.64,1.07.15.41.22.84.22,1.31s-.07.91-.22,1.31c-.15.41-.36.76-.64,1.07-.28.3-.63.54-1.04.72-.41.17-.89.26-1.42.26s-1.01-.09-1.42-.26c-.41-.17-.76-.41-1.04-.72m.95-2.38c0,.26.03.52.08.76.05.24.14.45.26.64.12.19.27.33.46.44.19.11.43.17.71.17s.51-.06.7-.17c.19-.11.35-.26.47-.44.12-.19.21-.4.26-.64.05-.24.08-.49.08-.76s-.03-.52-.08-.76c-.05-.24-.14-.46-.26-.64-.12-.19-.28-.33-.47-.44-.19-.11-.43-.17-.7-.17s-.52.06-.71.17c-.19.11-.34.26-.46.44-.12.19-.21.4-.26.64-.05.24-.08.5-.08.76m13.11,3.22v-.83c-.21.28-.48.51-.81.7-.33.18-.72.27-1.17.27-.37,0-.71-.08-1.03-.25-.31-.16-.58-.39-.81-.68-.23-.29-.4-.64-.53-1.04-.13-.4-.19-.84-.19-1.32,0-.56.09-1.05.26-1.48.18-.43.42-.79.72-1.07.3-.29.65-.51,1.05-.66.4-.15.83-.23,1.29-.23.23,0,.44.02.63.05s.36.07.51.13v-2.94h1.82v9.35h-1.74Zm-.08-5.07c-.25-.09-.54-.13-.87-.13-.58,0-1.03.18-1.33.54-.3.36-.45.85-.45,1.49,0,.27.03.53.08.76.05.23.13.43.25.6.11.17.25.3.42.4.17.1.38.15.62.15.28,0,.53-.05.74-.17.21-.11.39-.25.55-.43v-3.21Zm8.8,2.31h-3.83c.02.47.16.85.44,1.13.27.28.71.42,1.31.42.34,0,.68-.03,1.01-.1.33-.06.62-.16.87-.28l.23,1.23c-.32.16-.68.28-1.09.36-.41.08-.83.13-1.26.13-.54,0-1.02-.08-1.43-.24-.42-.16-.77-.38-1.05-.68-.29-.29-.51-.64-.66-1.05-.15-.41-.23-.86-.23-1.36s.07-.97.22-1.38c.15-.42.36-.78.63-1.07.27-.3.61-.53,1-.69.39-.16.84-.25,1.33-.25.42,0,.8.07,1.13.2.33.13.61.32.83.56.22.24.39.53.5.87.11.34.17.72.17,1.15,0,.18-.01.36-.03.54-.02.18-.06.35-.1.5m-1.79-2.22c-.17-.25-.44-.38-.82-.38s-.66.13-.85.39c-.2.26-.32.59-.35.99h2.21c.04-.41-.02-.75-.19-1m-5.93,21.03c-.31,0-.51-.07-.62-.21-.11-.14-.16-.34-.16-.59v-11.14h-3.2v11.5c0,.36.05.71.14,1.05.09.34.25.64.46.91.21.27.5.48.86.64.36.16.81.24,1.34.24.36,0,.71-.02,1.05-.07.34-.05.64-.11.91-.19l-.1-2.2c-.27.04-.49.06-.68.06m13.1,3.53c0,.25-.05.45-.16.59-.11.14-.31.21-.62.21-.19,0-.41-.02-.68-.06l-.1,2.2c.27.08.57.14.91.19.34.05.69.07,1.05.07.53,0,.98-.08,1.34-.24.36-.16.65-.37.86-.64.21-.27.37-.57.46-.91.09-.34.14-.69.14-1.05v-11.5h-3.21v11.14Zm1.54-15.8c-.53,0-.97.17-1.3.52-.33.35-.5.77-.5,1.28s.17.94.5,1.28c.33.35.77.52,1.3.52s.97-.17,1.3-.52c.33-.35.5-.77.5-1.28s-.17-.93-.5-1.28c-.33-.35-.77-.52-1.3-.52m20.19,4.59c-.63,0-1.14.15-1.52.46-.39.31-.67.73-.86,1.26v-1.64h-3.1v9.81h3.2v-6.09c.52-.64,1.42-.96,2.68-.96h.38l.08-2.72c-.13-.04-.26-.07-.39-.09-.13-.02-.28-.03-.47-.03m11.18,6.83l.08,2.72s-1.21.34-1.96.34c-1.32,0-1.83-.71-1.98-1.25-.26.36-.56.8-1.25,1.1-.53.23-1.11.35-1.73.35-.44,0-.83-.07-1.18-.22-.35-.15-.64-.35-.87-.6-.23-.25-.41-.55-.54-.89-.13-.34-.19-.7-.19-1.09,0-.91.28-1.59.85-2.05.57-.46,1.37-.73,2.41-.81.39-.03.8-.05,1.23-.06.43-.01.82-.03,1.15-.04v-.32c0-1.07-.59-1.6-1.78-1.6-.47,0-.92.05-1.35.16-.43.11-.83.25-1.19.44l-.58-2.22c.47-.27,1.02-.48,1.65-.65.63-.17,1.33-.25,2.07-.25,1.38,0,2.45.36,3.22,1.07.77.71,1.16,1.79,1.16,3.22l-.07,2.01c0,.72.23.72.85.66m-3.99-.74c-.32.03-.61.06-.86.09-.25.03-.5.06-.74.09-.65.08-.98.39-.98.92,0,.24.08.43.25.58.17.15.48.22.78.22.77,0,1.36-.43,1.55-.57v-1.33Zm-98.38-2.42v2.42h2.54v1.3c-.19.07-.42.12-.7.17-.28.05-.57.07-.88.07-1.42,0-2.49-.35-3.22-1.06-.73-.71-1.09-1.76-1.09-3.14,0-.79.1-1.47.31-2.03.21-.57.5-1.03.88-1.4.38-.37.84-.64,1.37-.81.53-.17,1.13-.26,1.8-.26.52,0,1.02.04,1.52.12v1.6h2.2l.32-3.5c-1.18-.54-2.63-.81-4.37-.81-1.16,0-2.2.17-3.1.51-.91.34-1.68.82-2.3,1.44-.63.62-1.1,1.37-1.43,2.24-.33.88-.49,1.85-.49,2.91,0,1,.16,1.91.49,2.73.33.82.8,1.53,1.41,2.11.61.59,1.36,1.05,2.24,1.37.88.33,1.88.49,3,.49.96,0,1.89-.09,2.77-.27.89-.18,1.62-.41,2.19-.7v-5.5h-5.48Zm84.22,3.17l.08,2.72s-1.21.34-1.96.34c-1.32,0-1.83-.71-1.99-1.25-.26.36-.56.8-1.25,1.1-.53.23-1.1.35-1.73.35-.44,0-.83-.07-1.18-.22-.35-.15-.64-.35-.87-.6-.23-.25-.41-.55-.54-.89-.13-.34-.19-.7-.19-1.09,0-.91.28-1.59.85-2.05.57-.46,1.37-.73,2.41-.81.39-.03.8-.05,1.23-.06.43-.01.82-.03,1.15-.04v-.32c0-1.07-.59-1.6-1.78-1.6-.47,0-.92.05-1.35.16-.43.11-.83.25-1.19.44l-.58-2.22c.47-.27,1.02-.48,1.65-.65.63-.17,1.33-.25,2.07-.25,1.38,0,2.45.36,3.23,1.07.77.71,1.16,1.79,1.16,3.22l-.07,2.01c0,.72.23.72.85.66m-3.99-.74c-.32.03-.61.06-.86.09-.25.03-.5.06-.74.09-.65.08-.98.39-.98.92,0,.24.08.43.25.58.17.15.48.22.78.22.77,0,1.36-.43,1.55-.57v-1.33Zm-12.34,3.52s-1.21.34-1.96.34c-1.32,0-1.83-.71-1.99-1.25-.26.36-.56.8-1.25,1.1-.53.23-1.1.35-1.73.35-.44,0-.84-.07-1.18-.22-.35-.15-.64-.35-.87-.6-.23-.25-.41-.55-.54-.89-.13-.34-.19-.7-.19-1.09,0-.91.28-1.59.85-2.05.57-.46,1.37-.73,2.41-.81.39-.03.8-.05,1.23-.06.43-.01.82-.03,1.15-.04v-.32c0-1.07-.59-1.6-1.78-1.6-.47,0-.92.05-1.35.16-.43.11-.83.25-1.19.44l-.58-2.22c.47-.27,1.02-.48,1.65-.65.63-.17,1.33-.25,2.07-.25,1.38,0,2.45.36,3.23,1.07.77.71,1.16,1.79,1.16,3.21l-.07,2.01c0,.72.23.72.85.66l.08,2.72Zm-4.07-3.47c-.32.03-.61.06-.86.09-.25.03-.5.06-.74.09-.65.08-.98.39-.98.92,0,.24.08.43.25.58.17.15.48.22.78.22.77,0,1.36-.43,1.55-.57v-1.33Zm-13.17.74l.08,2.72s-1.21.34-1.96.34c-1.32,0-1.83-.71-1.98-1.25-.26.36-.56.8-1.25,1.1-.53.23-1.11.35-1.73.35-.44,0-.83-.07-1.18-.22-.35-.15-.64-.35-.87-.6-.23-.25-.41-.55-.54-.89-.13-.34-.19-.7-.19-1.09,0-.91.28-1.59.85-2.05.57-.46,1.37-.73,2.41-.81.39-.03.8-.05,1.23-.06.43-.01.82-.03,1.15-.04v-.32c0-1.07-.59-1.6-1.78-1.6-.47,0-.92.05-1.35.16-.43.11-.83.25-1.19.44l-.58-2.22c.47-.27,1.02-.48,1.65-.65.63-.17,1.33-.25,2.07-.25,1.38,0,2.45.36,3.22,1.07.77.71,1.16,1.79,1.16,3.21l-.07,2.01c0,.72.23.72.85.66m-3.99-.74c-.32.03-.61.06-.86.09-.25.03-.5.06-.74.09-.65.08-.98.39-.98.92,0,.24.08.43.25.58.17.15.48.22.78.22.77,0,1.36-.43,1.55-.57v-1.33Zm-18.24.74l.08,2.72s-1.21.34-1.96.34c-1.32,0-1.83-.71-1.99-1.25-.26.36-.56.8-1.25,1.1-.53.23-1.1.35-1.73.35-.44,0-.83-.07-1.18-.22-.35-.15-.64-.35-.87-.6-.23-.25-.41-.55-.54-.89-.13-.34-.19-.7-.19-1.09,0-.91.28-1.59.85-2.05.57-.46,1.37-.73,2.41-.81.39-.03.8-.05,1.23-.06.43-.01.82-.03,1.15-.04v-.32c0-1.07-.59-1.6-1.78-1.6-.47,0-.92.05-1.35.16-.43.11-.83.25-1.19.44l-.58-2.22c.47-.27,1.02-.48,1.65-.65.63-.17,1.33-.25,2.07-.25,1.38,0,2.45.36,3.23,1.07.77.71,1.16,1.79,1.16,3.21l-.07,2.01c0,.72.23.72.85.66m-3.99-.74c-.32.03-.61.06-.86.09-.25.03-.5.06-.74.09-.65.08-.98.39-.98.92,0,.24.08.43.25.58.17.15.48.22.78.22.77,0,1.36-.43,1.55-.57v-1.33Zm15.79.7l.08,2.72s-1.21.34-1.96.34c-1.32,0-1.83-.71-1.99-1.25h-.05c-.31.45-.7.8-1.19,1.05-.49.26-1.07.39-1.75.39-.55,0-1.06-.12-1.54-.35-.48-.23-.9-.57-1.25-1-.35-.43-.63-.96-.83-1.57-.2-.61-.3-1.3-.3-2.06,0-.85.14-1.61.41-2.26.27-.65.64-1.2,1.1-1.64.46-.44,1-.77,1.61-.99.61-.22,1.27-.33,1.96-.33.35,0,.65.02.92.07.27.05.51.1.72.17v-4.37h3.21v10.43h0c0,.72.23.72.85.66m-4.05-4.39c-.29-.11-.67-.16-1.14-.16-.8,0-1.4.25-1.79.74-.39.5-.59,1.17-.59,2.03,0,.76.15,1.39.45,1.87.3.48.78.72,1.43.72s1.23-.23,1.64-.68v-4.52Zm-19.21,3.74v-6.1h-3.2v6.73c-.15.21-.34.39-.59.54-.25.15-.54.22-.87.22-.52,0-.89-.19-1.12-.57-.23-.38-.34-.98-.34-1.79v-5.13h-3.21v5.07c0,.65.06,1.28.18,1.87.12.59.32,1.12.59,1.57.27.45.63.82,1.08,1.09.45.27,1,.41,1.65.41.52,0,1.01-.11,1.48-.32.47-.21.89-.6,1.26-1.16.16.54.73,1.29,2.05,1.29.75,0,1.96-.34,1.96-.34l-.08-2.72c-.62.06-.85.06-.85-.66"/>
        <g class="cls-20">
          <g class="cls-2">
            <g class="cls-11">
              <rect class="cls-34" x="122.27" y="-8.11" width="59.34" height="113.69" transform="translate(65.48 182.85) rotate(-74.97)"/>
            </g>
          </g>
        </g>
        <g class="cls-20">
          <g class="cls-14">
            <g class="cls-13">
              <g class="cls-3">
                <rect class="cls-9" x="123.62" y="-8.05" width="56.65" height="113.57" transform="translate(69.2 185.18) rotate(-76.55)"/>
              </g>
            </g>
          </g>
        </g>
        <path class="cls-4" d="m32.56,69.42c0,1.3,1.06,2.36,2.36,2.36h4.91c1.76,0,3.51.42,5.05,1.22l.33.17.33-.17c1.54-.8,3.29-1.22,5.05-1.22h4.91c1.3,0,2.36-1.06,2.36-2.36v-29.49h-25.3v29.49Zm1.42-28.07h22.46v28.07c0,.52-.42.94-.94.94h-4.91c-1.86,0-3.71.42-5.37,1.22-1.66-.8-3.51-1.22-5.37-1.22h-4.91c-.52,0-.94-.42-.94-.94v-28.07ZM46.63,4.91h-2.84l1.42-2.82,1.42,2.82Zm-1.03,5.29h1.52v.78h-1.52v1.52h-.78v-1.52h-1.52v-.78h1.52v-1.52h.78v1.52Zm-1.89-.81h-.42v-.29h.42v-.42h.29v.42h.42v.29h-.42v.42h-.29v-.42Zm3-.29h.42v.29h-.42v.42h-.29v-.42h-.42v-.29h.42v-.42h.29v.42Zm-2.7,2.7h.42v.29h-.42v.42h-.29v-.42h-.42v-.29h.42v-.42h.29v.42Zm2.7,0h.42v.29h-.42v.42h-.29v-.42h-.42v-.29h.42v-.42h.29v.42Zm-.79,15.64h-1.42v-3.08h1.42v3.08Zm2.8,0h-1.42v-3.08h1.42v3.08Zm-7.02-3.08h1.42v3.08h-1.42v-3.08Zm44.19,26.43c-.24-2.36-2.37-4.15-4.58-5.34.46-.02,1.41.31,1.73.02.33-.3.25-.85,0-1.1-3.39-3.43-6.74-2.88-9.12-2.6-1.35.16-2.41.29-3.12-.26l-.32-.23c-.63-.44-1.26-.87-1.88-1.27,4.08-1.47,7.37-6,7.37-10.6,0-4.85-4.2-10.25-10.23-10.25-6.83,0-9.9,5.15-9.9,8.8,0,5.19,4.02,6.09,5.74,6.23.48.04.86.03,1.1.02.36-.02.95-.06,1.05-.65h0c.06-.37-.18-.72-.54-.81-.35-.09-1.97-1.22-2.34-2.05.66.46,3.99,1.29,4.37.08.09-.29.01-.59-.21-.79-1.38-1.29-1.9-2.74-1.41-3.97.39-.98,1.34-1.63,2.36-1.63,3.28,0,4.78,2.61,4.78,5.03,0,3.98-3.47,6.38-9.29,6.43h-7.95c-.75-.33-4.86-2.28-4.16-5.29.11-.14.21-.29.31-.44.15-.23.29-.46.43-.7l1.35-.36,1.17-5.71-1.17-.31c-.44-2.98-2.45-4.86-5.51-5.11v-3.12h4.24v2.81h11.54l-3.18-4.2,3.18-4.2h-8.13v-2.81h-16.72v8.39h7.65v3.12c-3.06.25-5.07,2.13-5.51,5.11l-1.17.31,1.17,5.71,1.35.36c.13.24.28.47.43.7.1.15.21.3.31.44.71,3-3.41,4.96-4.16,5.29h-7.94c-5.82-.05-9.29-2.45-9.29-6.43,0-2.42,1.5-5.03,4.78-5.03,1.03,0,1.98.66,2.36,1.63.49,1.23-.03,2.68-1.41,3.97-.22.2-.29.5-.21.79.38,1.21,3.7.38,4.37-.08-.37.83-1.99,1.96-2.34,2.05-.36.09-.59.44-.54.81h0c.1.59.69.63,1.05.65.24.02.62.02,1.1-.02,1.73-.14,5.74-1.04,5.74-6.23,0-3.65-3.07-8.8-9.9-8.8-6.03,0-10.23,5.4-10.23,10.25,0,4.6,3.28,9.13,7.37,10.6-.63.4-1.26.82-1.88,1.27l-.32.23c-.71.55-1.78.42-3.12.26-2.38-.29-5.73-.84-9.12,2.6-.25.25-.33.8,0,1.1.32.29,1.27-.04,1.73-.02-2.21,1.2-4.34,2.99-4.58,5.34-.05.25.04.5.24.66l.04.03c.39.3.69.13,1.42-.26.96-.52,3.56-1.94,5.27-1.94l-.83,1.32c-1.43,2.33-2.15,4.61-2.15,6.78,0,2.88,1.07,5.48,3,7.32,1.85,1.76,4.35,2.73,7.05,2.73,3.03,0,5.79-.9,7.79-2.53.85-.7,1.55-1.52,2.1-2.45v7.94c0,3.03,2.46,5.5,5.5,5.5h5.87c1.84,0,3.57.72,4.88,2.02l.5.5.5-.5c1.3-1.3,3.03-2.02,4.87-2.02h5.87c3.03,0,5.5-2.47,5.5-5.5v-7.94c.55.93,1.25,1.75,2.1,2.45,1.99,1.63,4.76,2.53,7.79,2.53,2.7,0,5.2-.97,7.05-2.73,1.93-1.84,3-4.44,3-7.32,0-2.17-.72-4.45-2.15-6.78l-.83-1.32c1.71,0,4.31,1.42,5.27,1.94.73.4,1.03.56,1.42.26l.04-.03c.2-.15.29-.41.24-.66m-16.91-15.45c2.08-1.38,3.17-3.43,3.17-5.94,0-3.21-2.13-6.45-6.2-6.45-1.61,0-3.09,1.02-3.69,2.53-.3.77-.73,2.85,1.37,4.88-3.54.17-4.04-3.12-4.04-3.12,0,0-1.12,2.43,1.35,5.43-.72-.14-1.53-.42-2.2-.97-1-.81-1.51-2.07-1.51-3.75,0-2.41,2.07-7.38,8.48-7.38,5.19,0,8.81,4.65,8.81,8.83,0,4.48-3.54,8.89-7.62,9.58-1.35-.78-2.62-1.41-3.65-1.82,2.29-.22,4.25-.84,5.72-1.82m-.66,16.94l-.02-.03c-.13-.16-.32-.26-.53-.26-.56-.03-1.27.26-1.9.62.49-1.29,1.39-2.58,1.85-3.25.43-.62.62-.9.41-1.31h0c-.13-.24-.37-.39-.63-.39-2.28,0-4.27,1.38-5.53,3.55v-9.13c1.44.6,4.52,2.46,7.71,5.18,4.45,3.79,7.01,7.48,7.01,10.12,0,2.98-1.85,4.83-4.83,4.83-2.61,0-4.5-1.54-4.5-3.67,0-1.83.59-3.83.9-4.9.23-.8.3-1.04.07-1.35m-14.74-41.65h5.27l-2.11,2.78,2.11,2.78h-7.26v-1.39h1.99v-4.16Zm-15.3-2.81h13.88v5.55h-13.88v-5.55Zm6.94,11.48c2.46,0,4.12,1.21,4.68,3.31l-4.68-1.26-4.68,1.26c.56-2.1,2.22-3.31,4.68-3.31m-5,8.6l-.73-3.54,5.73-1.54,5.73,1.54-.73,3.54-5,1.34-5-1.34Zm7.78,2.07c-.85,1.05-1.85,1.74-2.78,1.74s-1.93-.69-2.78-1.74l2.78.75,2.78-.75Zm-7.72,5.48c1.26-1.04,2.01-2.18,2.24-3.39.87.7,1.8,1.08,2.7,1.08s1.83-.38,2.7-1.08c.23,1.21.98,2.35,2.24,3.39.27.22.54.42.81.6-1.05.2-1.92.5-2.72.78-1.04.36-1.95.68-3.04.68s-1.99-.31-3.04-.68c-.8-.28-1.67-.58-2.72-.78.27-.18.54-.38.81-.6m-17.57,13.91c.46.67,1.36,1.97,1.85,3.25-.63-.36-1.34-.65-1.9-.62-.21,0-.4.1-.53.26l-.02.03c-.24.32-.17.56.07,1.35.32,1.07.9,3.07.9,4.9,0,2.13-1.89,3.67-4.5,3.67-2.98,0-4.83-1.85-4.83-4.83,0-2.64,2.55-6.32,7.01-10.12,3.19-2.72,6.28-4.58,7.71-5.18v9.14c-1.26-2.17-3.25-3.55-5.53-3.55-.26,0-.51.15-.63.38h0c-.22.42-.02.7.41,1.32m-6.81-19.95c0-4.18,3.62-8.83,8.81-8.83,6.41,0,8.48,4.97,8.48,7.38,0,1.67-.51,2.93-1.51,3.75-.67.55-1.48.83-2.2.97,2.48-3,1.35-5.43,1.35-5.43,0,0-.51,3.29-4.04,3.12,2.1-2.03,1.68-4.11,1.38-4.88-.6-1.52-2.08-2.53-3.69-2.53-4.07,0-6.2,3.24-6.2,6.45,0,2.51,1.1,4.56,3.17,5.94,1.48.98,3.43,1.6,5.72,1.82-1.04.41-2.3,1.04-3.66,1.82-4.09-.69-7.62-5.1-7.62-9.58m2.69,36.6c-4.29,0-8.63-2.96-8.63-8.63,0-1.9.65-3.93,1.93-6.03l1.53-2.43-.09-.32c-.06-.2-.2-.37-.39-.45-1.7-.78-4.16.16-6.48,1.36,2.68-3.5,7.06-4.84,7.06-4.84,0,0-1.2-.57-4.1-.24,2.7-1.84,5.14-1.46,6.93-1.24,1.53.19,2.98.36,4.15-.54l.29-.21c3.27-2.32,6.24-3.78,7.69-4.23v2.37c-1.83.57-5.47,2.9-8.63,5.6-6.53,5.56-7.51,9.4-7.51,11.2,0,3.8,2.45,6.25,6.25,6.25,3.43,0,5.92-2.14,5.92-5.09,0-1.75-.47-3.58-.81-4.78,1.73.38,2.83,2.23,2.83,2.23,0,0,.52-3.2-2.11-6.64,2.36.88,4.06,3.85,4.06,7.48,0,6.78-5.33,9.18-9.89,9.18m41.95,4.38c0,2.25-1.83,4.08-4.08,4.08h-5.87c-1.99,0-3.88.7-5.38,1.97-1.5-1.28-3.39-1.97-5.38-1.97h-5.87c-2.25,0-4.08-1.83-4.08-4.08v-33.13h7.22c1.99,0,3.32.47,4.6.91,1.12.39,2.17.76,3.5.76s2.39-.37,3.5-.76c1.28-.45,2.61-.91,4.6-.91h7.22v19.55s0,0,0,0c0,0,0,0,0,0v13.56Zm16.95-22.25c-.19.09-.33.25-.39.45l-.09.32,1.53,2.43c1.28,2.1,1.93,4.13,1.93,6.03,0,5.67-4.34,8.63-8.63,8.63-4.56,0-9.88-2.4-9.89-9.17v-.02c0-3.62,1.7-6.58,4.06-7.46-2.63,3.44-2.11,6.64-2.11,6.64,0,0,1.1-1.85,2.83-2.23-.34,1.2-.81,3.02-.81,4.78,0,2.95,2.49,5.09,5.92,5.09,3.8,0,6.25-2.45,6.25-6.25,0-1.79-.98-5.64-7.51-11.2-3.16-2.69-6.8-5.02-8.63-5.6v-2.37c1.45.44,4.42,1.91,7.69,4.23l.29.21c1.17.9,2.62.72,4.15.54,1.79-.22,4.22-.6,6.93,1.24-2.9-.33-4.1.24-4.1.24,0,0,4.38,1.34,7.06,4.84-2.33-1.2-4.79-2.14-6.48-1.36m-45.65,5.26l-.3.3.3.3-.27.27-.3-.3-.3.3-.27-.27.3-.3-.3-.3.27-.27.3.3.3-.3.27.27Zm0-14.94l-.3.3.3.3-.27.27-.3-.3-.3.3-.27-.27.3-.3-.3-.3.27-.27.3.3.3-.3.27.27Zm0,29.88l-.3.3.3.3-.27.27-.3-.3-.3.3-.27-.27.3-.3-.3-.3.27-.27.3.3.3-.3.27.27Zm27.9-14.94l-.3.3.3.3-.27.27-.3-.3-.3.3-.27-.27.3-.3-.3-.3.27-.27.3.3.3-.3.27.27Zm0-14.94l-.3.3.3.3-.27.27-.3-.3-.3.3-.27-.27.3-.3-.3-.3.27-.27.3.3.3-.3.27.27Zm0,29.88l-.3.3.3.3-.27.27-.3-.3-.3.3-.27-.27.3-.3-.3-.3.27-.27.3.3.3-.3.27.27Zm-13.99,5.93l-.3.3.3.3-.27.27-.3-.3-.3.3-.27-.27.3-.3-.3-.3.27-.27.3.3.3-.3.27.27Zm-4.71-19.09c.58,0,1.13-.15,1.6-.41.5.57,1.19.97,1.96,1.1v10.33h0c-.01.21.14.43.29.59h.54c.15-.15.3-.37.29-.59h0v-10.33c.78-.13,1.47-.53,1.96-1.1.48.26,1.02.41,1.6.41,1.85,0,3.35-1.5,3.35-3.35,0-.91-.36-1.73-.95-2.34,0,0,0-.02,0-.03,0-1.85-1.5-3.35-3.35-3.35-.14,0-.27,0-.4.02-.6-.89-1.62-1.47-2.77-1.47s-2.17.58-2.77,1.47c-.13-.02-.26-.02-.4-.02-1.85,0-3.35,1.5-3.35,3.35,0,0,0,.02,0,.03-.59.6-.95,1.43-.95,2.34,0,1.85,1.5,3.35,3.35,3.35m-2.1-4.1c.33-.61,1.46-.99,2.01-.89-.64-.39-1.19-.24-1.19-.24v-.45s0-.02,0-.03c0-1.2.96-2.17,2.15-2.22.94,0,1.42.71,1.42.71,0,0-.26-.81.21-1.45.42-.44,1-.7,1.62-.7s1.2.26,1.62.7c.48.64.21,1.45.21,1.45,0,0,.48-.7,1.42-.71,1.19.04,2.15,1.02,2.15,2.22,0,.01,0,.02,0,.03v.46s-.56-.15-1.19.24c.55-.1,1.69.29,2.01.9.08.24.13.49.13.74,0,1.23-1,2.23-2.23,2.23-.38,0-.74-.09-1.07-.27l-.79-.43c-.23-.14-.69-.19-.96-.12.26.14.47.35.61.52l-.24.27c-.43.49-1.04.77-1.68.77s-1.26-.28-1.68-.77l-.24-.27c.15-.18.35-.39.61-.52-.27-.06-.73-.02-.96.12l-.79.43c-.33.18-.69.27-1.07.27-1.23,0-2.23-1-2.23-2.23,0-.26.05-.51.13-.75m6.78,14.95v-.33s.25,0,.25,0c.48,0,.87.39.87.87v.22h-.74c-.2-.2-.39-.49-.38-.77m-1.37-.33h.25v.33c.01.28-.18.57-.38.77h-.74v-.22c0-.48.39-.87.87-.87m-.81-7.8c-.07.07-.17.14-.27.13.18.05.27.16.27.16v.22c-.07.07-.17.14-.27.13.18.05.27.16.27.16v.26c-.43,0-.36.43-.36.72-.56,0-.49.92-.43,1.55-.15-.24-.35-.41-.51-.5.05-.24-.17-.81-.29-.93.33-.12.71-.62.71-1.07,0-.64.2-1.37.88-1.06v.22Zm-1.97,7.22s-.09-.42-.38-.73c.17.11.58,0,.78-.09-.32-.24-.18-.82-.84-1.31-.14.25-.4.47-.7.56.06.21-.42.87-.26,1.11.47.16.65.83.65,1.22h.62s.11-.09.16-.27c0,.1.06.2.13.27h.22s.11-.09.16-.27c0,.1.06.2.13.27h.39c0-.48-.13-.76-1.07-.76m-6.45-6.59c.28.18.86-.1,1.21-.12.12,0,.31,0,.46.05.48.15.76.58.76,1.14,0,.35-.09.6-.2.89-.09.26-.22.72-.3,1.18-.05.27.02.56.18.75.08.1.23.22.47.22.19,0,.36-.04.5-.09.53-.4,1.12-1.08.87-1.79-.19.34-.69.36-.69.36.49-.86-.43-1.6.39-2.48-.53.19-.75.65-.75.65,0,0-.41-1.17.75-1.74-.41-.11-.84.13-.84.13,0,0,.25-1.16,1.44-.92.07-.35-.53-.35-.53-.35,0,0,1.28-.61,1.67.29.32-.02.42,0,.56.06.45.2.9.21,1.01.3.03.04.07.26,0,.27-.08,0-.24-.1-.26-.16-.08.17.18.27.25.34.07.07.02.34-.17.6-.09-.16-.3-.27-.42-.28-.17-.01-.36.06-.41.24-.06.21.06.44.3.44.33,0,.45-.12.45-.12.15.11.07.47-.17.69-.03-.05-.2-.18-.39-.19-.26-.02-.3.08-.63-.02-.32-.09-.51-.35-.63-.82.03.41.11.65.27.81.48.49,1.32.06,1.53.92-.21-.19-.53-.29-.64-.2.54.24.73.68.78,1-.2-.08-.47-.16-.69-.12.24.03.46.18.7.37.54.46.86.95.98,1.17,0-.63.2-1.28.88-.98v.22c-.07.07-.17.14-.27.13.18.05.27.16.27.16v.22c-.07.07-.17.14-.27.13.18.05.27.16.27.16v.37c-.62,0-.86.85-.86.85,0,0-.03-.15-.36-.7s-1.09-.46-1.29-.17c-.05-.21-.24-.57-.71-.83.35.46.5,1.05.5,1.05-.12.17-.41.57-.67.66-.29-.3-.7-.32-.7-.32,0,0,.39.21.5.5-.05.52-.47.89-.34,1.22-.32,0-.71-.27-.71-.44,0,0-.3.38-.36.61-.08.3.17.53.17.53.95,0,1.07.28,1.07.76h-.39c-.07-.07-.14-.17-.13-.27-.05.18-.16.27-.16.27h-.22c-.07-.07-.14-.17-.13-.27-.05.18-.16.27-.16.27h-.62c0-.24-.22-.64-.55-.64,0-.22.18-.7.41-.85-.27,0-.49-.14-.63-.44.46.02.73-.7.8-1.14-.16.04-.35.08-.56.08-.34,0-.65-.15-.87-.41-.26-.31-.37-.76-.29-1.18.09-.5.23-1,.33-1.26.1-.26.17-.46.17-.71,0-.31-.12-.52-.35-.62-.15.17-.38.29-.61.29-.49,0-.87-.32-.95-.74m5.43-1.35s.34.13.42.15c.16.03.13-.18.04-.22-.16-.08-.47.03-.46.08m6.27.72c.07.07.17.14.27.13-.18.05-.27.16-.27.16v.22c.07.07.17.14.27.13-.18.05-.27.16-.27.16v.26c.43,0,.36.43.36.72.56,0,.49.92.43,1.55.15-.24.34-.41.51-.5-.05-.24.17-.81.29-.93-.33-.12-.71-.62-.71-1.07,0-.64-.2-1.37-.88-1.06v.22Zm1.97,7.22s.09-.42.38-.73c-.17.11-.58,0-.78-.09.32-.24.18-.82.84-1.31.14.25.4.47.7.56-.06.21.42.87.26,1.11-.47.16-.65.83-.65,1.22h-.62s-.11-.09-.16-.27c0,.1-.06.2-.13.27h-.22s-.11-.09-.16-.27c0,.1-.06.2-.13.27h-.39c0-.48.13-.76,1.07-.76m6.45-6.59c-.28.18-.86-.1-1.21-.12-.12,0-.31,0-.46.05-.48.15-.76.58-.76,1.14,0,.35.09.6.2.89.09.26.22.72.3,1.18.05.27-.02.56-.18.75-.08.1-.23.22-.47.22-.19,0-.37-.04-.5-.09-.53-.4-1.12-1.08-.87-1.79.19.34.69.36.69.36-.49-.86.43-1.6-.39-2.48.53.19.75.65.75.65,0,0,.41-1.17-.75-1.74.41-.11.84.13.84.13,0,0-.25-1.16-1.44-.92-.07-.35.53-.35.53-.35,0,0-1.28-.61-1.67.29-.32-.02-.42,0-.56.06-.45.2-.9.21-1.01.3-.03.04-.07.26,0,.27.08,0,.24-.1.26-.16.08.17-.18.27-.25.34-.07.07-.02.34.17.6.09-.16.3-.27.42-.28.17-.01.36.06.41.24.06.21-.06.44-.3.44-.33,0-.45-.12-.45-.12-.15.11-.07.47.17.69.03-.05.2-.18.39-.19.26-.02.3.08.63-.02.32-.09.51-.35.63-.82-.03.41-.11.65-.27.81-.48.49-1.32.06-1.53.92.21-.19.53-.29.64-.2-.54.24-.73.68-.78,1,.2-.08.47-.16.69-.12-.25.03-.46.18-.71.37-.54.46-.86.95-.98,1.17,0-.63-.2-1.28-.88-.98v.22c.07.07.17.14.27.13-.18.05-.27.16-.27.16v.22c.07.07.17.14.27.13-.18.05-.27.16-.27.16v.37c.62,0,.86.85.86.85,0,0,.03-.15.36-.7.33-.55,1.09-.46,1.29-.17.05-.21.24-.57.71-.83-.35.46-.5,1.05-.5,1.05.12.17.41.57.67.66.28-.3.7-.32.7-.32,0,0-.39.21-.5.5.05.52.47.89.34,1.22.32,0,.71-.27.71-.44,0,0,.3.38.36.61.08.3-.17.53-.17.53-.95,0-1.07.28-1.07.76h.39c.07-.07.14-.17.13-.27.05.18.16.27.16.27h.22c.07-.07.14-.17.13-.27.05.18.16.27.16.27h.62c0-.24.22-.64.55-.64,0-.22-.18-.7-.41-.85.27,0,.49-.14.63-.44-.46.02-.73-.7-.8-1.14.16.04.35.08.56.08.34,0,.65-.15.87-.41.26-.31.37-.76.29-1.18-.09-.5-.23-1-.33-1.26-.1-.26-.17-.46-.17-.71,0-.31.12-.52.35-.62.15.17.38.29.61.29.49,0,.87-.32.95-.74m-5.43-1.35s-.34.13-.42.15c-.16.03-.13-.18-.04-.22.16-.08.47.03.46.08"/>
        <g class="cls-20">
          <g class="cls-12">
            <g class="cls-18">
              <rect class="cls-48" x="-10.42" y="-15.55" width="111.26" height="111.6" transform="translate(-14.99 46.59) rotate(-47.69)"/>
            </g>
          </g>
        </g>
        <g class="cls-17">
          <g class="cls-15">
            <g class="cls-53">
              <rect class="cls-40" x="-7.99" y="-13.94" width="106.4" height="108.37" transform="translate(-12.01 59.98) rotate(-60.71)"/>
            </g>
          </g>
        </g>
        <g class="cls-20">
          <g class="cls-16">
            <g class="cls-19">
              <g class="cls-50">
                <rect class="cls-35" x="57.88" y="10.72" width="6.68" height="52.28" transform="translate(23.69 97.68) rotate(-89.37)"/>
              </g>
            </g>
          </g>
        </g>
        <g class="cls-20">
          <g class="cls-26">
            <g class="cls-31">
              <g class="cls-49">
                <rect class="cls-5" x="35.07" y="33.04" width="52.3" height="7.64" transform="translate(23.6 97.62) rotate(-89.28)"/>
              </g>
            </g>
          </g>
        </g>
        <g class="cls-33">
          <g class="cls-25">
            <g class="cls-24">
              <g class="cls-52">
                <rect class="cls-44" x="48.72" y="21.91" width="25.01" height="29.89" transform="translate(19.81 95.1) rotate(-85.64)"/>
              </g>
            </g>
          </g>
        </g>
        <g class="cls-20">
          <g class="cls-23">
            <g class="cls-27">
              <g class="cls-51">
                <rect class="cls-8" x="25.66" y="37.6" width="6.68" height="18.22" transform="translate(-18.6 74.21) rotate(-88.18)"/>
              </g>
            </g>
          </g>
        </g>
        <g class="cls-20">
          <g class="cls-29">
            <g class="cls-28">
              <g class="cls-55">
                <rect class="cls-45" x="2.32" y="42.89" width="52.3" height="7.64" transform="translate(-18.6 74.59) rotate(-89.28)"/>
              </g>
            </g>
          </g>
        </g>
        <g class="cls-33">
          <g class="cls-32">
            <g class="cls-30">
              <g class="cls-54">
                <rect class="cls-46" x="16.5" y="31.76" width="25.01" height="29.89" transform="translate(-19.78 72.07) rotate(-85.64)"/>
              </g>
            </g>
          </g>
        </g>
      </g>
      <g class="cls-20">
        <g class="cls-21">
          <g class="cls-22">
            <g class="cls-56">
              <rect class="cls-39" x="221.69" y="-1.6" width="90.41" height="84.84" transform="translate(97.84 251.34) rotate(-59.93)"/>
            </g>
          </g>
        </g>
      </g>
    </g>
  </g>
</svg>